<svg width="50" height="60" viewBox="0 0 50 60" fill="none" xmlns="http://www.w3.org/2000/svg">
<path d="M11.4441 40.817C8.58092 38.2611 6.15377 35.2553 4.2582 31.9181C3.93191 31.3026 3.57595 30.7019 3.23483 30.1012C2.89371 29.4894 2.58913 28.858 2.32269 28.2102C1.4716 25.9458 0.855334 23.6 0.483585 21.2097C0.0941458 18.8654 -0.0598784 16.4879 0.0238092 14.1129C0.0656583 12.0218 0.246507 9.93587 0.565158 7.86882C0.752008 6.54256 1.06235 5.23666 1.49213 3.96814C1.96594 2.71237 2.58305 1.51547 3.33123 0.401162C3.79842 -0.288502 4.01348 -0.0363668 4.12472 0.757118C4.19217 1.26605 4.22685 1.7788 4.22854 2.29218C4.30207 2.95757 4.30207 3.62904 4.22854 4.29443C4.22854 4.61331 4.18404 4.92477 4.13955 5.22881C4.09505 5.53286 4.01348 5.82949 3.9764 6.14095C3.90966 6.75646 3.81325 7.35713 3.75393 7.97264C3.6946 8.58815 3.65752 9.19624 3.62786 9.81174C3.5982 10.4272 3.58336 11.0428 3.62786 11.6583C3.62786 12.8893 3.67977 14.1203 3.76876 15.3661C3.85775 16.612 3.86517 17.8504 3.98382 19.074C4.13665 20.5894 4.4626 22.0823 4.95528 23.5235C5.45996 24.9548 6.05694 26.3519 6.74247 27.7059C8.2745 30.6984 10.3002 33.411 12.7344 35.7298C13.488 36.4514 14.2775 37.1345 15.1 37.7765C15.5153 38.0954 15.9158 38.4365 16.3459 38.7332L17.6214 39.6305C20.2803 41.3726 23.1988 42.6817 26.2681 43.5089C28.6204 44.0508 31.035 44.2728 33.4466 44.1689C33.9657 44.2134 34.4774 44.1021 35.0039 44.117C35.5304 44.1318 35.8938 44.1615 36.2275 44.1911C36.5314 44.2401 36.8248 44.3404 37.0951 44.4878C37.5424 44.7263 37.9108 45.0895 38.1556 45.5334C38.2893 45.7297 38.4131 45.9327 38.5264 46.1415C38.6747 46.4752 38.5264 46.8015 38.2001 47.1649C37.6928 47.653 37.0994 48.0427 36.4499 48.3143C35.8493 48.4774 35.2412 48.5887 34.6183 48.7222L33.6765 48.9001L32.7272 48.9965C32.0899 49.0707 31.4481 49.1005 30.8066 49.0855C30.1688 49.0855 29.5236 49.0188 28.8711 48.9669C28.2185 48.915 27.5881 48.7963 26.9355 48.7073C26.2962 48.6036 25.6626 48.4675 25.0371 48.2995C24.3994 48.1511 23.7764 47.9361 23.1461 47.7507C22.5158 47.5653 21.9225 47.2761 21.307 47.0091C17.6965 45.5132 14.3453 43.4559 11.3773 40.9134L11.4441 40.817Z" fill="#231F20"/>
<path d="M43.7835 48.2998C44.2324 47.8214 44.5738 47.2525 44.7846 46.6312C44.9309 46.1379 44.8832 45.6073 44.6512 45.1481C44.3552 44.6915 43.9928 44.2816 43.5759 43.9319C42.7551 43.079 41.8191 42.3451 40.795 41.7517C39.69 41.0546 38.5257 40.402 37.3466 39.7939C36.2885 39.2769 35.1928 38.8407 34.0689 38.4887L31.948 37.8139C31.2876 37.6016 30.639 37.3541 30.0051 37.0723C29.7752 36.9314 29.5749 36.264 30.094 35.5892C30.7008 34.8318 31.6397 34.4191 32.608 34.4842C33.4249 34.6079 34.2344 34.7763 35.0329 34.9885C35.8091 35.2258 36.5729 35.4928 37.3244 35.7894C38.8381 36.3782 40.2931 37.1082 41.67 37.9696C42.5006 38.4887 43.3905 38.9485 44.3174 39.4528C44.8285 39.7179 45.3238 40.0126 45.8006 40.3353C46.0391 40.504 46.2669 40.6873 46.4828 40.884C46.7111 41.0752 46.922 41.2861 47.1132 41.5144C48.0926 42.5662 48.7378 43.885 48.9671 45.3038C49.1392 46.7237 48.8507 48.1613 48.144 49.4047C47.4068 50.6947 46.4565 51.8506 45.3334 52.8234C43.7583 54.1684 42.0824 55.3906 40.3204 56.4793C39.0078 57.3396 37.8064 58.3481 36.4716 59.2009C36.1827 59.3972 35.8776 59.5684 35.5595 59.7126C34.3581 60.2169 33.8242 60.0686 33.2087 59.1861C33.0609 58.9941 32.9248 58.7935 32.8008 58.5854C32.4532 57.8451 32.6622 56.9628 33.3051 56.4571C33.7689 55.9794 34.2644 55.5334 34.7882 55.1223C35.3147 54.7292 35.8561 54.3807 36.3974 53.9802C37.4801 53.2387 38.6222 52.5342 39.6455 51.7926C41.1436 50.8182 42.4946 49.6345 43.6574 48.2775L43.7835 48.2998Z" fill="#231F20"/>
</svg>
