<svg width="66" height="76" viewBox="0 0 66 76" fill="none" xmlns="http://www.w3.org/2000/svg">
<path d="M40.2065 23.6811C38.3728 23.5719 36.5327 23.6557 34.7165 23.9311C33.0165 24.1711 31.3965 24.5011 29.7865 24.8311C26.5765 25.5111 23.4865 26.3711 20.4265 27.3011L18.4965 27.8111L18.0865 27.9811L17.7665 28.0811C17.6665 28.0811 17.5065 28.2111 17.4765 28.0811C17.3659 27.8666 17.2755 27.6423 17.2065 27.4111L17.0865 27.2111C17.0429 27.0914 17.0127 26.9674 16.9965 26.8411L16.6965 25.3711L15.4865 19.3711C14.6808 15.304 13.605 11.2952 12.2665 7.37107C12.0165 6.69107 11.7565 6.01107 11.4565 5.37107C11.3065 5.03107 11.1465 4.68107 10.9765 4.37107C10.7602 3.93148 10.5199 3.50416 10.2565 3.09107C9.73772 2.23014 9.05882 1.47656 8.2565 0.871071C7.47665 0.284686 6.52195 -0.0218068 5.5465 0.00106812C4.94241 0.160958 4.35083 0.364836 3.7765 0.611069C3.1965 0.931069 2.6165 1.27107 2.0465 1.61107C0.0465031 2.82107 -1.9535 3.92107 -3.8535 5.11107C-4.8535 5.69107 -5.7735 6.29107 -6.7135 6.90107C-7.1886 7.19911 -7.63994 7.53344 -8.0635 7.90107L-9.3935 8.90107C-10.4635 9.75107 -10.0835 10.3811 -8.5235 10.8211C-7.51828 11.0743 -6.48936 11.2217 -5.4535 11.2611C-4.17804 11.2352 -2.92172 10.9458 -1.7635 10.4111C-0.183497 9.67107 1.3765 8.90107 2.9065 8.14107L5.0865 7.03107V7.03107C5.0865 7.03107 5.1665 6.96107 5.2465 6.97107C5.3265 6.98107 5.2465 6.97107 5.3065 7.04107C5.3665 7.11107 5.4365 7.27107 5.5065 7.40107C5.5765 7.53107 5.7665 7.92107 5.8965 8.20107C6.1565 8.76107 6.3965 9.36107 6.6365 9.98107C7.5865 12.4911 8.3965 15.2511 9.1965 18.0411C9.92255 20.7671 10.4968 23.5314 10.9165 26.3211L11.3165 28.7611C11.4944 29.9273 11.7516 31.0799 12.0865 32.2111C12.2459 32.7008 12.4678 33.168 12.7465 33.6011C13.0094 33.9981 13.3495 34.3382 13.7465 34.6011C13.9427 34.6787 14.1475 34.7324 14.3565 34.7611C14.5642 34.7999 14.7753 34.8166 14.9865 34.8111C15.2292 34.8361 15.4738 34.8361 15.7165 34.8111L16.5465 34.6511L16.8165 34.5911L20.3965 33.4511L22.5965 32.7711C24.0632 32.3244 25.5332 31.9044 27.0065 31.5111C29.8993 30.7075 32.8522 30.139 35.8365 29.8111C36.9724 29.6907 38.1162 29.664 39.2565 29.7311C39.637 29.7461 40.0153 29.7963 40.3865 29.8811C40.6976 29.945 40.9889 30.0821 41.2365 30.2811C41.3865 30.3711 41.4165 30.5511 41.4665 30.7011C41.5165 30.8511 41.5665 31.0211 41.6065 31.1811C41.6465 31.3411 41.7265 31.6811 41.7865 31.9811L41.9865 32.9811C43.1165 38.7111 44.3765 44.5511 45.6765 50.3011C46.6765 54.7811 47.4965 59.3011 48.9465 63.7411C49.2765 64.7411 49.5465 65.7411 49.9465 66.6911C50.4217 68.0449 51.2137 69.2655 52.2565 70.2511C53.0009 70.8061 53.9496 71.0105 54.8565 70.8111C55.2797 70.7645 55.698 70.6808 56.1065 70.5611C56.7262 70.2457 57.1137 69.6064 57.1065 68.9111C57.1476 68.452 57.1476 67.9902 57.1065 67.5311C57.0402 66.9712 56.9093 66.4209 56.7165 65.8911C54.4065 58.8911 52.7165 50.8911 50.7165 42.8111C50.1665 40.3511 49.6065 37.8811 49.0565 35.4111L48.2165 31.6311L47.6665 29.3211C47.5365 28.7122 47.342 28.1188 47.0865 27.5511C46.8147 27.0209 46.5073 26.5097 46.1665 26.0211C45.7465 25.6511 45.2965 25.3211 44.8565 25.0211C44.3777 24.7209 43.8681 24.4728 43.3365 24.2811C42.8033 24.0758 42.255 23.912 41.6965 23.7911C41.4205 23.7209 41.1398 23.6708 40.8565 23.6411L40.2065 23.5611V23.6811Z" fill="#231F20"/>
<path d="M55.2265 68.8711C55.2265 68.9911 55.2265 68.9411 55.2265 68.9711V69.2711C55.2265 69.4011 55.2265 69.6511 55.0565 69.6311C54.9537 69.6453 54.8494 69.6453 54.7465 69.6311L54.5565 69.5711C54.4302 69.5247 54.3146 69.4533 54.2165 69.3611C53.4865 68.8211 52.8565 68.1111 52.1365 67.4811C49.4002 65.3193 46.808 62.9809 44.3765 60.4811C43.3094 59.3406 42.3394 58.113 41.4765 56.8111C40.503 55.187 39.3671 53.6659 38.0865 52.2711C37.7865 52.0111 36.7065 52.2111 35.9265 53.2711C35.074 54.329 34.8422 55.7579 35.3165 57.0311C35.8151 58.0129 36.4079 58.9439 37.0865 59.8111C37.7365 60.6811 38.4165 61.5111 39.0865 62.3111C40.5059 63.9218 42.058 65.4103 43.7265 66.7611C44.7246 67.5983 45.6761 68.4897 46.5765 69.4311L47.9965 70.8111C48.4965 71.2611 48.9965 71.6911 49.5565 72.0911C50.1165 72.4911 50.3465 72.6811 50.7565 72.9611L51.3965 73.3811C51.6365 73.5611 52.0165 73.7511 52.3165 73.9511C52.9143 74.3468 53.5593 74.666 54.2365 74.9011C54.8297 75.1333 55.4524 75.2814 56.0865 75.3411C56.3953 75.35 56.704 75.3232 57.0065 75.2611V75.2611C57.0065 75.2611 56.9265 75.0311 57.0065 75.1311V75.1311V75.1311C57.0399 75.1329 57.0732 75.1329 57.1065 75.1311L57.2865 75.0111L57.6265 74.7611C58.1025 74.316 58.4658 73.7642 58.6865 73.1511C59.4597 71.2561 60.1274 69.3199 60.6865 67.3511C61.4565 64.8311 62.0865 62.2711 62.8865 59.7911C63.5065 57.8611 64.3965 56.0311 65.1265 54.1211C65.2865 53.7011 65.4865 53.3011 65.6165 52.8711C66.0765 51.2411 65.7565 50.6011 64.4665 50.0011C64.1776 49.8512 63.8805 49.7177 63.5765 49.6011C62.5335 49.2804 61.4139 49.7803 60.9565 50.7711C59.3692 54.0449 58.1324 57.4773 57.2665 61.0111C56.5265 63.6411 55.8565 66.3411 55.0465 68.9111L55.2265 68.8711Z" fill="#231F20"/>
</svg>
