<svg width="34" height="60" viewBox="0 0 34 60" fill="none" xmlns="http://www.w3.org/2000/svg">
<path d="M11.2988 31.9464C11.2988 31.9464 15.1429 33.1119 15.6475 35.2365C16.1225 37.221 12.5307 38.1357 12.5307 38.1357C12.5307 38.1357 18.7643 38.8144 18.846 36.4095C18.9276 34.0046 16.6642 31.6218 15.0316 31.7398C13.399 31.8578 11.2988 31.9464 11.2988 31.9464Z" fill="#231F20"/>
<path d="M11.9516 33.2741C10.652 33.0598 9.32258 33.1049 8.04075 33.4068C6.8278 33.6824 5.70146 34.2498 4.76068 35.0593L4.53805 35.2806L4.44158 35.3913C4.44158 35.3913 4.44158 35.4282 4.44158 35.4503C4.38241 35.5513 4.33273 35.6575 4.29316 35.7675C4.18431 36.1403 4.10003 36.5198 4.04085 36.9036C3.77892 38.6994 3.73904 40.5203 3.92211 42.3257C4.08979 44.2604 4.38228 46.1824 4.79779 48.0798C5.17075 49.7755 5.66678 51.4422 6.28198 53.0667C6.66787 54.0995 7.12797 55.1101 7.56581 56.106L7.89233 56.8437L8.15207 57.67C8.30791 58.1937 8.47117 58.7101 8.64927 59.2192C8.85706 59.8462 8.42664 60.1118 7.54355 59.9569C6.99495 59.8354 6.46904 59.6288 5.98514 59.3446C5.68833 59.1818 5.40757 58.9916 5.14657 58.7765C5.00557 58.6659 4.89426 58.5405 4.75326 58.4298C4.65309 58.2877 4.5614 58.1399 4.47868 57.9872C3.37471 55.8408 2.46335 53.6018 1.75518 51.2962C1.06219 48.9809 0.614505 46.5999 0.419408 44.1921C0.300673 42.7167 0.122569 41.2413 0.0335175 39.729C-0.0111725 38.9403 -0.0111725 38.1497 0.0335175 37.3609C0.103589 36.4875 0.288204 35.627 0.58267 34.8011C0.787038 34.2722 1.06696 33.7753 1.41382 33.3257L1.71808 32.9642L1.98523 32.7134C2.15764 32.5465 2.3411 32.3912 2.53439 32.2486C3.26744 31.676 4.07655 31.2068 4.93878 30.8544C6.57891 30.2046 8.32366 29.8547 10.0889 29.8216C12.2341 29.7444 14.3659 30.1875 16.3003 31.1126C18.1571 31.9409 19.526 33.5739 20.0108 35.5388C20.0514 35.7579 20.0737 35.98 20.0776 36.2027C20.0776 36.4241 20.0331 36.6454 20.0182 36.8667C20.0034 37.088 19.8475 37.2798 19.7511 37.479L19.3652 38.0175L18.8754 38.4749C18.7024 38.612 18.5188 38.7353 18.3262 38.8437C18.0075 39.0263 17.675 39.1842 17.3318 39.3159C16.1718 39.7247 14.9607 39.9729 13.7326 40.0536C13.139 40.1273 12.5601 40.1052 11.9665 40.1273C11.3728 40.1495 10.7865 40.1273 10.2077 40.0462C9.62884 39.965 9.19101 39.9872 8.72348 39.8913C8.25596 39.7954 7.86265 39.7216 7.54355 39.6331C7.28184 39.5442 7.0325 39.4227 6.80145 39.2716C6.46827 39.0641 6.22485 38.7406 6.11872 38.3642C6.05556 38.2114 6.0059 38.0534 5.9703 37.8921C5.91093 37.42 6.76434 37.1544 8.08528 37.1544C9.99625 37.3205 11.9181 37.3205 13.8291 37.1544C14.6745 37.0834 15.506 36.8973 16.3003 36.6011C16.4636 36.5273 16.5971 36.4462 16.7456 36.3798C16.894 36.3134 16.842 36.3134 16.8495 36.306V36.306C16.7827 36.306 16.8495 36.3577 16.8495 36.306C16.8276 36.2602 16.8028 36.2159 16.7752 36.1732C16.7276 36.0918 16.6756 36.013 16.6194 35.9372C16.4858 35.7896 16.3968 35.6126 16.2632 35.4577C15.963 35.0983 15.6043 34.7916 15.202 34.5503C14.2193 33.9101 13.1072 33.492 11.9442 33.3257L11.9516 33.2741Z" fill="#231F20"/>
<path d="M9.85803 8.62747C9.94708 8.23648 10.0361 7.85288 10.14 7.46189L10.2439 7.05615C10.2721 6.88162 10.3117 6.70912 10.3627 6.53976L10.6669 5.51435C10.845 4.82091 11.1419 4.20861 11.3645 3.56681L11.8172 2.76271L12.0398 2.36435L12.2847 2.04713C12.7901 1.28567 13.5067 0.686087 14.3477 0.320904C14.7455 0.140311 15.1729 0.0328388 15.6093 0.00369074C15.86 -0.0111476 16.1113 0.0188353 16.3514 0.0922154C16.5616 0.163303 16.7631 0.257319 16.9525 0.372543C17.4448 0.698567 17.8683 1.11706 18.1992 1.60451C18.6098 2.24878 18.9013 2.96078 19.06 3.70697C19.2379 4.50659 19.3594 5.31758 19.4237 6.13402C19.4237 6.55452 19.483 6.97501 19.4979 7.3955C19.5127 7.81599 19.4979 8.28812 19.4979 8.47255C19.4979 9.47583 19.4979 10.4717 19.4162 11.4676C19.3124 13.4447 19.1639 15.407 18.8894 17.3693C18.689 19.1029 18.4812 20.8439 18.2808 22.5332C18.1094 24.7869 17.5444 26.9936 16.6111 29.0545C16.2772 29.6963 15.869 29.4381 15.5573 28.7521C15.1045 27.8023 14.8713 26.7638 14.8746 25.7127C14.9117 25.1742 14.8746 24.6283 14.9488 24.0898L15.075 22.4742L15.2828 19.2135C15.3496 18.1291 15.4163 17.0004 15.4757 15.9455C15.5351 14.8906 15.6909 13.7324 15.7948 12.6701C15.9222 11.3457 15.9346 10.0129 15.8319 8.68648L15.8245 8.24386V7.91189L15.7354 7.21845C15.6923 6.91482 15.5862 6.62341 15.4238 6.36271C15.3461 6.23804 15.194 6.1806 15.0527 6.22255C14.9328 6.26377 14.8254 6.33489 14.741 6.4291C14.3759 6.88104 14.1036 7.39988 13.9396 7.95615C13.8968 8.05735 13.8597 8.16079 13.8283 8.26599L13.6279 8.90042C13.5017 9.33566 13.3682 9.76353 13.2568 10.2062C13.0119 11.084 12.819 11.984 12.6557 12.884C12.1345 15.6158 11.8195 18.3826 11.7133 21.1611C11.6939 23.279 11.8403 25.3952 12.1511 27.4906C12.2105 27.948 12.3144 28.3832 12.3663 28.8406C12.4194 29.4501 12.3819 30.0641 12.255 30.6627C12.1326 31.0293 11.9119 31.3558 11.6168 31.607C11.4984 31.7283 11.3719 31.8417 11.2383 31.9463C11.0231 32.0865 10.7856 31.998 10.4962 31.7176C10.0547 31.3319 9.70923 30.8496 9.48698 30.3086C9.10888 29.3468 8.85939 28.3399 8.74488 27.3135C8.59646 26.2955 8.47773 25.2553 8.41836 24.2226C8.30461 22.1333 8.32444 20.0389 8.47773 17.9521C8.59151 16.398 8.7622 14.8439 8.98977 13.2898C9.10851 12.5078 9.24209 11.7332 9.38308 10.9586C9.52408 10.184 9.64282 9.39468 9.79866 8.61271L9.85803 8.62747Z" fill="#231F20"/>
<path d="M28.9308 12.7292C29.1163 12.1095 29.2796 11.4824 29.4206 10.8701C29.5616 10.2578 29.7248 9.66767 29.8213 9.08489V8.87095V8.73816C29.8246 8.70382 29.8246 8.66924 29.8213 8.63489C29.8293 8.56133 29.8293 8.48713 29.8213 8.41357C29.8289 8.24009 29.785 8.0682 29.6951 7.91931C29.6382 7.80083 29.5009 7.74369 29.376 7.78652C29.2762 7.85262 29.1819 7.92663 29.094 8.00784C29.0101 8.07379 28.9331 8.14793 28.864 8.22915C28.8143 8.27618 28.7696 8.32808 28.7304 8.38407L28.6859 8.43571L28.6117 8.56849L28.4484 8.84144C28.0254 9.57915 27.6469 10.3169 27.2165 11.1062C26.3854 12.6406 25.621 14.2414 24.9235 15.8718C24.3075 17.3472 23.84 18.8226 23.3354 20.298C23.0311 21.2496 22.7714 22.216 22.4894 23.1677L22.059 24.5841C21.9328 25.0415 21.6656 25.4915 21.5246 25.9046C21.4282 26.1554 21.2872 26.1775 21.0942 26.2292C20.9013 26.2808 20.6267 26.1775 20.3521 25.8529C20.0209 25.4518 19.7508 25.0044 19.5507 24.5251C19.3401 23.9649 19.2762 23.3607 19.3651 22.7693C19.5284 21.6923 19.7362 20.6374 19.9737 19.5972C20.1842 18.5514 20.482 17.5249 20.8642 16.5283C21.6113 14.5191 22.5093 12.5685 23.5506 10.6931C23.8697 10.1324 24.1739 9.54964 24.4708 8.96685L25.4652 7.21111L25.814 6.76849C25.9475 6.55456 26.0737 6.34062 26.2295 6.11931C26.5264 5.67669 26.8381 5.26357 27.1497 4.86521C27.6971 4.15225 28.4277 3.59923 29.2647 3.26439C29.7084 3.10555 30.1939 3.10555 30.6376 3.26439C30.8528 3.37505 31.068 3.47833 31.2832 3.59636L31.8621 4.0021C32.5626 4.72632 33.0391 5.63531 33.2349 6.62095C33.352 7.15413 33.4117 7.69817 33.4131 8.2439C33.4337 8.48938 33.4337 8.73613 33.4131 8.98161C33.4131 9.18079 33.4131 9.38735 33.3685 9.57177C33.2951 10.3185 33.1636 11.0584 32.9752 11.7849C32.5058 13.5199 31.9233 15.2227 31.2313 16.8824C30.2294 19.3759 29.005 21.7587 27.8473 24.1193C26.9345 25.9562 26.1331 27.8078 25.1758 29.6226C24.9606 30.021 24.7676 30.4267 24.5227 30.8177C24.2404 31.3651 23.837 31.8418 23.3428 32.212C22.9808 32.3867 22.5689 32.431 22.1777 32.3374C22.0045 32.3165 21.8333 32.282 21.6656 32.2341C21.4207 32.1382 21.3169 31.8947 21.2946 31.4964C21.2503 31.0071 21.3482 30.5156 21.5766 30.08L23.8623 25.2554C24.6043 23.6029 25.3464 21.921 26.0885 20.2316C27.1692 17.7625 28.0815 15.224 28.8195 12.6332L28.9308 12.7292Z" fill="#231F20"/>
<path d="M25.1605 46.6042C23.6837 48.4719 22.0582 50.2185 20.2997 51.8272C19.677 52.4592 19.0073 53.0437 18.2961 53.5755C17.6204 54.0684 16.891 54.4842 16.1217 54.8149C15.6914 54.9999 15.2405 55.1336 14.7785 55.2132C14.2301 55.3146 13.6653 55.2842 13.1311 55.1247L12.7081 54.9772C12.5819 54.9108 12.4558 54.8296 12.337 54.7559C12.0893 54.6006 11.8688 54.4063 11.684 54.1805C11.5015 53.9552 11.3493 53.7072 11.2313 53.4427C11.1384 53.2028 11.064 52.9562 11.0087 52.705C10.8784 51.8218 10.9781 50.9202 11.2981 50.0862C11.7595 48.7926 12.3988 47.5686 13.1979 46.4493C14.1397 45.0319 15.3464 43.8073 16.7525 42.8419C17.1978 42.5468 17.4204 42.9083 17.413 43.528C17.3885 44.3219 17.1305 45.0913 16.6709 45.7411C16.4186 46.0509 16.2108 46.3829 15.9807 46.7001C15.862 46.8624 15.7581 47.0247 15.6616 47.187L15.3203 47.6518C14.9075 48.2598 14.5381 48.8958 14.2145 49.555C13.8941 50.1344 13.6639 50.7587 13.5318 51.4067C13.481 51.6491 13.461 51.897 13.4724 52.1444C13.5095 52.3067 13.5095 52.4468 13.5763 52.5206C13.6431 52.5944 13.6134 52.5723 13.6431 52.6018C13.6617 52.6344 13.6948 52.6563 13.7322 52.6608C13.7322 52.6608 13.7767 52.705 13.8287 52.705C13.8778 52.6974 13.9279 52.6974 13.9771 52.705C14.3179 52.665 14.6466 52.5545 14.9418 52.3805C15.7243 51.9185 16.4491 51.3663 17.1013 50.7354C18.6886 49.265 20.1163 47.6331 21.3609 45.8665C22.1536 44.7732 22.8821 43.6352 23.5427 42.4583C24.0325 41.5731 24.5223 40.6804 24.9156 39.7657C25.0195 39.537 25.1011 39.3009 25.1902 39.0722C25.2347 38.9616 25.2792 38.8436 25.3163 38.7255L25.4054 38.4526C25.5021 38.1705 25.5668 37.8785 25.5983 37.5821C25.7072 37.1628 25.5222 36.7227 25.1456 36.505C24.7746 36.3059 24.2997 36.5862 24.0325 36.7927C23.8989 36.896 23.7876 37.0362 23.6911 37.11C23.6206 37.1731 23.5328 37.2142 23.4388 37.228C23.4388 37.228 23.2459 37.228 23.1568 37.228C23.0483 37.239 22.9389 37.239 22.8303 37.228C22.623 37.2081 22.4227 37.1426 22.244 37.0362C22.0422 36.8875 21.8602 36.714 21.7023 36.5198C21.5558 36.359 21.4264 36.1834 21.3164 35.996C21.187 35.6705 21.1411 35.3181 21.1828 34.9706C21.1812 34.7679 21.2216 34.567 21.3016 34.3804C21.3438 34.2834 21.3934 34.1897 21.45 34.1001L21.539 33.9599L21.591 33.8862C21.591 33.8198 21.591 33.8198 21.591 33.8124V33.8124L21.6504 33.7534C22.1535 33.334 22.6813 32.9447 23.231 32.5878C23.7581 32.2517 24.345 32.0188 24.9601 31.9018C25.2425 31.8592 25.5281 31.8419 25.8135 31.8501H26.244L26.6521 31.9386C27.2202 32.0793 27.7548 32.33 28.2254 32.6763L28.8561 33.414C29.0552 33.6549 29.2223 33.9202 29.3533 34.2034C29.4795 34.4911 29.5537 34.8083 29.665 35.1181C29.7763 35.428 29.7541 35.7968 29.7986 36.1362C29.8431 36.4755 29.7986 36.8739 29.7615 37.2354C29.713 37.6125 29.6335 37.985 29.524 38.3493C29.4454 38.7376 29.3387 39.1197 29.2049 39.4927L29.0565 39.9354C29.0194 40.046 28.9823 40.1567 28.9378 40.26C28.0024 42.549 26.7538 44.6987 25.2273 46.6485L25.1605 46.6042Z" fill="#231F20"/>
<path d="M28.9316 49.157C27.876 50.5262 26.728 51.8226 25.4957 53.0373C25.0282 53.4652 24.62 53.9373 24.1154 54.3283C23.2243 55.0241 22.2789 55.6482 21.288 56.1947C20.7725 56.479 20.2368 56.7256 19.6851 56.9324C19.1 57.166 18.4813 57.3054 17.8521 57.3455C17.2296 57.3683 16.6123 57.2257 16.0637 56.9324C15.429 56.6323 14.9652 56.0627 14.8021 55.3832C14.7276 54.9348 14.7816 54.4746 14.9579 54.0553C15.1022 53.7051 15.3111 53.3848 15.5739 53.1111C15.9972 52.6342 16.4991 52.2326 17.0581 51.9233C17.4069 51.7463 17.5775 52.0266 17.6072 52.5209C17.6431 53.1111 17.5625 53.7025 17.3698 54.2619C17.2835 54.4508 17.2188 54.6488 17.1768 54.852C17.1768 54.9258 17.1768 54.852 17.1768 54.8963V54.8963C17.1768 54.8963 17.1323 54.8963 17.2955 54.9848C17.5415 55.1213 17.8294 55.1633 18.1044 55.1029C18.326 55.0776 18.5431 55.023 18.7501 54.9406C18.9727 54.8225 19.2027 54.7414 19.4328 54.6012C20.5858 53.8544 21.5918 52.9043 22.4012 51.7979C23.3882 50.6102 24.4568 49.4594 25.3696 48.1684C25.9387 47.3905 26.4616 46.5801 26.9354 45.7414C27.6757 44.5433 28.2052 43.2286 28.5012 41.8537C28.5902 41.4241 28.5409 40.9776 28.3602 40.5774C28.3389 40.5142 28.2972 40.4597 28.2415 40.4225C28.209 40.3966 28.1627 40.3966 28.1302 40.4225V40.4225V40.4225L28.2934 40.2897V40.2897L28.3825 40.2233C28.4344 40.2233 28.5012 40.1053 28.5309 40.0832C28.5621 40.052 28.5895 40.0174 28.6125 39.9799C28.6867 39.8766 28.6125 39.8987 28.6125 40.1127C28.5974 40.2574 28.5974 40.4032 28.6125 40.5479C28.6125 40.6438 28.6125 40.7397 28.6125 40.8356V40.8873V40.8873L28.4493 40.9242C28.138 41.0061 27.8107 41.0061 27.4994 40.9242C27.1766 40.7715 26.9038 40.5311 26.7128 40.2307C26.594 40.0684 26.4679 39.9209 26.3714 39.766C26.2206 39.5021 26.1705 39.193 26.2304 38.8955C26.2796 38.5301 26.4431 38.1895 26.6979 37.9217C26.9356 37.6379 27.213 37.3895 27.5217 37.184C28.1535 36.775 28.941 36.6823 29.6515 36.9332C30.1395 37.0728 30.5871 37.3256 30.9576 37.6709C31.0417 37.7446 31.1159 37.8184 31.1802 37.8922C31.247 37.966 31.2915 38.025 31.3435 38.0914L31.6329 38.5045C31.7935 38.764 31.923 39.0413 32.0188 39.3307C32.1148 39.5684 32.1845 39.8157 32.2266 40.0684C32.3675 40.8902 32.3524 41.7309 32.182 42.5471C32.0562 43.2117 31.8699 43.8636 31.6255 44.4947C30.9245 46.1679 30.0225 47.7507 28.9391 49.2086L28.9316 49.157Z" fill="#231F20"/>
</svg>
