<svg width="70" height="103" viewBox="0 0 70 103" fill="none" xmlns="http://www.w3.org/2000/svg">
<path d="M58.6606 102.669C58.4319 102.348 58.068 101.366 57.9948 100.871C57.9708 100.71 57.9099 100.323 57.8564 100.012C57.6702 98.8908 57.6463 98.1909 57.7658 97.3165C57.8396 96.7757 58.1149 95.5222 58.331 94.746C58.7606 93.2041 58.9247 92.7095 59.7854 90.3632C60.4667 88.506 60.8431 87.1849 60.9458 86.2935C60.9698 86.0771 60.9681 86.0678 60.8222 85.9075C60.6541 85.7215 60.1055 85.2533 59.8124 85.0455C58.3899 84.0368 56.108 83.2864 52.7663 82.7286C51.6488 82.5421 50.6519 82.4047 47.7789 82.0407C44.12 81.5773 42.4835 81.3225 40.8913 80.9684C38.2266 80.3757 36.4474 79.5922 35.4708 78.5815C35.1108 78.209 35.0463 78.125 34.8287 77.7456C34.7234 77.5629 34.5544 77.2967 34.4517 77.1539C33.92 76.4146 33.6438 75.646 33.5204 74.5619C33.4964 74.347 33.4705 74.1613 33.4631 74.1491C33.4631 74.1362 33.404 73.8646 33.3468 73.5437C32.9872 71.5027 33.3465 69.5097 34.4598 67.3715C35.7287 64.9343 37.7359 62.2926 42.2939 57.0613C45.5961 53.2714 46.5284 52.173 47.7074 50.6833C48.1885 50.0753 48.9456 49.0569 49.2389 48.6231L49.424 48.349L49.2635 48.3601C45.7845 48.5988 39.4185 50.8071 31.1588 54.6405C26.9517 56.5931 23.4103 58.3862 15.3456 62.6473C7.16377 66.9703 4.05305 68.4728 1.9352 69.1244C1.16892 69.3601 0.750187 69.4383 0.236193 69.4417C-0.28131 69.4454 -0.613961 69.3602 -0.801791 69.1767C-0.868279 69.1108 -0.992952 68.9209 -1.07662 68.7547C-1.15973 68.5884 -1.27924 68.3944 -1.3413 68.3235C-1.67356 67.944 -1.78269 67.6642 -1.87134 66.964C-1.91751 66.5913 -1.99679 66.1171 -2.11167 65.5186C-2.13014 65.4649 -2.14135 65.2277 -2.15428 64.9913C-2.18014 64.5172 -2.08226 63.8126 -1.9286 63.3542C-1.65821 62.5507 -0.790187 61.2296 0.627128 59.4638C2.02228 57.7257 4.68682 54.7875 7.44683 51.944C8.27259 51.0933 12.4831 46.8871 13.4497 45.9469C14.7145 44.7171 16.7901 42.7251 16.96 42.5781C17.0062 42.5372 17.2137 42.3426 17.419 42.1456C17.9759 41.6114 18.929 40.7172 20.1112 39.6194C20.3773 39.3723 20.6144 39.1519 20.6383 39.1295C20.6623 39.1072 21.0332 38.7659 21.4632 38.3712C21.8932 37.9765 22.3515 37.5553 22.4816 37.4352C23.0068 36.9505 23.5306 36.4709 23.6084 36.4036C23.7063 36.319 24.3253 35.7582 24.4141 35.674C24.4659 35.6253 25.0551 35.0948 25.7596 34.4631C25.8428 34.388 25.9405 34.2986 25.9745 34.2649C26.041 34.2002 27.7184 32.7127 28.7694 31.7871C29.1109 31.4863 29.4452 31.1913 29.5121 31.1313C29.6746 30.9854 29.0282 31.3799 25.3139 33.6932C19.7283 37.1718 11.5739 42.3851 5.74805 46.2021C5.42558 46.4134 3.42877 47.7227 1.31092 49.1116C-5.14789 53.3475 -7.08663 54.608 -9.3417 56.0372C-9.57829 56.187 -9.93024 56.4104 -10.1238 56.5335C-10.3172 56.6566 -10.88 57.0081 -11.3746 57.3148C-11.8692 57.6214 -12.4058 57.9552 -12.567 58.0564C-13.086 58.3822 -15.0665 59.5564 -15.8117 59.9802C-17.0344 60.6754 -17.5866 60.9709 -18.7437 61.5485C-21.0069 62.6783 -22.2442 63.1188 -23.2816 63.1641C-23.717 63.1831 -23.8029 63.1752 -24.0274 63.1012C-24.3333 62.9995 -24.4579 62.8775 -24.6767 62.4648C-24.7635 62.2998 -24.9091 62.0723 -24.9987 61.9592C-25.3171 61.5567 -25.412 61.2769 -25.4877 60.5185C-25.5062 60.3788 -25.53 60.1855 -25.5504 60.0888C-25.7822 59.0292 -25.8167 58.2754 -25.6667 57.5379C-25.5208 56.8219 -25.2692 56.2792 -24.6278 55.3036C-22.5687 52.1722 -17.1944 46.3795 -10.5524 40.1322C-10.3588 39.9503 -10.0775 39.6854 -9.92697 39.5439C-9.77553 39.4024 -9.41582 39.0671 -9.12549 38.7988C-8.83534 38.5304 -8.58903 38.3013 -8.57832 38.2898C-8.55985 38.2787 -8.42685 38.1477 -8.26561 37.9999C-8.10493 37.8521 -7.88432 37.6499 -7.77683 37.5508C-7.24252 37.0584 -6.99893 36.8347 -6.62567 36.4943C-6.40164 36.2902 -6.19014 36.097 -6.15561 36.0647C-6.12052 36.0324 -5.91741 35.8478 -5.70335 35.6545C-5.48911 35.4611 -5.30532 35.2937 -5.2946 35.2824C-5.27614 35.2714 -5.01106 35.0252 -4.68859 34.736C-4.36612 34.4468 -4.08303 34.1924 -4.05958 34.1707C-4.01525 34.1284 -3.49123 33.6627 -3.37894 33.5646C-3.342 33.5323 -3.18362 33.3916 -3.027 33.2521C-2.87002 33.1124 -2.71224 32.9718 -2.6753 32.9396C-2.63836 32.9073 -2.47902 32.7667 -2.32111 32.6271C-1.50423 31.9045 -1.25956 31.6889 -1.01281 31.4747C-0.865062 31.3457 -0.645454 31.1543 -0.526514 31.0492C-0.0291419 30.6098 0.950921 29.7619 1.32806 29.4446C1.48135 29.3164 1.62317 29.1922 1.64459 29.1688C1.66676 29.1453 1.79787 29.0306 1.93768 28.9139C2.07805 28.7972 2.20067 28.6928 2.21138 28.6818C2.23724 28.6547 3.2697 27.7744 3.56004 27.5311C3.68932 27.4229 3.80341 27.325 3.81412 27.3135C3.83259 27.3024 4.00079 27.153 4.20506 26.9824C4.40932 26.8119 4.58528 26.662 4.59599 26.6495C4.61446 26.6366 4.88821 26.4002 5.22139 26.1229C5.55476 25.8457 5.83631 25.6079 5.84702 25.5944C5.86549 25.5815 6.28872 25.2202 6.80475 24.7925C7.77493 23.9885 7.89935 23.8848 7.97304 23.8174C7.99705 23.7954 8.10398 23.7076 8.21202 23.6221C8.31914 23.5366 8.41639 23.4565 8.4271 23.444C8.44557 23.4311 8.76324 23.1616 9.15035 22.8443C9.53728 22.5269 9.88919 22.2382 9.93222 22.2028C9.9747 22.1673 10.0984 22.0681 10.2048 21.9822C10.3119 21.8962 10.4347 21.7964 10.4783 21.7603C10.7468 21.5381 12.1955 20.3605 12.3198 20.2634C12.4029 20.199 12.6641 19.9877 12.9017 19.7938C13.139 19.5999 13.6718 19.1712 14.0857 18.8412C14.4996 18.5111 14.8383 18.2339 14.8383 18.2254C14.8383 18.2045 14.9194 18.1599 12.774 19.3527C5.82322 23.2163 1.00073 25.9716 -9.39919 32.0208C-15.0095 35.2841 -17.8247 36.8844 -20.052 38.0766C-21.064 38.6183 -23.0364 39.6021 -23.6484 39.8706C-25.8298 40.8272 -27.666 41.1464 -28.5106 40.716C-28.7021 40.6183 -28.877 40.418 -29.0226 40.1296C-29.0854 40.0038 -29.225 39.7862 -29.331 39.6462C-29.5727 39.3272 -29.6804 39.0431 -29.7476 38.5452C-29.7772 38.3304 -29.8455 37.8921 -29.9009 37.5714C-30.1296 36.2428 -29.9766 35.3951 -29.294 34.1888C-28.6498 33.0517 -27.6038 31.5903 -26.004 29.5913C-23.273 26.1789 -19.6823 22.1717 -11.5901 13.5055C-7.20059 8.80454 -6.18148 7.84657 -5.15054 7.45207C-4.85245 7.33801 -4.76047 7.31875 -4.61013 7.33942C-4.5104 7.35234 -4.39328 7.3932 -4.34951 7.42864C-4.27563 7.4888 -4.27385 7.50186 -4.32741 7.63083C-4.35881 7.70668 -4.49562 7.86419 -4.62952 7.98081C-4.88772 8.20498 -5.42935 8.84035 -6.85812 10.5952C-8.46954 12.5745 -10.6974 15.2562 -13.6571 18.7791C-19.4794 25.7093 -22.7304 29.9345 -24.4844 32.8514C-24.934 33.5991 -25.4931 34.6194 -25.4532 34.6194C-25.3959 34.6194 -23.1954 33.5447 -22.3749 33.1157C-19.7332 31.7341 -17.071 30.2271 -10.0438 26.1347C0.522388 19.9813 6.40602 16.6381 15.0342 11.8853C15.7316 11.5011 16.4738 11.0968 18.2985 10.1066C27.6753 5.0183 36.0599 0.783395 38.0989 0.105772C38.4882 -0.0235991 38.8143 -0.0326998 39.3959 0.069727C39.5963 0.104977 39.9037 0.132512 40.0788 0.130666C40.3098 0.128821 40.4599 0.149865 40.626 0.209291C40.7516 0.254321 40.9958 0.304187 41.1677 0.320243C41.3395 0.336853 41.5295 0.36914 41.5896 0.393686C41.741 0.454957 41.8813 0.624033 41.9363 0.809786C42.0009 1.02424 42.0637 1.08838 42.359 1.23591C42.6503 1.38134 42.7106 1.46909 42.711 1.74731C42.7115 2.07908 42.455 2.76123 42.1904 3.13179C42.1202 3.22979 41.9975 3.4186 41.9171 3.55149C41.8377 3.68437 41.6615 3.90413 41.528 4.0398C41.395 4.17544 41.251 4.35311 41.2097 4.4345C41.1672 4.51588 41.0193 4.68283 40.8789 4.80554C40.7386 4.92827 40.4524 5.19816 40.2434 5.40536C40.0343 5.61256 39.6113 5.98281 39.3035 6.2281C38.7996 6.62974 36.5826 8.29637 35.3233 9.22021C34.6799 9.69224 33.5071 10.5559 32.704 11.1493C30.2166 12.9873 25.535 16.4943 24.2406 17.4894C24.0472 17.6381 23.7832 17.8409 23.6541 17.9398C23.2358 18.2607 22.7242 18.653 22.3445 18.9443C21.8353 19.3349 21.0415 19.9511 20.1033 20.684C19.6696 21.0227 19.1858 21.4007 19.0279 21.5239C18.869 21.6472 18.5863 21.871 18.3975 22.0214C18.2087 22.1718 17.6984 22.5761 17.2635 22.9199C16.8283 23.2636 16.2646 23.7118 16.0106 23.9159C15.7567 24.1201 15.2642 24.5156 14.9161 24.7949C14.5679 25.0742 13.9267 25.5927 13.491 25.9472C13.0555 26.3017 12.6394 26.6389 12.5666 26.6965C12.2395 26.9556 9.70089 29.0432 9.67836 29.0715C9.65989 29.0844 9.19256 29.4842 8.62279 29.9585C8.05302 30.4328 7.33918 31.0295 7.03629 31.2845C6.73339 31.5396 6.26721 31.932 6.00033 32.1567C5.73345 32.3814 5.50626 32.5753 5.49554 32.5876C5.47708 32.6005 5.30888 32.7494 5.10461 32.9201C4.90034 33.0906 4.72439 33.2404 4.71368 33.2527C4.69151 33.2782 3.42596 34.3659 3.15355 34.5937C3.05566 34.6762 2.92108 34.7906 2.85663 34.8476C2.79198 34.9047 2.61621 35.0569 2.46569 35.1858C2.31609 35.3148 2.1835 35.4292 2.1726 35.4402C2.15413 35.4513 1.95074 35.6356 1.70344 35.8499C1.45632 36.0642 1.24517 36.2486 1.23427 36.2597C1.2158 36.2708 0.933556 36.5258 0.589477 36.8264C0.245399 37.127 -0.0550824 37.3907 -0.0785381 37.4123C-0.102548 37.4339 -0.250402 37.5658 -0.409051 37.7055C-1.06045 38.2796 -2.01941 39.134 -2.14278 39.2504C-2.16679 39.2729 -2.45 39.5272 -2.77247 39.8157C-3.09512 40.1042 -3.427 40.4022 -3.50992 40.4779C-3.59303 40.5536 -3.69967 40.6509 -3.74733 40.6938C-4.10932 41.0207 -6.16286 42.9025 -6.42863 43.1509C-6.56899 43.282 -6.80653 43.5034 -6.95686 43.6431C-10.5194 46.9522 -13.7041 50.1215 -16.5149 53.1551C-16.6737 53.3269 -16.8144 53.4765 -16.826 53.4872C-16.8537 53.513 -18.152 54.9698 -18.2311 55.0648C-18.2902 55.1364 -18.2882 55.1368 -18.1682 55.0759C-17.0862 54.523 -12.1396 51.5142 -9.80861 49.9912C-9.70149 49.9209 -9.18216 49.5864 -8.65542 49.2477C-7.66585 48.6114 -7.53756 48.5285 -6.38805 47.7792C-6.01165 47.5339 -5.2864 47.0612 -4.77629 46.7287C-4.26599 46.3961 -3.54013 45.922 -3.16318 45.6749C-2.78622 45.4278 -2.1746 45.027 -1.80393 44.7841C-1.43325 44.5413 -0.839821 44.1509 -0.48503 43.9167C-0.13024 43.6825 0.459121 43.2954 0.824624 43.0565C1.19013 42.8177 1.80597 42.4143 2.19289 42.1599C3.52137 41.2869 8.83868 37.8254 9.95274 37.1086C10.1356 36.991 10.892 36.504 11.6339 36.0263C12.3757 35.5486 13.1673 35.0394 13.3931 34.8946C13.6188 34.7499 13.9531 34.535 14.1358 34.4172C14.9752 33.8762 18.8569 31.4142 20.3125 30.4998C20.8178 30.1824 21.3894 29.8219 21.5829 29.6989C22.0299 29.4146 24.8425 27.6631 26.3521 26.7288C26.6748 26.5293 27.1147 26.2567 27.3297 26.1231C27.5447 25.9894 28.0636 25.6693 28.4829 25.4116C28.9021 25.1539 29.597 24.7268 30.027 24.4625C30.457 24.1981 31.0024 23.8641 31.239 23.7202C31.4754 23.5762 32.1087 23.1898 32.6463 22.8615C33.1838 22.5332 33.9488 22.0677 34.3467 21.8269C34.7445 21.5861 35.6593 21.0322 36.3796 20.5962C42.3602 16.9754 50.0536 12.4349 55.1442 9.52141C60.5647 6.41912 64.1211 4.42155 65.143 3.90542L65.8572 3.54474L66.1593 3.55577C66.3256 3.56131 66.6022 3.59302 66.7744 3.6255C67.0533 3.67828 67.5357 3.70637 67.6358 3.67574C67.6857 3.66097 68.0376 3.76122 68.162 3.826C68.2156 3.85387 68.3702 3.87692 68.5054 3.87692C68.6402 3.87705 68.8096 3.90165 68.8812 3.93155C69.0345 3.99559 69.2043 4.20268 69.2332 4.36162C69.2609 4.51996 69.3937 4.6451 69.6532 4.76172C70.0008 4.91748 70.077 5.16608 69.9269 5.65452C69.8456 5.92061 69.5519 6.55453 69.4942 6.59013C69.4739 6.60305 69.3688 6.75831 69.262 6.93492C69.0613 7.26688 68.9793 7.35565 68.7108 7.53328C68.5834 7.61707 68.5521 7.66092 68.5521 7.75631C68.5521 7.84822 68.5114 7.91112 68.3728 8.03431C68.2749 8.12197 68.0061 8.37879 67.7767 8.60518C67.2642 9.11124 67.1264 9.20916 63.5279 11.6244C57.5648 15.627 51.8776 19.6942 46.7937 23.5923C45.2386 24.7846 42.3035 27.1065 40.6043 28.4883C39.8002 29.1422 37.4899 31.0399 37.3531 31.1588C37.2755 31.2256 37.1703 31.3157 37.1186 31.3589C36.6427 31.7528 35.8078 32.4531 35.7923 32.4715C35.7738 32.4844 35.5528 32.6781 35.2841 32.9024C35.0154 33.1268 34.7427 33.3566 34.6781 33.4133C34.4675 33.598 33.9858 34.0113 33.8022 34.1648C33.7043 34.2473 33.5697 34.3616 33.5051 34.4187C33.4404 34.4757 33.2647 34.628 33.1143 34.757C32.9629 34.886 32.832 35.0001 32.8213 35.0109C32.8028 35.0219 32.6791 35.1358 32.5282 35.2647C32.192 35.5529 32.0797 35.6502 31.8024 35.894C31.6824 35.9992 31.4125 36.2344 31.2016 36.4171C30.9907 36.5998 30.7792 36.7843 30.7318 36.8273C30.6838 36.8703 30.5246 37.0109 30.3765 37.1398C30.2287 37.2686 29.5351 37.8831 28.8355 38.5051C27.7131 39.5029 27.3787 39.8019 27.2156 39.9538C27.1916 39.9761 26.9875 40.1603 26.7618 40.3632C26.5359 40.566 26.3425 40.7411 26.3316 40.7523C26.3132 40.7634 26.2153 40.8607 26.0967 40.968C25.9785 41.0755 25.7067 41.3215 25.4932 41.5149C25.2798 41.7083 25.077 41.8929 25.0425 41.9252C25.0074 41.9575 24.6905 42.2474 24.3366 42.5696C23.9827 42.8918 23.6843 43.1651 23.6735 43.1768C23.6551 43.1879 23.302 43.5219 22.8721 43.9176C22.4421 44.3132 21.9757 44.7446 21.8361 44.876C21.6957 45.0076 21.4329 45.2544 21.2508 45.4245C20.8984 45.7538 20.2271 46.384 20.1937 46.4171C20.1752 46.4282 20.0146 46.5858 19.8224 46.7678C18.9211 47.6166 17.0618 49.4 16.0542 50.3824C14.1169 52.2712 10.259 56.157 9.28698 57.199C9.19648 57.2957 8.99717 57.5071 8.84351 57.6689C8.49814 58.0325 7.65923 58.9291 7.34876 59.2668C7.22133 59.405 7.09119 59.5463 7.05906 59.5808C7.02766 59.6153 6.84206 59.8186 6.64851 60.0325C6.45514 60.2464 6.27795 60.4391 6.25487 60.4606C6.21424 60.4977 5.31288 61.5146 5.18803 61.663C5.01627 61.8669 8.23097 60.2258 14.5062 56.9057C15.4093 56.4279 16.6934 55.7514 17.36 55.4023C18.0265 55.0533 18.8005 54.6479 19.0799 54.5015C32.3053 47.5745 42.1469 43.5564 47.6959 42.8185C48.4376 42.72 49.6427 42.7006 50.2176 42.7783C50.4219 42.8058 50.7297 42.8355 50.9016 42.844C51.4417 42.8709 51.7115 42.9068 52.0744 42.9991C52.268 43.0484 52.5285 43.1008 52.6532 43.1153C53.476 43.2126 54.1754 43.5897 54.5337 44.1291C54.6112 44.245 54.7595 44.4031 54.8646 44.4802C55.3936 44.8682 55.6147 45.3282 55.6176 46.0475C55.6193 46.4745 55.5696 46.7666 55.3969 47.3341C55.1864 48.0277 54.8241 48.8335 54.3513 49.6596C53.9801 50.3083 52.8217 52.0324 52.2196 52.8322C51.1761 54.2183 49.0562 56.7982 47.4601 58.6248C47.3474 58.7536 47.0573 59.0877 46.8153 59.367C46.2985 59.9637 46.0032 60.3028 45.7609 60.5784C45.3171 61.0827 45.134 61.2938 44.9986 61.4569C44.9192 61.5536 44.8416 61.6414 44.8268 61.6522C44.8084 61.6632 44.7049 61.786 44.5874 61.9257C44.4692 62.0654 44.364 62.1883 44.3531 62.1991C44.3347 62.2175 43.777 62.8682 43.0818 63.6836C41.9125 65.055 40.9346 66.3048 40.0869 67.5117C38.6796 69.515 38.0318 71.1143 38.1171 72.3751C38.1485 72.8408 38.2244 73.1229 38.4294 73.5471C38.5679 73.834 38.6343 73.9241 38.7885 74.0374C39.4111 74.4945 40.3305 74.9224 41.3871 75.2466C43.1027 75.773 44.4674 76.0014 50.1385 76.7115C52.793 77.0439 53.9181 77.2194 55.7687 77.5898C57.0909 77.8545 57.8441 78.0298 58.611 78.2512C60.8958 78.911 62.5089 79.757 63.5062 80.8182C63.6447 80.9657 63.9717 81.3076 64.2326 81.5781C65.2023 82.5834 65.6465 83.5155 65.8512 84.9733C65.9103 85.3904 65.8715 86.6465 65.7828 87.2206C65.4827 89.1581 64.5511 91.9668 63.0102 95.579C62.6987 96.3095 62.3203 97.2324 62.17 97.6298C61.8789 98.3983 61.5508 99.1642 61.375 99.4854C61.1242 99.9433 60.4247 100.945 59.8737 101.634C59.2157 102.457 58.9127 102.786 58.8119 102.786C58.7749 102.786 58.7065 102.734 58.6622 102.67L58.6606 102.669Z" fill="#BFF747"/>
</svg>
