<svg width="285" height="154" viewBox="0 0 285 154" fill="none" xmlns="http://www.w3.org/2000/svg">
<g clip-path="url(#clip0_1491_1837)">
<g clip-path="url(#clip1_1491_1837)">
<g clip-path="url(#clip2_1491_1837)">
<path d="M282.618 2.80371C282.618 2.80371 282.844 55.9539 256.524 80.6472C230.204 105.341 153.474 117.608 130.843 78.717C124.878 68.4651 122.151 52.9514 130.195 45.5873C139.268 37.2803 154.768 43.3165 161.189 53.8091C170.169 68.484 166.695 93.9871 145.815 121.89C104.149 177.571 2.75391 131.755 2.75391 131.755M2.75391 131.755C2.75391 131.755 9.7232 136.56 13.158 140.516C15.9683 143.753 14.906 151.167 14.906 151.167M2.75391 131.755C6.77442 131.65 11.474 133.361 16.3263 131.218C19.7388 129.71 20.5293 128.509 23.7702 125.231" stroke="#BFF747" stroke-width="3" stroke-linecap="round"/>
</g>
</g>
</g>
<defs>
<clipPath id="clip0_1491_1837">
<rect width="284" height="153" fill="white" transform="translate(0.439453 0.629883)"/>
</clipPath>
<clipPath id="clip1_1491_1837">
<rect width="284" height="153" fill="white" transform="translate(0.439453 0.629883)"/>
</clipPath>
<clipPath id="clip2_1491_1837">
<rect width="284" height="153" fill="white" transform="translate(0.439453 0.629883)"/>
</clipPath>
</defs>
</svg>
