<svg width="80" height="80" viewBox="0 0 80 80" fill="none" xmlns="http://www.w3.org/2000/svg">
<path d="M71.4443 25.3749C71.8748 25.8471 71.9304 26.5415 71.597 27.0971C71.2915 27.611 71.0276 28.0554 70.722 28.4721C67.5554 32.861 65.8193 35.1526 62.6943 39.5693C61.9026 40.6804 59.9859 44.0832 59.2498 45.2499C59.2359 45.2638 59.2359 45.2776 59.222 45.2915C58.5554 46.2915 56.9165 46.2221 56.3887 45.1249C56.3887 45.1249 56.3887 45.111 56.3748 45.111C55.597 43.4026 54.972 41.6388 54.2498 39.9026C52.2637 35.111 49.4998 30.9582 44.9026 28.236C43.2359 27.2499 43.2081 26.5276 44.4998 25.0971C44.9859 24.5693 45.472 24.0276 45.9998 23.5554C51.097 19.0138 54.6109 13.4026 57.2359 7.15264C57.4026 6.76375 57.7359 6.4582 58.097 6.15264C58.5693 5.76375 59.2498 5.81931 59.6665 6.26375C60.0137 6.62486 60.3331 7.01375 60.5276 7.44431C60.9581 8.44431 61.0693 9.56931 61.3331 10.6388C62.7498 16.4582 65.9026 21.0971 70.6943 24.6665C70.9581 24.861 71.1943 25.111 71.4443 25.3749ZM58.6804 11.4304C57.0276 14.1804 55.6387 17.0138 53.7498 19.486C51.8193 21.9999 49.4026 24.1388 47.1943 26.4582C52.8054 29.8193 56.0554 35.1388 58.0137 41.6665C60.8887 35.7221 64.8609 30.9999 69.222 26.5832C62.3331 21.3332 60.6943 18.9582 58.6804 11.4304Z" fill="#BFF747"/>
<path d="M19.0702 73.3055C17.8063 69.7222 16.709 66.0694 15.3202 62.5416C13.959 59.125 11.9313 56.0833 9.0146 53.7361C7.94516 52.875 7.97294 52.0972 8.84794 51.125C13.7646 45.7778 17.5424 39.7222 20.2507 32.9861C20.5424 32.2639 21.3202 31.1111 21.8618 31.1111C23.334 30.7639 23.8618 33.6389 23.9174 33.9027C25.1535 40.6805 29.3479 45.6111 34.0563 50.2222C35.584 51.7222 35.709 52.1805 34.209 53.625C28.5563 59.0416 24.8063 65.7083 21.584 72.7222C20.5702 75.1666 19.2229 73.7361 19.0702 73.3055ZM10.709 52.0833C13.709 53.9861 15.6952 56.5277 17.1396 59.4028C18.5424 62.2222 19.5702 65.2083 20.7368 68.0694C23.4313 62.0416 27.0702 56.4722 32.5979 52.2361C27.2507 48.0278 23.0285 43.2222 21.7368 36.3333C19.4174 42.5277 15.7368 47.6805 10.709 52.0833Z" fill="#BFF747"/>
<path d="M57.0281 58.3616C53.9586 62.4866 52.0836 67.1949 50.3614 71.9866C50.2503 72.2921 49.8892 74.0282 48.5697 74.0143C48.1947 74.0143 47.5697 73.4171 47.3336 72.9449C46.292 70.8199 45.6392 68.4449 44.3197 66.5282C42.7642 64.2505 40.6253 62.3755 38.8197 60.2782C38.5558 59.9727 38.4586 59.2782 38.6253 58.9032C38.9447 58.2088 39.5142 57.6532 39.9586 57.0143C42.2225 53.681 44.4447 50.3199 46.7781 47.0421C47.2642 46.3616 48.2225 45.5421 48.792 45.5421C50.2086 45.5282 50.4864 46.6393 50.7364 47.431C51.8753 51.0699 53.8336 54.1116 56.6808 56.6255C57.6947 57.5699 57.1531 58.1949 57.0281 58.3616ZM41.4308 59.3199C44.7364 61.6671 46.9864 65.056 48.3475 68.8477C50.3614 65.1532 52.4169 61.3893 54.5281 57.5005C51.6947 55.5421 49.7225 51.8893 48.8197 49.1949C46.3475 52.5838 43.9031 55.931 41.4308 59.3199Z" fill="#BFF747"/>
</svg>
