<svg width="80" height="80" viewBox="0 0 80 80" fill="none" xmlns="http://www.w3.org/2000/svg">
<path d="M68.5142 47.485C65.4309 46.6933 60.2364 45.8461 58.3198 44.5405C57.5281 43.9989 57.6253 43.4016 57.7642 42.985C57.9031 42.5961 58.6948 42.1933 59.1809 42.2211C60.2781 42.2628 61.3753 42.4989 62.4309 42.7905C64.7781 43.4294 67.1114 44.0961 69.417 44.86C70.6392 45.2628 71.0281 46.1933 70.3198 46.7905C69.9031 47.1378 69.5142 47.485 68.5142 47.485Z" fill="#BFF747"/>
<path d="M19.9036 68.9419C20.0425 68.2058 20.3202 67.8169 20.723 67.2475C22.2925 65.053 23.9313 62.9002 25.5425 60.7475C25.6397 60.6225 25.7508 60.4836 25.8758 60.3864C26.4313 59.9141 27.0563 59.3586 27.7786 59.8725C28.5008 60.4002 28.2508 61.178 27.8619 61.803C26.2508 64.428 24.6119 67.0391 22.9452 69.6364C22.6952 70.0391 22.2647 70.3864 21.8341 70.5947C20.7647 71.1086 19.8202 70.4002 19.9036 68.9419Z" fill="#BFF747"/>
<path d="M54.6111 68.4721C54.6111 69.0971 54.125 69.5415 53.7639 69.611C53.2778 69.7082 52.8611 69.6249 52.1667 69.1526C51.9306 68.9998 51.7917 68.6248 51.6528 68.3332C50.6389 66.1387 49.6111 63.9582 48.625 61.7498C48.375 61.2082 48.125 60.5832 48.1667 60.0137C48.2084 59.4998 48.5278 58.7637 48.9445 58.5832C49.3472 58.4026 49.8889 58.3471 50.5278 58.9721C50.7639 59.1943 50.9861 59.5693 51.1389 59.9165C52.1389 62.236 53.1389 64.5554 54.1111 66.8887C54.2917 67.3332 54.4028 67.8193 54.6111 68.4721Z" fill="#BFF747"/>
<path d="M10.5283 49.333C9.8894 49.1524 9.47273 48.8469 9.37551 48.4302C9.25051 47.9024 9.5144 47.1941 9.81995 46.6941C10.0561 46.3191 10.5977 46.083 11.0561 45.9302C13.3477 45.1663 15.6533 44.4163 17.9727 43.708C18.3616 43.583 18.8616 43.5413 19.2366 43.6663C19.8477 43.8746 20.1116 44.3607 19.6116 44.9441C19.3338 45.2774 19.0144 45.6246 18.6394 45.8052C16.4727 46.8885 14.2922 47.9302 12.0977 48.958C11.695 49.1385 11.1533 49.5274 10.5283 49.333Z" fill="#BFF747"/>
<path d="M57.5843 25.499C57.2787 25.374 57.0148 24.874 57.0009 24.5406C56.9871 24.0823 57.1259 23.5267 57.4037 23.1517C58.6954 21.374 60.0565 19.624 61.4037 17.8879C61.5982 17.624 61.8621 17.4156 62.1259 17.2073C62.7232 16.749 63.5009 16.3462 64.0287 17.0406C64.3343 17.4434 64.4315 18.4712 64.1398 18.8184C62.3621 20.9851 60.4454 23.0545 58.5426 25.124C58.3898 25.3045 58.0843 25.5962 57.5843 25.499Z" fill="#BFF747"/>
<path d="M13.0553 22.4854C13.8331 22.7215 14.4303 22.8604 14.9997 23.0687C16.6525 23.6659 18.3053 24.277 19.9442 24.902C20.4025 25.0826 20.8886 25.2631 21.2636 25.5548C21.5275 25.7631 21.8192 26.2909 21.722 26.4854C21.5553 26.8048 21.3053 27.2076 20.7358 27.1659C20.4997 27.152 20.1942 27.1381 19.9303 27.0687C18.0692 26.5687 16.2081 26.0965 14.3608 25.5409C13.7358 25.3603 13.0831 25.0965 12.5831 24.6937C12.222 24.402 11.8886 23.7492 11.9858 23.3604C12.0692 22.9992 12.3747 22.4854 13.0553 22.4854Z" fill="#BFF747"/>
<path d="M38.4721 16.7353C38.4582 16.902 38.4443 17.0686 38.3887 17.2214C38.1526 17.902 37.9998 18.6658 37.0415 18.5964C36.0276 18.527 35.986 17.6936 35.9998 17.0131C36.0415 15.3742 36.1943 13.7353 36.3193 12.0825C36.3748 11.4853 36.4443 10.8742 36.611 10.3047C36.7776 9.7214 37.0137 9.12418 37.8193 9.2214C38.5693 9.31863 38.8193 9.81863 38.8332 10.4853C38.8332 11.2075 38.611 15.3742 38.4721 16.7353Z" fill="#BFF747"/>
</svg>
