<svg width="41" height="64" viewBox="0 0 41 64" fill="none" xmlns="http://www.w3.org/2000/svg">
<path d="M39.9183 1.90753C39.878 1.85454 39.83 1.84953 39.7898 1.81518C39.8004 1.41029 39.811 1.00806 39.8135 0.603221C39.8125 0.459409 39.8461 0.299389 39.7441 0.19355C39.5912 0.0347922 39.3301 0.0205859 39.1382 0.0112381C38.4481 -0.0213526 37.7274 0.148676 37.0793 0.424742C36.6438 0.611474 35.8658 0.981641 35.8625 1.66613C35.8561 3.46657 35.7591 5.2623 35.5928 7.04785C35.5583 7.06406 35.5311 6.98967 35.5084 6.77942C35.3542 8.00826 35.4912 7.38678 35.573 7.27969C35.5158 7.866 35.4505 8.45237 35.3799 9.03877C35.327 9.10039 35.2689 9.16737 35.3207 8.56245C35.1277 9.55718 35.2006 9.70049 35.2814 9.8331C35.1396 10.918 34.9765 12.0005 34.7947 13.075C34.7269 13.2805 34.6587 13.4488 34.601 13.5717C34.4424 14.5342 34.3847 15.0593 34.3788 15.3736C34.2707 15.931 34.16 16.4883 34.0439 17.0404C34.0687 16.7713 34.0568 16.5956 33.9664 16.6175C33.8645 18.4665 33.3415 20.2944 32.8793 22.05C32.3574 24.0324 31.7714 25.9993 31.116 27.9266C29.8285 31.7093 28.2979 35.3844 26.4941 38.8483C25.1374 41.449 23.6199 43.9282 21.9496 46.2486C21.4182 46.8435 21.292 47.0814 21.2053 47.2657C20.9757 47.5709 20.7406 47.8681 20.5029 48.1681C20.6605 47.8367 20.7491 47.5458 20.9148 47.2331C20.4033 48.0116 20.2697 48.3401 20.0884 48.7009C19.8717 48.966 19.6497 49.2232 19.4304 49.483C19.3667 49.5101 19.3821 49.4274 19.3342 49.4358C19.1337 49.7194 18.9967 49.9441 18.8782 50.1446C18.2649 50.8279 17.6596 51.5245 17.0355 52.1919C17.0248 52.1814 16.9243 52.2832 16.5357 52.7173C15.3613 53.9371 14.1385 55.0907 12.8322 56.1036C12.6092 56.225 12.4551 56.282 12.3912 56.2824C12.373 56.3518 12.3151 56.4454 12.228 56.5605C11.552 57.0498 10.8705 57.4992 10.1755 57.9168C9.55703 58.2406 8.93862 58.5697 8.30935 58.867C8.14953 58.868 8.21819 58.7797 8.31362 58.7125C8.50448 58.5753 8.71421 58.4727 8.9132 58.3568C9.32446 58.1196 9.74911 57.893 10.1333 57.5948C8.85422 58.3013 8.62883 58.452 8.27896 58.7074L8.6912 58.2225L8.84069 57.8779L8.18881 58.7692C8.10931 58.8284 8.01653 58.8956 7.90519 58.9736C8.11898 58.6845 8.34848 58.3553 8.57266 58.0262C9.09572 57.3861 9.61612 56.7461 10.1365 56.1007C10.1075 56.1541 10.0732 56.2023 10.047 56.2584C11.079 54.8558 10.7866 55.7287 11.7221 54.2442C11.5554 54.4158 11.333 54.617 11.0949 54.8557C11.6836 54.0687 12.2561 53.2658 12.8073 52.4418C12.9789 52.2142 13.0742 52.1363 13.0173 52.3791C13.4942 51.6194 13.8045 51.0234 13.8853 50.7645C14.1514 50.3339 14.4148 49.9007 14.6729 49.4648C14.4297 50.127 13.7771 51.3033 14.6317 50.067L14.915 49.4152C15.0173 49.1855 15.117 48.9584 15.2727 48.747L15.2428 48.6593C15.2693 48.6351 15.3115 48.5736 15.3642 48.4907C15.4196 48.413 15.4827 48.2874 15.4364 48.1386C15.3298 47.7505 15.0029 47.4677 14.7377 47.2405C14.6707 47.185 14.0145 46.6595 14.0728 46.6112C13.6051 46.3853 13.1251 46.3087 12.6266 46.2508C12.1245 46.0571 11.4368 45.9872 11.1456 46.6471C11.0904 46.754 11.0486 46.8661 11.0014 46.9783C11.0857 46.8472 11.1516 46.7456 11.1885 46.6894C11.5702 46.0183 12.3892 46.2018 12.9313 46.4032C13.5669 46.6359 14.1927 47.0098 14.7365 47.4642C14.9215 47.6308 15.1624 47.8129 15.3113 48.1528C15.2898 48.1343 15.2602 48.0839 15.2171 48.0202C14.9721 47.6384 14.5708 47.3828 14.2231 47.1694C13.7416 46.8744 13.2233 46.6383 12.6897 46.5167C12.3215 46.4313 11.8122 46.3496 11.5 46.6659C11.2355 46.9314 11.0575 47.4014 10.8627 47.7356C10.5994 48.1848 10.3307 48.6288 10.0567 49.0674C9.93486 49.1748 10.0762 48.8063 10.0866 48.7716C10.1363 48.6328 10.2204 48.4671 10.2247 48.3152C9.89267 48.8475 9.57393 49.3717 9.28744 49.9382C9.04299 50.4193 8.78767 50.8685 8.45744 51.2702C8.77893 50.7593 8.88656 50.5269 8.8837 50.4976C8.88647 50.5136 8.60105 50.8458 8.57463 50.8779C8.43732 51.0546 8.30536 51.234 8.16805 51.4107C7.90406 51.7614 7.64287 52.1307 7.34667 52.4443C8.11066 51.981 8.7648 51.0311 9.3002 50.2471C7.56021 52.9009 5.58658 55.2767 3.62386 57.6897C2.92122 58.5574 2.0414 59.2239 1.38974 60.1472C1.14176 60.5004 0.749087 61.1209 1.02393 61.5825C1.36342 62.1501 2.0929 62.4861 2.61396 62.7275L2.1813 62.9515L2.85176 62.8351C3.51688 63.1076 4.20775 63.2494 4.91144 63.3191C4.92483 63.3297 4.92489 63.3377 4.90631 63.3485C4.9409 63.3429 4.97814 63.3347 5.02072 63.3291C5.7217 63.3909 6.43287 63.386 7.15192 63.3625C6.97128 63.4356 6.69991 63.4828 6.26576 63.4884C7.35631 63.6487 8.47204 63.5959 9.56357 63.5086C10.695 63.4156 11.8633 63.2532 12.95 62.8463C13.0138 62.8352 13.0804 62.8295 13.1442 62.8184C14.4147 62.8044 11.9858 63.2577 11.2281 63.4706C13.7332 63.2565 16.2289 62.8267 18.7056 62.3597C21.028 61.9204 23.342 61.412 25.631 60.7572C25.6527 60.4242 26.1375 60.4235 26.8217 59.9714L27.2955 59.9283C27.1438 59.9426 27.3637 59.7653 27.2754 59.7073C28.1843 59.4002 29.0877 59.0665 29.9801 58.6876C30.4741 58.4791 30.1117 58.0714 29.8329 57.8097C28.9563 56.9847 27.6142 56.2667 26.5116 56.6817C26.8985 56.3941 27.3454 56.2978 27.7986 56.3587C27.4547 56.3131 27.1057 56.2995 26.7652 56.3737C26.276 56.5049 25.8035 56.7478 25.3226 56.9268C24.8523 57.1031 24.3711 57.2396 23.8953 57.384C22.9436 57.6728 21.9838 57.9296 21.0349 58.237C21.2018 58.0948 21.4384 58.0346 21.6297 57.9587C22.0096 57.8123 22.3922 57.6659 22.7749 57.5301C23.3834 57.3156 23.981 57.0611 24.5895 56.8466C24.0235 57.0395 23.4575 57.2405 22.8886 57.4201C22.6547 57.4936 22.4235 57.5644 22.1868 57.6167C22.115 57.6331 21.8811 57.7199 21.8167 57.6405L21.6587 57.9106C19.9411 58.3723 21.8514 57.6482 21.2627 57.6522C20.707 57.7998 20.1379 57.9342 19.5959 58.1483C19.4365 58.2106 19.1734 58.2897 19.1082 58.4978C19.0195 58.7728 18.9855 58.8609 18.7226 58.9825C18.1561 59.1062 17.5868 59.222 17.0229 59.3377C16.8845 59.3519 16.7222 59.3876 16.5441 59.4368C16.1238 59.5222 15.7062 59.6076 15.2912 59.693C15.4981 59.5664 15.3324 59.4877 15.2283 59.4431C14.5675 59.8178 13.9021 59.8889 13.1806 59.9417C12.4431 59.9947 11.7195 60.1328 10.9878 60.255C10.9608 60.2019 12.1703 59.8368 12.2652 59.6896C11.808 59.8259 11.2654 59.9468 10.7334 60.0596C11.1818 59.7982 11.6699 59.4993 11.0274 59.8099C10.8257 59.9231 10.6666 60.0174 10.5313 60.1036C10.3052 60.1504 10.0818 60.1999 9.85573 60.252C10.952 59.6853 12.0455 59.1052 13.0984 58.4269C12.9684 58.5157 12.2783 58.8692 12.2961 59.1328C12.3139 59.399 11.9795 59.5904 11.8258 59.7086C13.0845 58.7439 14.3593 57.7844 15.5451 56.6871L16.0056 56.2445C16.1459 56.1077 16.2835 55.9763 16.4237 55.8395C17.2714 55.1546 18.0976 54.4245 18.8968 53.6547C18.9237 53.7052 18.9137 53.7984 18.867 53.9745C19.2165 53.6632 19.5686 53.3519 19.8992 53.0061C20.0262 52.8747 20.1584 52.7353 20.2451 52.5589C20.5237 51.9978 20.931 51.5768 21.3356 51.1426C21.087 51.4 20.841 51.6547 20.5923 51.9094C21.5759 50.8347 22.5111 49.6964 23.4302 48.5396C23.4204 48.6622 23.3417 48.8465 23.619 48.4824C23.7266 48.25 23.8953 47.9852 24.0984 47.6988C24.9698 46.5716 25.9697 45.5555 26.7606 44.3436C26.6843 44.4799 26.5999 44.611 26.5183 44.7421C26.9304 44.2412 27.3237 43.7165 27.7224 43.1998C27.7383 43.1864 27.7305 43.2078 27.7411 43.2024C27.7461 43.1624 27.7539 43.1224 27.7483 43.0878C28.6401 42.2215 29.3429 40.9916 29.9611 39.8448C30.0674 39.4233 30.339 39.0166 30.523 38.6451C30.791 38.1027 31.0804 37.5707 31.3403 37.023C31.6056 36.4672 31.8708 35.9088 32.1227 35.3451C32.2749 35.0058 32.4642 34.6423 32.5442 34.2636C32.3011 34.9444 32.0305 35.4895 31.6122 36.2594L31.504 36.0151C32.1895 34.5856 31.7146 36.0403 32.2534 34.5878C32.1231 34.626 32.0233 34.8291 31.9576 34.9547C31.805 35.2327 31.6765 35.5346 31.5533 35.8337C31.3122 36.4079 31.0925 37.0113 30.7845 37.5408C30.9647 37.0122 31.1769 36.4887 31.3972 35.9786C31.2631 36.2485 31.1345 36.5237 30.9978 36.7883C31.1397 36.5023 31.2816 36.2137 31.4208 35.9251C31.4129 35.9438 31.405 35.9625 31.3972 35.9786C31.7675 35.2063 32.1298 34.4235 32.4787 33.6355C32.4872 33.718 32.5377 33.6963 32.6746 33.4664C33.1164 32.6218 33.4222 31.7674 33.6475 30.8098C33.8412 30.3184 34.0297 29.8244 34.2127 29.3278C34.3897 29.1109 34.5378 28.9474 34.6638 28.6722C34.8186 28.3302 34.944 27.9672 35.0641 27.6068C34.9343 28.1164 34.7992 28.618 34.6588 29.1223C34.8801 28.756 35.0745 28.3605 35.1621 27.9151C35.247 27.4831 35.2975 27.0699 35.4572 26.664C35.273 26.9902 35.2115 26.9586 34.8017 28.1972C34.6717 28.278 34.9555 27.3173 35.0963 26.8635L34.9917 27.1492C34.9916 27.1332 34.9941 27.1172 34.9967 27.1039C35.4223 25.8413 35.8185 24.5682 36.188 23.282C36.1933 23.2713 36.1959 23.2579 36.2011 23.2499L36.1135 23.6766C36.3595 22.6416 36.6562 21.6249 36.9209 20.595L36.9291 20.6216C36.9393 20.5629 36.9496 20.5069 36.9572 20.4536C37.0896 19.9387 37.2166 19.4212 37.3409 18.9036C37.3525 19.042 37.4 18.9805 37.5238 18.375C37.5621 18.5213 37.5102 18.7267 37.4845 18.8707C37.4359 19.1613 37.3739 19.4494 37.3066 19.7348C37.1641 20.3164 37.0082 20.8927 36.8416 21.4638C36.9483 21.0955 37.0565 20.5541 37.2889 20.2596C37.347 20.1846 37.3373 20.3339 37.3322 20.3685C37.3048 20.6483 37.2268 20.9259 37.1621 21.198C37.4072 20.8181 37.4955 19.6936 37.7483 18.8742C37.672 19.0106 37.686 18.7202 37.6277 18.7685C37.8223 18.7912 38.0258 17.3756 38.0566 17.2156C38.1155 16.8663 38.1638 16.517 38.2013 16.1626C38.2087 16.0826 38.2909 15.6319 38.2106 15.5739L37.9871 17.1787C37.8835 17.2194 37.9507 16.5265 37.9744 16.0922C38.8286 12.0541 39.4631 7.82849 39.7012 3.67212C39.7761 3.72221 39.8422 4.03602 39.9402 3.55862C39.9702 3.26812 40.0028 2.97227 40.0088 2.67927C40.0126 2.45819 40.0446 2.07179 39.9102 1.89426C39.8699 1.84127 39.9532 1.9499 39.9102 1.89426L39.9183 1.90753ZM9.40165 49.8895C9.87608 49.1486 9.73186 49.4851 10.0225 49.1369C9.81436 49.4739 9.60086 49.8056 9.38734 50.1346L9.40431 49.8895L9.40165 49.8895ZM11.7787 59.0484C11.2347 59.3398 10.6906 59.6338 10.1411 59.9172C10.7436 59.5908 11.346 59.2564 11.9403 58.9115C12.0253 58.8816 12.1236 58.8437 12.2458 58.7949C12.2458 58.7949 12.0601 58.8974 11.7787 59.0484C11.4974 59.1995 12.0601 58.8974 11.7787 59.0484ZM28.0713 42.0176C28.2373 41.7528 28.4007 41.4854 28.5613 41.2179C28.3405 41.6509 28.1955 41.8649 28.0713 42.0176ZM29.2755 40.0812C29.0811 40.49 28.9107 40.8826 28.7613 41.2485C28.4524 41.6555 28.4433 41.4957 28.5745 41.1965C28.9433 40.5868 29.3013 39.9665 29.654 39.3409C29.5251 39.5841 29.3963 39.83 29.2781 40.0812C29.0838 40.49 29.3937 39.8407 29.2781 40.0812L29.2755 40.0812Z" fill="#161C28"/>
<path d="M35.9745 24.3619C36.0262 24.1378 36.078 23.9164 36.1217 23.6897C36.0103 24.1512 35.8962 24.6021 35.8219 25.0314C35.8219 25.0314 35.8968 24.6953 35.9745 24.3619C35.8969 24.698 36.0133 24.1938 35.9745 24.3619Z" fill="#161C28"/>
<path d="M37.7558 18.8895C37.7822 18.8414 37.8188 18.7479 37.8709 18.5798C37.8263 18.6733 37.7898 18.7827 37.7558 18.8895Z" fill="#161C28"/>
<path d="M21.8226 57.6509L21.8937 57.5279C21.8195 57.5897 21.8012 57.6297 21.8226 57.6509Z" fill="#161C28"/>
<path d="M35.1036 26.8794L35.1271 26.8154C35.2184 26.5298 35.1791 26.6366 35.1036 26.8794Z" fill="#161C28"/>
<path d="M35.4661 26.6799C35.5397 26.5436 35.645 26.3538 35.7862 25.964C35.6496 26.2526 35.5446 26.4823 35.4661 26.6799Z" fill="#161C28"/>
<path d="M21.4989 50.9894C21.4433 51.0484 21.3904 51.1047 21.3402 51.1583C21.3428 51.1556 21.3455 51.1503 21.3481 51.1503C21.4407 51.0591 21.4989 50.9921 21.4989 50.9921L21.4989 50.9894Z" fill="#161C28"/>
<path d="M27.7525 43.2204C27.7475 43.279 27.732 43.3457 27.7085 43.4204C27.7874 43.2681 27.8082 43.196 27.7525 43.2204Z" fill="#161C28"/>
<path d="M27.4357 44.1977C27.2421 44.3295 27.5743 43.8212 27.7047 43.4182C27.4155 43.9741 26.5481 45.293 27.4357 44.1977Z" fill="#161C28"/>
<path d="M0.87137 62.1273C0.796264 62.0506 0.707586 61.9367 0.626609 61.7801C0.572413 61.6446 0.453601 61.4084 0.500476 61.251L0.499878 61.1631L0.510009 61.0858C0.573845 60.6805 0.725832 60.3119 0.918027 59.9804C0.844062 60.0714 0.764787 60.1652 0.701549 60.2668C0.596039 60.4194 0.504136 60.6144 0.504136 60.6144C0.475815 60.7584 0.447497 60.9024 0.427167 61.0464L0.427276 61.0624L0.414591 61.1557L0.414899 61.2009L0.420644 61.2622C0.42146 61.382 0.446263 61.5043 0.478987 61.616L0.525029 61.7275C0.554872 61.8072 0.592561 61.8656 0.630231 61.9212C0.713727 62.0565 0.826379 62.1702 0.938902 62.2654C0.957638 62.2785 1.15824 62.3997 1.1582 62.3944C1.15012 62.3811 1.13938 62.3679 1.13131 62.3573C1.13131 62.3573 1.02426 62.2834 0.874014 62.1246C0.798908 62.0479 1.02426 62.2834 0.874014 62.1246L0.87137 62.1273Z" fill="#161C28"/>
<path d="M4.72986 55.4429C3.5517 56.8918 4.19568 56.4053 3.02542 57.8408L4.1754 56.5573L4.72986 55.4429Z" fill="#161C28"/>
<path d="M6.21002 54.1567L6.01274 54.523C6.21838 54.2099 6.25248 54.1325 6.21002 54.1567Z" fill="#161C28"/>
<path d="M5.81493 54.2733C5.47984 54.7443 5.14742 55.2153 5.14742 55.2153L5.72371 54.5695C5.78264 54.6171 6.13936 54.1938 6.21102 54.1561L6.63984 53.3675C6.52388 53.5494 6.28662 53.9132 6.17808 54.0125L6.45839 53.3208C6.45839 53.3208 6.13666 53.797 5.81493 54.2733C5.47984 54.7443 6.13666 53.797 5.81493 54.2733Z" fill="#161C28"/>
<path d="M7.35287 52.4603C7.30777 52.4873 7.25746 52.5302 7.22026 52.5438C7.2258 52.5757 7.27617 52.5407 7.35287 52.4603Z" fill="#161C28"/>
<path d="M12.3875 56.2022C12.3426 56.2611 12.3481 56.2877 12.3908 56.2901C12.4012 56.2527 12.401 56.2234 12.3875 56.2022Z" fill="#161C28"/>
<path d="M20.9158 47.2386C21.0186 47.0781 21.1136 46.9443 21.2427 46.733C21.1054 46.923 21 47.0782 20.9158 47.2386Z" fill="#161C28"/>
<path d="M12.4738 55.9754L12.0995 56.159L12.0131 56.386L12.4738 55.9754Z" fill="#161C28"/>
<path d="M21.5813 46.1765L21.8254 45.6395L21.5989 46.0113C21.3824 46.2977 21.3649 46.4656 21.5813 46.1765Z" fill="#161C28"/>
<path d="M23.2568 44.1405C23.3328 43.9589 23.4114 43.7773 23.4821 43.593L22.6485 44.7919L23.2568 44.1405Z" fill="#161C28"/>
<path d="M39.1524 10.9726C39.0482 11.6978 38.9785 12.4147 38.9051 12.9904C39.2664 11.6723 39.3047 10.2498 39.4819 8.88769C39.348 9.57573 39.2463 10.2769 39.1524 10.9726C39.0482 11.6978 39.2006 10.6101 39.1524 10.9726Z" fill="#161C28"/>
<path d="M36.9583 23.3989L37.0605 21.976C36.4183 23.9032 36.8979 23.5244 37.0309 23.5076C37.0791 23.1504 37.185 22.6702 36.9583 23.3989Z" fill="#161C28"/>
<path d="M32.9905 34.7745C33.2181 34.1684 33.4644 33.5702 33.6653 32.9536C33.5961 32.954 33.3111 33.7496 33.2639 33.8592C33.3617 33.3471 33.4606 33.0029 33.6421 32.2772C33.4645 32.7978 33.2682 33.3078 33.0986 33.831C33.0699 33.9191 32.7781 34.8772 32.9905 34.7745Z" fill="#161C28"/>
<path d="M34.2377 30.6494C34.1618 30.8496 34.0781 31.0766 33.9891 31.3142C34.0971 31.135 34.187 31.0386 34.2377 30.6494Z" fill="#161C28"/>
<path d="M33.6418 32.2768C33.7595 31.9511 33.8771 31.6227 33.9896 31.313C33.8104 31.5992 33.7301 31.938 33.6418 32.2768C33.6652 32.1914 33.7595 31.9511 33.6418 32.2768Z" fill="#161C28"/>
<path d="M31.5541 37.4879C31.1782 38.2202 30.8049 38.9524 30.8049 38.9524L31.4316 37.8802C31.4213 37.5367 32.2031 36.5699 32.2631 35.9942C32.0295 36.4939 31.8038 37.0014 31.5541 37.4879C31.1782 38.2202 31.7407 37.1217 31.5541 37.4879Z" fill="#161C28"/>
<path d="M19.0541 54.322C19.0275 54.3328 18.9851 54.3598 18.9215 54.4081C18.9639 54.3812 19.009 54.3516 19.0541 54.322Z" fill="#161C28"/>
<path d="M19.5749 54.1349C20.1956 53.353 22.1278 51.1586 23.0501 50.087L22.7232 50.1904C22.3955 50.5655 22.0654 50.9859 21.738 51.4169C20.9139 52.4399 20.1042 53.6253 19.0541 54.3249C19.3144 54.2113 18.0185 55.581 19.5749 54.1376C18.0185 55.5837 20.1956 53.3557 19.5749 54.1376L19.5749 54.1349Z" fill="#161C28"/>
<path d="M17.8475 55.161C18.0561 54.8986 17.6825 55.1808 17.4649 55.3021C17.4013 55.3585 16.5833 56.1071 16.6235 56.1361C16.6555 56.1412 16.6901 56.133 16.7192 56.1115C16.9823 55.6303 17.5254 55.5893 17.8475 55.161C17.6179 55.4715 18.0561 54.8986 17.8475 55.161Z" fill="#161C28"/>
<path d="M17.7299 58.7656L17.2529 59.1391L18.169 58.7147L17.7299 58.7656Z" fill="#161C28"/>
<path d="M27.0315 55.9057C26.8239 55.9311 26.6856 55.948 26.6856 55.948C26.6856 55.948 26.8695 55.9654 27.0507 55.9802C27.2267 56.0163 27.3922 56.0657 27.3922 56.0657C27.3922 56.0657 27.4801 56.0571 27.6053 56.0669C27.9783 56.0777 28.3545 56.1577 28.7148 56.2725C28.1778 56.0338 27.6041 55.8859 27.0315 55.9057C26.8239 55.9311 27.2339 55.899 27.0315 55.9057Z" fill="#161C28"/>
<path d="M29.3633 56.8564C29.3231 56.8274 29.299 56.8116 29.299 56.8116C29.3231 56.8274 29.3419 56.8406 29.3633 56.8564Z" fill="#161C28"/>
<path d="M30.618 58.1286C30.569 57.9638 30.4827 57.8046 30.4827 57.8046C30.197 57.3218 29.7775 57.1329 29.3628 56.8534C29.8204 57.1672 30.3692 57.5656 30.5996 58.1633C30.6727 58.3359 30.6711 58.4824 30.6711 58.4824C30.6756 58.3625 30.6534 58.2402 30.618 58.1259C30.569 57.9611 30.6426 58.2083 30.618 58.1259L30.618 58.1286Z" fill="#161C28"/>
<path d="M27.4844 60.1887C27.6756 60.1048 27.7981 60.0933 27.9152 60.0819C28.4065 59.8735 28.8897 59.6358 29.3757 59.4141C29.3757 59.4141 28.8764 59.6306 28.3771 59.847C27.9307 60.0179 27.4844 60.1887 27.4844 60.1887Z" fill="#161C28"/>
</svg>
