<svg width="61" height="67" viewBox="0 0 61 67" fill="none" xmlns="http://www.w3.org/2000/svg">
<path d="M0.295681 43.4775C-0.75463 42.9917 -1.72826 42.355 -2.59432 41.5875C-3.51623 40.7747 -4.27037 39.7896 -4.81432 38.6875C-5.33998 37.6304 -5.67833 36.4902 -5.81432 35.3175C-5.984 34.1653 -5.96373 32.9931 -5.75432 31.8475C-5.32641 29.5737 -4.22146 27.4823 -2.58432 25.8475C-1.15855 24.4181 0.489488 23.2294 2.29568 22.3275C5.64066 20.6821 9.23078 19.5912 12.9257 19.0975C13.8357 18.9775 14.7657 18.8775 15.7157 18.8275C16.6657 18.7775 17.6157 18.8275 18.5557 18.8275C20.4054 18.9432 22.2439 19.1972 24.0557 19.5875C29.2593 20.7006 34.2103 22.7725 38.6557 25.6975C40.5969 27.0247 42.4173 28.5204 44.0957 30.1675C44.5057 30.5975 44.9357 30.9975 45.3257 31.4475L46.4957 32.8075L47.5957 34.3475C47.9457 34.8775 48.2157 35.4575 48.5257 36.0075C49.6551 38.2927 50.2404 40.8083 50.2357 43.3575C50.2222 45.842 49.6944 48.2969 48.6857 50.5675C47.7148 52.7867 46.3608 54.8177 44.6857 56.5675C43.8362 57.4572 42.9129 58.2735 41.9257 59.0075C41.4357 59.3575 40.9257 59.7075 40.4457 60.0075C39.908 60.3326 39.3502 60.6231 38.7757 60.8775C36.5206 61.9125 34.0556 62.409 31.5757 62.3275C30.1762 62.2758 28.816 61.8511 27.6357 61.0975C26.3855 60.2413 25.4981 58.9511 25.1457 57.4775C24.8622 56.2457 24.9175 54.9603 25.3057 53.7575C25.6448 52.68 26.1292 51.6539 26.7457 50.7075C27.915 48.8899 29.4021 47.2979 31.1357 46.0075C34.5521 43.3897 38.7747 42.0459 43.0757 42.2075C48.6296 42.3878 53.8154 45.0301 57.2257 49.4175C57.6468 49.9533 58.0247 50.5217 58.3557 51.1175C58.7077 51.7015 59.025 52.3059 59.3057 52.9275C59.8691 54.1722 60.2465 55.493 60.4257 56.8475C60.7253 59.4465 60.556 62.0782 59.9257 64.6175C59.5857 66.1575 59.3057 66.7875 59.1657 66.7175C59.0257 66.6475 58.9657 65.8675 58.8257 64.5475C58.6415 62.7782 58.2899 61.0304 57.7757 59.3275C57.4437 58.2927 57.0221 57.2889 56.5157 56.3275C55.999 55.2911 55.3792 54.3095 54.6657 53.3975C54.3676 52.9662 54.0331 52.5614 53.6657 52.1875C53.5005 51.9807 53.3164 51.7899 53.1157 51.6175C53.0214 51.5234 52.9175 51.4396 52.8057 51.3675L52.5257 51.0875C52.148 50.7243 51.7435 50.39 51.3157 50.0875C50.9023 49.7619 50.4605 49.474 49.9957 49.2275C48.1769 48.1983 46.1711 47.5422 44.0957 47.2975C39.9398 46.67 35.7232 47.9567 32.6257 50.7975C31.8765 51.514 31.2061 52.3085 30.6257 53.1675C30.1204 53.8731 29.7508 54.6666 29.5357 55.5075C29.4033 56.0144 29.4751 56.5529 29.7357 57.0075C30.0905 57.4748 30.6223 57.7751 31.2057 57.8375C33.2163 58.0788 35.2545 57.7604 37.0957 56.9175C37.3457 56.8175 37.5657 56.6975 37.8057 56.5875C38.0295 56.4772 38.2466 56.3537 38.4557 56.2175C38.9057 55.8875 39.3957 55.6075 39.8257 55.2175C40.6979 54.5596 41.5049 53.8195 42.2357 53.0075C43.1142 51.9854 43.8601 50.8565 44.4557 49.6475C45.0304 48.4357 45.4343 47.1502 45.6557 45.8275C45.977 43.8642 45.8297 41.8529 45.2257 39.9575C45.1257 39.6475 44.9757 39.3575 44.8557 39.0475C44.7409 38.7378 44.5969 38.4398 44.4257 38.1575C42.9493 35.744 41.0166 33.6414 38.7357 31.9675C36.3909 30.1759 33.8675 28.6311 31.2057 27.3575C25.3457 24.5375 18.8357 23.0075 12.5757 24.2075C9.42586 24.684 6.38148 25.6988 3.57568 27.2075C2.27983 27.9196 1.12977 28.8695 0.18568 30.0075C-0.650156 31.043 -1.11802 32.327 -1.14432 33.6575C-1.21717 35.2883 -0.587293 36.8721 0.58568 38.0075C1.9694 39.1319 3.6518 39.8271 5.42568 40.0075C9.37726 40.5012 13.3893 40.1013 17.1657 38.8375C20.0099 37.8044 22.6703 36.3222 25.0457 34.4475C27.4252 32.6831 29.3486 30.3757 30.6557 27.7175C31.8453 25.1692 31.8962 22.2355 30.7957 19.6475C29.5802 16.9753 27.7381 14.6358 25.4257 12.8275C21.7642 9.93538 17.5098 7.8867 12.9657 6.82745C11.8454 6.53474 10.7105 6.30108 9.56568 6.12745C8.42568 5.93745 7.26568 5.85745 6.11568 5.72745C3.81196 5.59726 1.50158 5.64741 -0.794319 5.87745L-2.30432 6.00745C-2.79432 6.00745 -3.30432 6.18745 -3.77432 6.27745L-5.25432 6.55745L-6.72432 6.93745L-8.07432 7.26745C-8.48432 7.38745 -8.86432 7.52745 -9.24432 7.64745C-9.98432 7.88745 -10.6943 8.02745 -11.3043 8.26745C-12.5143 8.72745 -13.5543 8.98745 -14.3643 9.26745C-15.5962 9.72957 -16.9107 9.93049 -18.2243 9.85745C-18.7095 9.85071 -19.1937 9.81397 -19.6743 9.74745C-20.2843 9.57745 -20.0243 8.88745 -19.0043 7.63745C-18.7195 7.28154 -18.4087 6.94729 -18.0743 6.63745C-17.6843 6.32745 -17.2443 5.98745 -16.7543 5.63745C-15.5988 4.81952 -14.3663 4.11619 -13.0743 3.53745C-8.74123 1.52579 -4.06448 0.358295 0.705681 0.0974529C5.59449 -0.230302 10.5035 0.27007 15.2257 1.57745C20.1448 2.89977 24.7285 5.24785 28.6757 8.46745C30.7466 10.1682 32.5501 12.1706 34.0257 14.4075C34.7969 15.618 35.434 16.909 35.9257 18.2575C36.4267 19.689 36.7263 21.1834 36.8157 22.6975C36.9149 24.9596 36.5048 27.2151 35.6157 29.2975C34.778 31.2144 33.6516 32.9917 32.2757 34.5675C29.6844 37.4587 26.5697 39.8338 23.0957 41.5675C22.2557 42.0075 21.3857 42.4075 20.5057 42.7775C19.5873 43.1689 18.6455 43.5029 17.6857 43.7775C15.8504 44.2723 13.9824 44.6365 12.0957 44.8675C10.182 45.1068 8.24967 45.1604 6.32568 45.0275C4.23175 44.9047 2.1748 44.4209 0.24568 43.5975L0.295681 43.4775Z" fill="#231F20"/>
</svg>
