<svg width="71" height="67" viewBox="0 0 71 67" fill="none" xmlns="http://www.w3.org/2000/svg">
<path d="M22.987 11.1982C22.9586 11.193 22.9309 11.184 22.9049 11.1714L22.8452 11.1518C22.8452 11.1518 22.7706 11.1274 22.7288 11.2046C22.687 11.2819 22.7117 11.2569 22.697 11.3017C22.582 11.4511 22.5216 11.6356 22.5261 11.8242C22.5439 11.8961 22.5789 11.9406 22.636 11.9428C22.6932 11.9449 22.797 11.8549 22.845 12.0111C22.8554 12.2807 22.831 12.5504 22.7725 12.8137C22.6553 13.172 22.491 13.5479 22.2972 13.5341C21.9708 13.5162 21.665 13.3686 21.448 13.1241C21.236 12.9213 21.0996 12.6522 21.0613 12.3613C21.0347 12.0386 20.857 11.7987 20.8427 11.4635C20.8145 11.1126 20.8812 10.7605 21.0357 10.4442C21.1243 10.27 21.2308 10.1054 21.3534 9.95314C21.5235 9.73613 21.7264 9.59592 21.8668 9.39397C21.957 9.19555 22.0249 8.98778 22.0695 8.77444C22.0842 8.72966 22.1061 8.66248 22.1159 8.63262C22.1257 8.60277 22.3792 8.63612 22.7671 9.16792L23.0073 9.49441C23.2172 9.78763 23.3908 10.1052 23.5242 10.4402C23.6587 10.9635 23.5076 11.0215 23.3939 11.1165C23.3087 11.1626 23.2129 11.1854 23.1161 11.1826L22.987 11.1982Z" fill="#231F20"/>
<path d="M17.8233 3.84848C17.7496 3.97119 17.6856 4.09942 17.6317 4.23202C17.617 4.2768 17.6073 4.30666 17.5902 4.35891C17.522 4.51226 17.4874 4.67842 17.4886 4.84625C17.4972 4.9164 17.5379 4.97856 17.5988 5.01451C17.6687 5.07869 17.7779 5.07312 17.7614 5.22471C17.646 5.41011 17.5048 5.57815 17.342 5.72375C17.127 5.92611 16.8597 6.08655 16.7773 6.01002C16.4676 5.75158 16.3141 5.35106 16.3716 4.95181C16.3751 4.7455 16.3681 4.53914 16.3508 4.33353C16.3725 4.12616 16.4172 3.92184 16.484 3.72432L16.5938 3.38843C16.6616 3.23193 16.7147 3.06952 16.7526 2.90326C16.7916 2.78383 16.7038 2.62289 16.7354 2.50102L16.7598 2.42638C16.7892 2.33681 16.9034 2.34114 17.1944 2.41154L17.381 2.47259C17.5559 2.51336 17.7157 2.60289 17.8419 2.73079C17.9247 2.88183 18.0547 3.04005 18.0454 3.14441C18.0529 3.24487 18.0476 3.34588 18.0296 3.445C17.9832 3.58682 17.9368 3.72864 17.8929 3.863L17.8233 3.84848Z" fill="#231F20"/>
<path d="M19.3684 13.0388C19.2449 12.8149 19.1596 12.572 19.116 12.32L19.0493 11.9429L19.062 11.5504L19.0798 11.1679L19.1823 10.8544C19.2312 10.6422 19.2991 10.4349 19.385 10.2348C19.4708 9.92703 19.5978 9.63226 19.7626 9.35852C20.0993 8.9005 20.564 8.55228 21.0981 8.35767C21.6238 8.13975 22.2006 8.07623 22.7611 8.17455C23.305 8.25628 23.8017 8.53017 24.1611 8.94658C24.6291 9.40659 24.7617 10.109 24.4938 10.708C24.4376 10.8797 23.9279 10.7708 23.4354 10.6345C22.9429 10.4981 22.4603 10.3568 22.4128 10.2999C22.3653 10.2431 22.368 10.2853 22.3606 10.2828L22.4345 10.1831L22.5311 10.1403L22.6028 10.0729C22.6174 10.0281 22.5881 10.1176 22.5808 10.14C22.5735 10.1624 22.5381 10.4979 22.5027 10.3789C22.4348 10.3373 22.3581 10.3122 22.2787 10.3056C22.1462 10.2859 22.0136 10.3411 21.9343 10.4491C21.838 10.5415 21.7517 10.6538 21.6579 10.7636C21.5434 10.8905 21.4533 11.0375 21.3921 11.1972C21.3181 11.3198 21.273 11.4576 21.2603 11.6003C21.2463 11.7823 21.3306 11.958 21.4814 12.061C21.7452 12.2111 22.072 12.1958 22.3206 12.0215C22.5613 11.8253 22.7747 11.5978 22.9551 11.3449C22.9879 11.2795 23.0276 11.2177 23.0733 11.1605C23.2484 10.9534 23.3674 10.918 23.718 10.9831C23.7926 11.0075 23.8673 11.0319 23.9419 11.0563C24.1808 11.1345 24.3309 11.3323 24.3203 11.6676C24.2866 12.1986 24.1185 12.7122 23.832 13.1605C23.7554 13.287 23.6644 13.4042 23.5607 13.5097L23.1504 13.8547C22.9885 13.9564 22.8167 14.0414 22.6377 14.1084C22.4611 14.1911 22.273 14.2466 22.0798 14.2729C21.0043 14.5698 19.8636 14.1051 19.3019 13.141L19.3684 13.0388Z" fill="#231F20"/>
<path d="M14.8955 5.89884C14.5385 5.16115 14.5005 4.30908 14.7905 3.54255C14.8394 3.39327 14.8833 3.25891 14.9322 3.10963C14.9887 2.96692 15.056 2.82872 15.1335 2.69624C15.4268 2.24127 15.8678 1.90117 16.3823 1.73312C16.8442 1.56008 17.3442 1.51524 17.8295 1.60336C18.3164 1.67633 18.761 1.92145 19.0826 2.29425C19.4926 2.68278 19.6098 3.28926 19.3741 3.80261C19.3253 3.95189 18.8081 3.84053 18.3232 3.73148C17.9831 3.64491 17.6387 3.57636 17.2913 3.52613C17.2316 3.50659 17.3756 3.49586 17.4674 3.46802C17.5194 3.45341 17.5688 3.43049 17.6135 3.40015C17.6378 3.39096 17.6611 3.37918 17.6828 3.365L17.715 3.34247V3.34247C17.7272 3.30515 17.7028 3.37979 17.6979 3.39472C17.6701 3.44284 17.6527 3.49622 17.6466 3.55147V3.55147L17.6038 3.8845V3.8845V3.8845C17.5735 3.81938 17.526 3.76381 17.4663 3.72383C17.2893 3.60809 17.2133 3.78982 17.122 3.89215C16.9721 4.03863 16.8768 4.23194 16.8519 4.44003C16.8524 4.56906 16.9138 4.69027 17.0176 4.76693C17.2213 4.89722 17.4843 4.88784 17.6781 4.74339C17.8267 4.61283 17.9279 4.43673 17.9659 4.24259C17.9756 4.19905 17.9895 4.15656 18.0074 4.1157C18.1184 3.97849 18.2598 3.95038 18.5956 4.03543L18.812 4.10625C19.0618 4.16661 19.2331 4.39625 19.2199 4.65284C19.2145 4.92081 19.1853 5.18777 19.1324 5.45054C18.963 5.73573 18.7719 6.00747 18.5608 6.26335C18.4617 6.41131 18.3381 6.54133 18.1954 6.64785L17.7619 6.86137C17.4783 6.97646 17.1772 7.04279 16.8714 7.05757C16.4579 7.10611 16.0398 7.01864 15.6804 6.8084C15.3071 6.63426 14.9992 6.34533 14.8016 5.9838L14.8955 5.89884Z" fill="#231F20"/>
<path d="M40.8607 45.4212C39.6954 43.1064 38.4864 40.8076 37.2336 38.5248C36.8116 37.6678 36.2411 36.911 35.8191 36.0541C34.3246 33.0449 32.8253 30.0507 31.1498 27.0897C30.4545 25.7798 29.6528 24.5177 28.8933 23.2777C27.8063 21.7123 26.8359 20.0692 25.99 18.3615C25.7386 17.8166 26.1102 17.6406 26.7791 17.7934C27.7192 17.9937 28.585 18.4515 29.2799 19.1156C31.9929 21.9615 34.7307 24.8073 36.4717 28.3763C37.5711 30.4713 39.1661 32.3399 40.4811 34.3567C41.2297 35.4279 41.8894 36.5939 42.5465 37.7426L44.5054 41.2012L46.8787 45.4895C48.0828 47.6434 49.1979 49.8674 50.4515 51.9963C50.9404 52.8255 51.4886 53.5998 51.9874 54.424C52.4863 55.2483 53.0518 56.02 53.5087 56.8966C53.7391 57.2484 53.92 57.6301 54.0465 58.0311C54.4503 59.6257 54.2057 60.2976 53.3549 60.9282C53.1685 61.076 52.9744 61.2139 52.7735 61.3413C52.1174 61.705 51.2411 61.3275 50.3925 60.5623C50.0978 60.2758 49.7559 59.9822 49.414 59.6886C49.1165 59.3961 48.8478 59.0757 48.6115 58.7319C48.0862 58.0643 47.5684 57.3991 47.0805 56.7437C46.1003 55.3453 45.2183 53.8806 44.4409 52.3601C43.2114 50.1069 42.0114 47.789 40.7395 45.5137L40.8607 45.4212Z" fill="#231F20"/>
<path d="M48.5107 58.9137C49.1954 59.1853 49.9302 59.3073 50.6659 59.2717C50.9727 59.2431 51.274 59.1721 51.5613 59.0606C51.6285 59.0826 51.8316 58.992 52.0362 58.7202C52.3551 58.188 52.5984 57.6141 52.7594 57.0149C53.2023 55.7099 53.5127 54.3636 53.6857 52.9964C53.8739 51.5623 53.9923 50.089 54.0884 48.6082C54.1363 47.287 54.0858 45.964 53.9372 44.6503C53.678 42.9717 53.5589 41.2744 53.5811 39.576C53.6178 39.0344 54.2582 38.9712 54.9607 39.3497C55.8227 39.7497 56.4786 40.4915 56.7701 41.396C57.2158 43.1354 57.5517 44.9012 57.7756 46.6828C58.0382 48.4958 58.0451 50.3366 57.7962 52.1514C57.6334 53.255 57.5702 54.3829 57.46 55.5533C57.391 56.7771 57.1751 57.9882 56.817 59.1605C56.5772 59.891 56.2438 60.5874 55.8252 61.2323C55.5828 61.6021 55.3016 61.945 54.9865 62.2552C54.6548 62.5836 54.2815 62.8671 53.8761 63.0983C53.1839 63.4766 52.4398 63.751 51.6678 63.9128C50.9145 64.074 50.1437 64.1384 49.3741 64.1044C47.697 63.9612 46.0589 63.5204 44.5364 62.8027C42.4515 61.785 40.4357 60.6314 38.502 59.3495C37.0291 58.4214 35.3396 57.8521 33.9434 56.8913C33.6294 56.6894 33.2908 56.5373 33.0014 56.3105C31.904 55.4722 31.8041 54.9189 32.3112 53.6718C32.4064 53.3807 32.5017 53.0896 32.6766 52.8329C33.1611 51.9449 34.2174 51.5385 35.1721 51.8727C35.9614 52.0869 36.7302 52.3384 37.4786 52.6273L38.5985 53.0432C38.9577 53.1939 39.3063 53.3687 39.642 53.5664C40.9453 54.3564 42.167 55.2188 43.3736 56.0267C44.9651 57.1901 46.7127 58.1234 48.5647 58.7991L48.5107 58.9137Z" fill="#231F20"/>
</svg>
