<svg width="80" height="80" viewBox="0 0 80 80" fill="none" xmlns="http://www.w3.org/2000/svg">
<path d="M71.8477 43.194C72.3199 41.8329 73.0422 38.5551 73.5422 38.0134C73.9588 37.5551 74.4172 37.0829 75.2922 37.2218C75.9866 37.3329 76.1811 38.2218 76.1533 38.7495C76.0838 39.944 75.8061 41.1523 75.4449 42.3051C74.2783 46.0968 73.0699 49.8884 71.8338 53.6662C71.4866 54.7218 71.1255 55.8051 69.7088 55.8745C68.2227 55.944 67.6811 54.9162 67.3061 53.7773C65.8477 49.3745 64.4311 44.9579 63.0422 40.5412C62.5977 39.1384 63.1116 38.3468 63.6533 38.1523C64.7366 37.7773 65.3477 38.4579 65.8199 39.319C66.5283 40.6107 67.1949 41.944 68.0283 43.2218C68.1672 39.4579 68.4866 35.6662 67.0699 32.0412C65.4449 27.9301 61.4311 26.8329 57.9449 29.4995C55.8061 31.1384 54.4311 33.3468 53.6255 35.8607C52.6394 38.9023 51.9727 42.0551 50.931 45.0829C50.181 47.2495 49.3616 49.4995 48.0422 51.3468C45.2644 55.2218 40.9172 55.069 38.0838 51.2357C36.0699 48.5134 35.4311 45.3468 35.0005 42.0829C34.6672 39.6245 34.2783 37.1523 33.6672 34.7634C33.0699 32.4579 32.0005 30.069 29.2644 30.0273C26.7088 29.9718 25.5283 32.2634 24.8199 34.3607C23.8616 37.2218 23.3199 40.2357 22.4866 43.1523C21.7922 45.5829 21.2088 48.1107 20.0838 50.3468C17.6949 55.0829 12.8894 55.8051 8.91716 52.2495C5.8616 49.5134 4.94494 44.9162 4.51438 41.6662C4.06994 38.319 4.00049 37.3329 3.8616 32.6107C3.81994 31.3329 3.72272 29.4162 5.63938 29.4023C7.56994 29.3884 7.40327 31.319 7.47272 32.5829C7.77827 37.6801 7.93105 39.1801 8.4866 42.8468C8.83383 45.1245 9.65327 48.1523 11.3755 49.7773C13.0838 51.3884 16.3616 51.319 17.4172 48.6523C18.7088 45.4023 19.3616 41.9023 20.3755 38.5273C21.1811 35.8468 21.7505 32.9995 23.0977 30.5968C26.3894 24.7357 32.8894 24.8884 36.2922 30.694C36.7366 31.4579 37.1811 32.2634 37.3616 33.1107C37.9727 35.8468 38.4172 38.6384 39.0422 41.3745C39.6116 43.8329 40.0699 46.3607 41.0561 48.6523C42.1533 51.194 44.181 51.2357 45.4033 48.7357C46.6533 46.194 47.3061 43.3468 48.2366 40.6523C49.2922 37.5829 50.1394 34.4162 51.4727 31.4579C52.8616 28.3607 55.3061 26.0551 58.5283 24.7634C62.1255 23.319 66.0838 24.319 68.6255 27.2496C70.6672 29.5968 71.5977 32.3884 71.9033 35.4301C72.0561 36.9579 72.0144 40.8051 71.8477 43.194Z" fill="black"/>
</svg>
