<svg width="44" height="77" viewBox="0 0 44 77" fill="none" xmlns="http://www.w3.org/2000/svg">
<path d="M-0.404039 60.3534C1.60794 59.2904 3.53676 58.077 5.36596 56.7234C7.26596 55.3534 9.01596 53.8434 10.736 52.2634C11.366 51.6734 11.966 51.0634 12.566 50.4534C13.166 49.8434 13.736 49.2034 14.336 48.5934C18.5786 44.2212 22.4393 39.4939 25.876 34.4634C27.3887 32.2244 28.7485 29.8858 29.946 27.4634C30.706 25.9234 31.406 24.3434 32.026 22.7534C32.646 21.1634 33.366 19.6234 33.886 18.0034C34.236 17.0034 34.616 17.1734 34.886 18.1934C35.0797 18.8771 35.1839 19.583 35.196 20.2934C35.2352 20.7526 35.2352 21.2143 35.196 21.6734L35.116 22.4234C35.0565 22.674 34.983 22.9211 34.896 23.1634C33.6936 26.6327 32.1668 29.9808 30.336 33.1634C28.5418 36.3447 26.4917 39.3747 24.206 42.2234C21.466 45.6234 18.736 49.2234 15.656 52.5234C12.2702 56.1458 8.49391 59.3822 4.39596 62.1734C1.81805 63.9501 -0.995937 65.3571 -3.96404 66.3534C-6.30382 67.1459 -8.79183 67.4022 -11.244 67.1034C-12.538 66.9428 -13.79 66.539 -14.934 65.9134C-16.1711 65.2286 -17.1691 64.1818 -17.794 62.9134C-18.6352 61.0323 -18.8862 58.9402 -18.514 56.9134C-18.2478 55.045 -17.6733 53.2338 -16.814 51.5534C-16.4627 50.8223 -16.0652 50.1142 -15.624 49.4334C-13.894 46.9434 -12.914 46.4934 -11.814 46.6534C-11.5633 46.669 -11.3151 46.7126 -11.074 46.7834C-10.384 47.0634 -10.724 48.3034 -11.594 50.0534C-12.2464 51.3372 -12.7851 52.6757 -13.204 54.0534C-13.6401 55.3142 -13.9385 56.6185 -14.094 57.9434C-14.2567 58.941 -14.1318 59.9643 -13.734 60.8934C-13.3936 61.6137 -12.7536 62.1476 -11.984 62.3534C-10.2068 62.933 -8.305 63.016 -6.48404 62.5934C-4.38167 62.1166 -2.3603 61.335 -0.484039 60.2734L-0.404039 60.3534Z" fill="#231F20"/>
<path d="M12.8866 68.1934C14.2667 67.6248 15.6036 66.9563 16.8866 66.1934C17.3666 65.9134 17.7666 65.5334 18.2366 65.2534C19.9367 64.2638 21.5552 63.1403 23.0766 61.8934C23.7404 61.3295 24.362 60.7179 24.9366 60.0634C25.3266 59.6634 25.6366 59.1934 26.0466 58.8134C26.4566 58.4334 26.8466 58.0434 27.2666 57.6734C27.5166 57.4334 27.7266 57.6234 27.8166 58.0534C27.9213 58.6521 27.8447 59.2685 27.5966 59.8234C27.5366 59.9634 27.4866 60.1234 27.4166 60.2534L27.1466 60.6234L26.5966 61.3234C26.2166 61.7934 25.8266 62.2434 25.4166 62.6734C24.6049 63.5467 23.7145 64.3434 22.7566 65.0534C21.5966 65.8934 20.5766 66.9834 19.3866 67.8434C18.0413 68.7737 16.6348 69.6123 15.1766 70.3534C14.2866 70.8034 13.3766 71.2234 12.4466 71.5934C11.019 72.1599 9.53832 72.582 8.02661 72.8534C6.83483 73.112 5.61524 73.2195 4.39661 73.1734C4.12142 73.1715 3.84697 73.1447 3.57661 73.0934C2.57661 72.7534 2.36661 72.3534 2.38661 71.7834C2.37634 71.6503 2.37634 71.5165 2.38661 71.3834C2.46661 70.9834 2.95661 70.7534 3.58661 70.6734C4.0291 70.5835 4.47656 70.52 4.92661 70.4834C5.35661 70.4134 5.78661 70.3634 6.21661 70.2534C7.07661 70.0834 7.92661 69.8134 8.82661 69.6034C10.2027 69.2559 11.5421 68.777 12.8266 68.1734L12.8866 68.1934Z" fill="#231F20"/>
<path d="M-5.01339 69.9031C-6.34194 70.3767 -7.72727 70.6726 -9.13339 70.7831C-10.7052 70.8957 -12.2814 70.6353 -13.7334 70.023C-15.2136 69.3687 -16.4938 68.3335 -17.4434 67.023L-18.0734 66.093L-18.5834 65.093C-18.9393 64.3607 -19.1949 63.5837 -19.3434 62.7831C-19.7108 60.0157 -19.3667 57.2004 -18.3434 54.6031C-17.492 52.2626 -16.4519 49.9951 -15.2334 47.8231C-12.8538 43.5472 -9.94784 39.5863 -6.58339 36.0331C-3.25129 32.4468 0.502684 29.2771 4.59661 26.5931C7.61643 24.5937 10.8624 22.959 14.2666 21.7231C17.7867 20.4456 21.5266 19.8846 25.2666 20.073C28.6347 20.2762 31.9271 21.1571 34.9466 22.663C36.5272 23.4209 37.9891 24.4045 39.2866 25.583C40.658 26.8521 41.7363 28.4048 42.4466 30.1331C43.1307 31.8187 43.4707 33.6241 43.4466 35.4431C43.4181 37.132 43.183 38.8112 42.7466 40.4431C41.8957 43.572 40.6205 46.5699 38.9566 49.3531C37.3696 52.0553 35.5422 54.6089 33.4966 56.9831C31.4663 59.3199 29.2885 61.5244 26.9766 63.583C22.3727 67.7375 17.1373 71.1333 11.4666 73.6431C10.1899 74.2012 8.88478 74.6919 7.55661 75.1131C6.88661 75.3131 6.20661 75.503 5.55661 75.673C4.65791 75.8744 3.7369 75.9584 2.81661 75.923C1.8754 75.8843 0.949627 75.6706 0.086607 75.2931C-0.775161 74.9445 -1.44052 74.2353 -1.73339 73.3531C-2.21339 71.5831 -1.08339 69.7831 0.186607 68.3531C0.336607 68.1831 0.516606 67.973 0.646606 67.843L1.01661 67.4731C1.26661 67.2231 1.51661 66.973 1.76661 66.743C2.26661 66.253 2.76661 65.803 3.30661 65.343C4.30661 64.433 5.41661 63.5831 6.50661 62.7531C8.68077 61.1037 10.9551 59.5908 13.3166 58.223C16.382 56.3979 19.6554 54.9476 23.0666 53.903C24.8643 53.3682 26.7223 53.0624 28.5966 52.993C30.6235 52.9077 32.6435 53.2803 34.5066 54.083C36.4149 54.978 38.0181 56.4142 39.1166 58.2131L39.8566 59.5331C40.0857 60.0207 40.2763 60.5256 40.4266 61.043C40.7073 62.0196 40.8652 63.0274 40.8966 64.0431C40.9614 65.9305 40.7148 67.8158 40.1666 69.623C39.6639 71.3944 38.9381 73.0947 38.0066 74.6831C36.7666 76.6831 35.7466 77.193 35.5666 76.913C35.3866 76.633 35.7366 75.5231 36.0666 73.7631C36.5175 71.4583 36.6287 69.1 36.3966 66.7631C36.3087 65.4299 36.0291 64.1164 35.5666 62.863C35.0416 61.7633 34.2922 60.7857 33.3666 59.993C32.4926 59.3093 31.4612 58.8555 30.3666 58.673C29.0394 58.4729 27.6884 58.4898 26.3666 58.723C23.2842 59.3031 20.3051 60.3378 17.5266 61.793C14.6017 63.2784 11.8054 65.0043 9.16661 66.953C7.82661 67.953 6.52661 68.9531 5.32661 70.0031C5.02661 70.2731 4.71661 70.543 4.44661 70.813L3.90661 71.3331C3.79661 71.4331 3.82661 71.393 3.78661 71.443C3.74661 71.493 3.78661 71.5931 3.90661 71.6031H4.07661L4.49661 71.5131L5.05661 71.373C5.80661 71.173 6.56661 70.933 7.31661 70.663C10.392 69.5028 13.338 68.0248 16.1066 66.2531C21.7349 62.5902 26.767 58.0843 31.0266 52.8931C33.5699 49.7958 35.6453 46.3424 37.1866 42.6431C38.6566 39.0231 39.3566 34.9831 38.0066 31.9531C37.3117 30.4034 36.165 29.0999 34.7166 28.2131C33.9325 27.7122 33.1138 27.2677 32.2666 26.8831C31.8166 26.7131 31.3766 26.5131 30.9266 26.3431L29.5566 25.913C25.7851 24.9393 21.8281 24.9393 18.0566 25.913C13.7202 27.0036 9.6082 28.8447 5.90661 31.3531C2.12168 33.8872 -1.35217 36.8576 -4.44339 40.203C-7.57487 43.5301 -10.2638 47.2475 -12.4434 51.2631C-13.4936 53.2367 -14.3348 55.3146 -14.9534 57.4631C-15.5234 59.5531 -15.6734 61.6831 -14.8934 63.2331C-14.4129 64.2935 -13.6523 65.2028 -12.6934 65.8631C-12.2256 66.1452 -11.7159 66.3511 -11.1834 66.4731C-10.6114 66.5911 -10.0257 66.6281 -9.44339 66.5831C-6.80023 66.2319 -4.27426 65.2736 -2.06339 63.7831C2.68661 60.8731 6.93661 56.9031 10.9866 52.8931C17.1999 46.8577 22.5806 40.0208 26.9866 32.563C29.1177 28.8824 30.7678 24.9436 31.8966 20.8431L32.2666 19.3531L32.5366 17.813C32.7358 16.8241 32.8561 15.821 32.8966 14.8131C33.0299 12.9723 32.6009 11.1346 31.6666 9.54305C30.9095 8.44002 29.8355 7.59269 28.5866 7.11305C27.2034 6.60695 25.7486 6.32343 24.2766 6.27305C21.1371 6.17417 18.0001 6.53807 14.9666 7.35305C11.8608 8.14255 8.82422 9.18262 5.88661 10.463C2.97124 11.7923 0.16579 13.3505 -2.50339 15.123C-4.87339 16.693 -7.08339 18.423 -9.33339 20.243C-11.4234 21.933 -13.1234 23.3931 -14.5534 24.6231C-15.9834 25.8531 -17.1834 26.803 -18.1934 27.573C-19.5683 28.747 -21.1576 29.6435 -22.8734 30.2131C-23.4352 30.4249 -24.0139 30.5888 -24.6034 30.7031C-25.3234 30.7031 -25.0434 29.8131 -23.9234 28.0931C-22.1583 25.5202 -20.1742 23.1045 -17.9934 20.8731C-13.661 16.2992 -8.84249 12.2117 -3.62339 8.68305C-2.27339 7.79305 -0.883392 6.94305 0.556608 6.15305C2.01182 5.33797 3.51075 4.60353 5.04661 3.95305C8.12962 2.66739 11.3226 1.66329 14.5866 0.95305C18.033 0.156673 21.5754 -0.143024 25.1066 0.0630502C27.1209 0.207902 29.0958 0.694869 30.9466 1.50305C33.0922 2.4312 34.9351 3.94154 36.2666 5.86305C37.5255 7.74386 38.2796 9.91675 38.4566 12.173C38.6213 14.0969 38.5271 16.0342 38.1766 17.9331C37.5902 21.3468 36.6138 24.682 35.2666 27.8731C33.2897 32.4614 30.8185 36.8205 27.8966 40.8731C25.0398 44.8372 21.9088 48.5964 18.5266 52.1231C15.1817 55.6247 11.6499 58.9429 7.94661 62.063C6.03833 63.6662 4.03466 65.1523 1.94661 66.5131C-0.209646 67.9586 -2.53328 69.1372 -4.97339 70.023L-5.01339 69.9031Z" fill="#231F20"/>
</svg>
