<svg width="50" height="62" viewBox="0 0 50 62" fill="none" xmlns="http://www.w3.org/2000/svg">
<path d="M35.0148 38.9372C34.1096 38.7161 33.3182 38.1679 32.7928 37.3983C32.6849 37.2545 32.5123 37.0531 32.4476 36.9596L32.2103 36.6432C32.0449 36.4275 31.9154 36.2621 31.7572 36.0751C31.599 35.8882 31.2323 35.6149 30.995 35.356L30.8799 35.2481L30.7936 35.1547C30.7589 35.1128 30.7204 35.0743 30.6786 35.0396C30.5858 34.9441 30.4648 34.881 30.3334 34.8598C30.0314 34.8598 29.9666 35.1834 29.9091 35.4855C29.9091 35.5214 29.9091 35.7228 29.9091 35.845C29.9091 35.9673 29.9091 36.1327 29.9091 36.2765C29.9102 36.5584 29.9343 36.8398 29.981 37.1179C30.0845 37.7681 30.2806 38.4002 30.5635 38.9948C30.6642 39.1745 30.5635 39.3615 30.2111 39.4406C29.681 39.5353 29.139 39.3537 28.7729 38.9588C28.5954 38.7595 28.432 38.548 28.2839 38.326C28.1666 38.0986 28.0796 37.8568 28.025 37.6069C27.9158 37.1635 27.8484 36.7109 27.8237 36.2549L27.7805 35.5717C27.7703 35.2044 27.7847 34.8369 27.8237 34.4715C27.93 33.8214 28.2926 33.2411 28.8304 32.8607C29.4934 32.4851 30.2969 32.453 30.9878 32.7744C31.3524 32.9259 31.6996 33.1164 32.0233 33.3425C32.2783 33.5037 32.5189 33.6865 32.7424 33.889C33.1762 34.2882 33.5778 34.721 33.9434 35.1834C34.3748 35.7012 34.382 35.7803 34.5762 35.996C34.6734 36.1338 34.8159 36.2331 34.9789 36.2765C35.1476 36.2809 35.3029 36.1849 35.3744 36.032C35.447 35.9265 35.5073 35.8131 35.5542 35.694C35.5868 35.6286 35.6157 35.5614 35.6405 35.4926L35.7555 35.1978L36.3165 33.7596C36.5849 32.9269 36.9391 32.1243 37.3736 31.3649C37.4802 31.1858 37.6004 31.0151 37.7331 30.8543C37.9042 30.6188 38.1639 30.463 38.4522 30.4229C38.7138 30.4789 38.9492 30.6206 39.121 30.8256C39.2149 30.9092 39.3015 31.0006 39.3799 31.0988C39.4922 31.2679 39.5568 31.4642 39.5669 31.6669C39.635 31.8773 39.635 32.1038 39.5669 32.3141C39.0635 33.3755 38.617 34.4629 38.2293 35.5717L37.8913 36.3987C37.8141 36.6455 37.7179 36.8859 37.6037 37.1179C37.5139 37.3521 37.3956 37.5743 37.2513 37.7794C37.126 37.9795 36.9763 38.1631 36.8055 38.326L36.561 38.5561L36.2805 38.7287C35.8895 38.9491 35.4396 39.0421 34.9933 38.9948L35.0148 38.9372Z" fill="#231F20"/>
<path d="M25.4219 47.6235C22.9388 44.6658 20.6907 41.5184 18.6981 38.2103C16.5923 34.7762 15.1984 30.9539 14.5992 26.9704C14.1462 23.9557 14.4199 20.8763 15.3974 17.9886C16.3653 15.4123 18.019 13.1495 20.1795 11.4446C22.3278 9.79327 24.8768 8.74338 27.5649 8.40277C30.1699 8.06073 32.8177 8.26647 35.3386 9.00683C37.8744 9.76148 40.1761 11.1499 42.0264 13.0411C43.5995 14.7084 44.8763 16.6322 45.8018 18.7293C46.6951 20.7542 47.3794 22.865 47.8441 25.0288C48.1422 26.4198 48.3393 27.8306 48.4337 29.25C48.5473 30.6348 48.5857 32.0248 48.5488 33.4137C48.5116 36.1675 48.3147 38.9167 47.9591 41.6477C47.729 43.3376 47.24 43.0859 46.7078 41.6045C45.9949 39.27 45.5887 36.8526 45.4997 34.4133C45.4494 33.047 45.3415 31.6879 45.2552 30.3575C45.178 29.0579 45.0267 27.7638 44.8022 26.4814C44.3211 23.9546 43.5011 21.5042 42.3644 19.1968C41.7974 18.1097 41.1177 17.0853 40.3364 16.1405C39.5627 15.242 38.6699 14.4533 37.6829 13.7962C36.6623 13.1624 35.5684 12.6553 34.4253 12.286C33.2123 11.923 31.9631 11.6939 30.7002 11.6029C27.6808 11.3275 24.671 12.2235 22.2937 14.1054C19.9552 16.0786 18.4498 18.8634 18.0797 21.9006C17.8611 23.612 17.8878 25.3457 18.1588 27.0495C18.4533 28.7889 18.9356 30.4911 19.597 32.1265C21.0722 35.4631 22.9563 38.6033 25.2062 41.4751C26.3855 43.0428 27.6152 44.5817 28.8809 46.1134L32.4333 50.3778C32.5484 50.5072 32.6419 50.651 32.7641 50.7661C32.8864 50.8812 33.0949 50.7229 33.2459 50.6654C33.3969 50.6079 33.6414 50.4425 33.8356 50.3202L34.8999 49.6011C35.619 49.1121 36.3813 48.6159 37.1508 48.1629C37.5319 47.9256 37.9274 47.6883 38.3229 47.4438L38.9557 47.0986C39.2002 46.9691 39.4088 46.8541 39.718 46.7103C40.7893 46.177 41.9255 45.7853 43.0979 45.5453C44.0856 45.3514 45.1016 45.3514 46.0894 45.5453C47.0243 45.7134 47.8908 46.1479 48.5848 46.7966C48.9366 47.134 49.0936 47.6266 49.0018 48.1054C48.8975 48.4863 48.7109 48.8398 48.4553 49.1409C47.8846 49.8571 47.2109 50.4847 46.4562 51.0034C45.737 51.5068 44.8957 52.0102 44.0615 52.5136L42.8462 53.2327L42.3859 53.5347L41.9904 53.808C41.479 54.1577 40.9979 54.5498 40.5522 54.9801C40.1804 55.3143 39.8838 55.7237 39.6821 56.1811L39.6389 56.3105V56.3105L38.6034 55.9725V55.9725V55.9725C38.5875 55.9648 38.5689 55.9648 38.553 55.9725C38.4883 55.9725 38.553 55.9725 38.553 55.9725C38.553 55.9725 38.553 55.9725 38.553 55.9222L38.6106 55.8071C38.6394 55.7313 38.654 55.6509 38.6537 55.5698C38.6948 55.3324 38.7141 55.0917 38.7112 54.8507V54.8507H38.8623C39.1139 54.8075 39.4232 54.7284 39.7252 54.6493L41.6309 54.1172C43.4359 53.6282 45.8665 52.9522 47.427 53.0817C47.8563 53.1045 48.2813 53.1794 48.6926 53.3046C49.0795 53.4416 49.4326 53.6598 49.7282 53.9446C49.841 54.1275 49.9258 54.3263 49.9798 54.5343C50.0079 54.7009 50.0079 54.871 49.9798 55.0377C49.9179 55.4848 49.7793 55.9178 49.5699 56.3177C49.3187 56.7963 49.0042 57.2389 48.6351 57.6337C47.8479 58.4013 47.0015 59.1058 46.1038 59.7407L45.622 60.1003C45.5069 60.1931 45.3869 60.2795 45.2624 60.3592C45.097 60.4526 44.946 60.5317 44.8022 60.5965C44.5344 60.7136 44.2579 60.8097 43.9752 60.8841C43.7165 60.9812 43.474 61.117 43.2561 61.2868C43.0835 61.4019 42.9181 61.3947 42.7886 61.1358C42.6449 60.7336 42.6449 60.294 42.7886 59.8917C42.8749 59.6163 42.9856 59.3492 43.1194 59.0935C43.1878 58.95 43.2646 58.8108 43.3496 58.6764L43.4143 58.5685C43.4143 58.5685 43.4143 58.5685 43.4143 58.5182V58.4319C43.4925 58.2341 43.5888 58.0439 43.7019 57.8638C43.7724 57.7596 43.8326 57.6488 43.8817 57.533C43.8892 57.4878 43.8892 57.4416 43.8817 57.3964C43.888 57.3636 43.8797 57.3296 43.859 57.3034C43.8383 57.2772 43.8072 57.2612 43.7738 57.2597C43.4987 57.255 43.2267 57.3193 42.9828 57.4467L42.7239 57.5618L42.6232 57.6193H42.5801L42.4722 57.6625L40.9189 58.0795C40.302 58.248 39.6751 58.3777 39.042 58.4679H38.6537H38.3373C38.1696 58.4592 38.0032 58.4327 37.8411 58.3888C37.7036 58.3565 37.5689 58.3132 37.4384 58.2593L37.2299 58.1658C37.0571 58.0688 36.8955 57.953 36.748 57.8207C36.1329 57.2841 35.8345 56.4704 35.957 55.6633C35.957 55.5698 35.957 55.4691 36.0002 55.3828C36.0433 55.2965 36.0649 55.1671 36.0577 55.1959V55.1527V55.0664L36.1296 54.8867C36.2085 54.6637 36.3097 54.4493 36.4316 54.2466C36.5299 54.0521 36.6455 53.8668 36.7768 53.6929C37.2021 53.0902 37.7023 52.5441 38.2654 52.0677C38.7688 51.6362 39.265 51.2551 39.7612 50.9027L40.4803 50.4425L40.6888 50.2987V50.2987V50.2987V50.2987V50.2987L40.5018 50.3993L40.1998 50.5647C39.9409 50.7086 39.682 50.8668 39.4232 51.0178C38.3876 51.6506 37.3593 52.3554 36.2447 53.096L35.8204 53.3765L35.468 53.6066L35.0581 53.8583C34.5351 54.1914 33.9721 54.4571 33.3826 54.6493C32.8342 54.8003 32.2553 54.8003 31.707 54.6493C31.5735 54.6178 31.4499 54.5536 31.3475 54.4624L31.0023 54.2251L30.2832 53.7504L25.1774 47.7098L25.4219 47.6235Z" fill="#231F20"/>
<path d="M32.0373 31.2284C32.662 31.6336 33.2323 32.1169 33.7344 32.6667L34.0437 33.0046V33.0694L34.1228 33.2132L34.3241 33.5799C34.3601 33.6303 34.4104 33.7813 34.4679 33.7238C34.5026 33.6836 34.5295 33.6372 34.547 33.5871C34.6118 33.4217 34.5902 33.17 34.6765 32.9975V32.9975C34.6765 32.9975 34.6765 32.9975 34.6765 32.9184L34.7556 32.6307L34.9426 31.9979L35.0576 31.6455L35.2446 31.1997C35.3784 30.8896 35.5422 30.5934 35.7336 30.3151C36.0485 29.8062 36.4993 29.3952 37.0352 29.1286C37.5663 28.8763 38.1675 28.8129 38.7395 28.9488C39.3189 29.0785 39.8588 29.3448 40.3144 29.7255C40.5428 29.9204 40.7613 30.1268 40.9688 30.3439C41.1414 30.5668 41.278 30.8041 41.429 31.063C41.8642 31.8681 42.1286 32.7543 42.2057 33.6662C42.256 34.0474 42.256 34.3854 42.292 34.7737C42.3279 35.162 42.292 35.4928 42.292 35.8524C42.2999 36.5461 42.2711 37.2399 42.2057 37.9306C42.1194 38.8079 42.0115 39.6709 41.8749 40.5194C41.803 40.9437 41.5872 41.3464 41.5081 41.7635C41.429 42.1806 41.3283 42.5977 41.2564 43.0148C41.1845 43.4319 40.9256 43.4678 40.6524 43.0148C40.4775 42.7053 40.3376 42.3773 40.2353 42.0368C40.1562 41.8282 40.1274 41.6125 40.0483 41.3752C39.9479 41.1408 39.8615 40.9007 39.7894 40.6561C39.6887 39.7572 39.7103 38.9014 39.6528 38.0529L39.5737 36.8088C39.5737 36.4061 39.5737 36.0034 39.5162 35.615C39.4809 34.9067 39.365 34.2046 39.171 33.5224C39.1384 33.3785 39.0902 33.2387 39.0272 33.1053C38.9768 33.0046 38.9193 32.8249 38.8905 32.7817C38.8042 32.6091 38.7898 32.5156 38.7323 32.4006C38.6588 32.2485 38.5119 32.1452 38.344 32.1273C38.1778 32.1567 38.0374 32.2674 37.97 32.4222C37.9291 32.5004 37.8954 32.5822 37.8694 32.6667C37.819 32.8033 37.7399 33.0334 37.6752 33.2635L37.5673 33.6375L37.4091 34.2847L37.1287 35.5863C37.0068 36.3422 36.7142 37.0604 36.2729 37.6861C36.1892 37.7888 36.0979 37.8849 35.9997 37.9738C35.8917 38.0768 35.7612 38.1531 35.6185 38.1967C35.4962 38.2183 35.3702 38.1926 35.2662 38.1248C35.1655 38.0672 35.0864 38.0457 34.9641 37.9666L34.6118 37.7508L34.1947 37.4272L34.0868 37.3481L33.9717 37.1971L33.7488 36.8951L33.303 36.2982L32.8571 35.6798L32.3969 35.1476C32.3178 35.0613 32.2459 34.9678 32.1596 34.8887L32.0085 34.7233C31.9079 34.6299 31.8216 34.522 31.7209 34.4357C31.349 34.0643 30.9191 33.7558 30.4481 33.5224C30.2815 33.4463 30.0949 33.4261 29.9159 33.4649C29.7393 33.524 29.5841 33.6341 29.4701 33.7813C29.2891 34.0303 29.2095 34.3387 29.2471 34.6442C29.2823 35.1108 29.3891 35.5692 29.5635 36.0034C29.9464 36.9744 30.4514 37.8927 31.0665 38.736C32.0738 40.0391 33.2031 41.2431 34.4392 42.3316C34.7052 42.5833 34.9857 42.8062 35.2446 43.0507C36.2226 43.9928 36.4096 44.3883 36.1579 45.1002C36.1114 45.2637 36.0562 45.4245 35.9925 45.582C35.7408 46.071 35.0001 46.0063 34.1371 45.3807C31.4658 43.4044 29.2205 40.9097 27.5356 38.0457C27.1775 37.4195 26.8881 36.7565 26.6727 36.0681C26.5567 35.6634 26.475 35.2496 26.4282 34.8312C26.4094 34.5559 26.4094 34.2796 26.4282 34.0042C26.4516 33.7131 26.5096 33.4259 26.6008 33.1485C26.64 33.0089 26.688 32.872 26.7446 32.7386L26.9531 32.3574C27.0911 32.0999 27.2576 31.8587 27.4493 31.6383C27.6507 31.4513 27.8664 31.2644 28.0893 31.0918C28.3189 30.9423 28.5593 30.8101 28.8085 30.6963C29.908 30.3709 31.0944 30.5332 32.0661 31.1421L32.0373 31.2284Z" fill="#231F20"/>
<path d="M12.1468 13.9047C12.3697 13.9047 12.305 14.2139 12.0605 14.6957C11.9354 14.9167 11.7694 15.1119 11.5715 15.271C11.427 15.3289 11.2778 15.3746 11.1256 15.4076C11.0537 15.4076 10.198 15.1272 9.88157 15.0625C9.5976 14.9871 9.32794 14.8657 9.08335 14.7029C8.57996 14.4009 8.05501 14.1204 7.53724 13.8256C7.41977 13.7608 7.31886 13.6697 7.2424 13.5595C6.95582 13.1938 6.57917 12.9089 6.14934 12.7325C6.07828 12.6762 5.98342 12.6599 5.89765 12.6894C5.38885 12.5744 4.91978 12.3262 4.53851 11.9703C4.33716 11.546 4.08547 11.1936 3.85535 10.8053C3.81939 10.7549 3.75467 10.7477 3.77625 10.6183C3.83378 10.3307 3.71153 10.2875 3.62523 10.1868C3.494 10.0332 3.407 9.84677 3.37354 9.6475C3.35465 9.51393 3.35465 9.37836 3.37354 9.24479C3.37354 9.12254 3.58208 8.92119 3.62523 8.9068C3.66838 8.89242 3.78344 8.72702 3.85535 8.62635C3.87759 8.58754 3.90413 8.55136 3.93445 8.51848C3.93445 8.51848 4.27963 8.47533 4.65357 8.41061C4.89194 8.37485 5.13432 8.37485 5.37269 8.41061L5.59562 8.5041L6.07743 8.69107L6.90442 8.98591C6.98352 8.98591 7.01228 9.11535 7.06262 9.20164C7.11296 9.28794 8.12692 9.71941 8.16288 9.75536C8.33546 9.92076 8.58716 9.97829 8.64469 10.3163C8.64469 10.381 8.70222 10.3954 8.74536 10.4241C9.06226 10.6595 9.35172 10.9296 9.60831 11.2296C9.75932 11.3734 9.95348 11.4741 10.1189 11.6035C10.1189 11.6035 10.162 11.6754 10.1836 11.7114C10.2052 11.7473 10.2339 11.812 10.2771 11.8336C10.6594 12.1641 11.063 12.4692 11.4852 12.7469C11.5931 12.8044 11.8879 13.3582 12.0102 13.4157C12.1324 13.4732 12.0605 13.9119 12.1468 13.9047Z" fill="#231F20"/>
<path d="M17.3603 8.66216C17.5257 8.80598 17.2525 8.97138 16.7347 9.1152C16.4985 9.16525 16.2565 9.18219 16.0156 9.16554C15.8646 9.09363 15.7208 9.02891 15.6129 8.96419C15.505 8.89947 15.1742 8.24507 15.0016 7.99338C14.853 7.77506 14.7458 7.53131 14.6852 7.27426C14.5414 6.77806 14.3616 6.28906 14.189 5.77849C14.1636 5.65999 14.1636 5.53743 14.189 5.41893C14.2362 4.99838 14.1587 4.57324 13.9661 4.19643C13.9661 4.1317 13.9661 4.05979 13.8151 4.01665C13.5272 3.62309 13.3643 3.15203 13.3477 2.6647C13.4915 2.24042 13.5634 1.83052 13.6713 1.42062C13.6713 1.36309 13.6713 1.31276 13.7432 1.24084C13.8963 1.17814 13.9815 1.0138 13.9445 0.852519C13.9601 0.664248 14.0246 0.483304 14.1315 0.327562C14.2144 0.228347 14.3085 0.139061 14.412 0.0614879C14.5429 0.00356591 14.6881 -0.0139617 14.829 0.0111495C14.9369 0.0758702 15.0735 0.0111495 15.1958 0.0111495H15.3252C15.3252 0.0111495 15.5985 0.205312 15.8861 0.385092C16.0645 0.502269 16.2244 0.645253 16.3608 0.809372C16.3608 0.809372 16.3967 0.888475 16.4471 1.00353L16.6556 1.41343C16.8066 1.71546 17.0008 2.01749 17.0295 2.0894C17.0583 2.16132 17.0295 2.24042 17.0295 2.31952C17.0295 2.39863 17.4323 3.30472 17.4394 3.34786C17.4394 3.5636 17.5905 3.75057 17.4035 4.01665C17.3818 4.05706 17.3818 4.10568 17.4035 4.14609C17.4918 4.51818 17.5329 4.89993 17.5257 5.2823C17.5506 5.4736 17.5866 5.6633 17.6336 5.8504C17.6405 5.88845 17.6405 5.92741 17.6336 5.96546C17.62 6.01244 17.62 6.0623 17.6336 6.10928C17.6863 6.57795 17.7631 7.0436 17.8637 7.50437C17.8997 7.61224 17.7127 8.17316 17.763 8.29541C17.8134 8.41766 17.3028 8.61182 17.3603 8.66216Z" fill="#231F20"/>
<path d="M10.787 21.1967C11.0027 21.0817 11.1321 21.3909 11.1825 21.9159C11.1805 22.1618 11.1342 22.4054 11.0458 22.635C10.9308 22.7644 10.8229 22.8939 10.7222 22.9874C10.3 23.1196 9.88479 23.2732 9.47817 23.4476C9.20383 23.5718 8.9133 23.6565 8.61522 23.6993C8.02555 23.8215 7.43587 23.9869 6.82462 24.1523C6.68464 24.181 6.54031 24.181 6.40034 24.1523C5.9186 24.0641 5.42204 24.1064 4.9621 24.2746C4.8758 24.2746 4.78951 24.2746 4.73198 24.4184C4.22645 24.6878 3.66504 24.8356 3.09239 24.8499C2.60339 24.6989 2.12158 24.6269 1.65415 24.5191C1.58943 24.5191 1.52471 24.5191 1.4456 24.4328C1.27301 24.1667 1.13638 24.2314 0.992558 24.217C0.77819 24.1785 0.570112 24.1107 0.374115 24.0157C0.257448 23.9356 0.153252 23.8386 0.0648935 23.728C-0.0285921 23.6346 0.000172719 23.3038 0.0217463 23.2606C0.0433199 23.2175 0.0217463 22.9874 0.0217463 22.8507C0.0217463 22.7141 0.0217463 22.7429 0.0217463 22.6997C0.175461 22.5117 0.338674 22.3317 0.510748 22.1604C0.660482 21.9565 0.845593 21.7811 1.05728 21.6426L1.30178 21.5563L1.81955 21.355L2.65372 21.0026C2.73283 20.9594 2.84069 21.0026 2.93418 21.0026C3.02767 21.0026 4.17107 20.5495 4.2286 20.5495C4.49467 20.5495 4.73917 20.3841 5.04839 20.5855C5.10592 20.6286 5.15626 20.5855 5.21379 20.5855C5.68563 20.4809 6.17107 20.4518 6.65203 20.4992C6.89653 20.4992 7.13384 20.4632 7.37115 20.4561C7.4143 20.4561 7.46463 20.4561 7.50778 20.4992C7.56392 20.5186 7.62168 20.5331 7.68037 20.5423C8.27005 20.492 8.85973 20.6071 9.45659 20.5423C9.60042 20.5423 10.2548 20.83 10.413 20.8228C10.5712 20.8156 10.7079 21.2399 10.787 21.1967Z" fill="#231F20"/>
</svg>
