<svg width="80" height="80" viewBox="0 0 80 80" fill="none" xmlns="http://www.w3.org/2000/svg">
<path d="M29.862 29.9448C28.4731 28.9448 27.4592 28.2087 26.4454 27.4865C22.362 24.5559 18.2509 21.6392 14.1954 18.667C13.2231 17.9587 12.3065 17.0837 11.6259 16.1114C11.237 15.5281 11.112 14.4864 11.3759 13.8753C11.5287 13.5142 12.7787 13.3198 13.3759 13.5281C14.8342 14.0142 16.2509 14.6809 17.5842 15.4448C21.737 17.8476 25.8481 20.3337 30.1398 22.8892C30.5287 20.3337 30.862 17.792 31.3342 15.2781C31.6954 13.3337 32.1954 11.3892 32.737 9.48645C33.0842 8.25034 33.8204 7.18089 35.3065 7.38923C36.8481 7.59756 37.3481 8.81978 37.3204 10.1948C37.2648 14.292 37.1259 18.3753 37.0426 22.4726C37.0148 23.4448 37.0426 24.417 37.0426 25.3892C37.1954 25.5281 38.5009 24.3614 39.112 23.7642C44.3342 18.6531 49.5565 13.5698 54.8342 8.51423C55.5704 7.80589 56.5009 7.20867 57.4454 6.81978C57.9454 6.61145 58.8898 6.76423 59.2231 7.12534C59.5565 7.48645 59.6259 8.43089 59.3898 8.917C58.9454 9.84756 58.2787 10.6948 57.5704 11.4587C52.9176 16.5698 48.237 21.6531 43.5704 26.7503C43.0565 27.3059 42.5426 27.8892 41.7787 28.7364C45.2787 28.4864 48.4315 28.2087 51.5842 28.042C57.9315 27.7226 64.2926 27.4587 70.6398 27.1809C71.0287 27.167 71.4454 27.167 71.7787 27.2364C73.9592 27.6948 73.7648 29.8753 72.1259 30.1531C70.1259 30.5003 68.112 30.9309 66.0843 31.1392C58.8204 31.8614 51.5565 32.5003 44.2926 33.1809C44.1398 33.1948 44.0009 33.2503 43.5426 33.3753C45.5426 34.9448 47.3898 36.3892 49.237 37.8198C52.7231 40.542 56.2509 43.2226 59.6815 46.0003C60.5981 46.7503 61.4037 47.7364 61.987 48.7642C62.612 49.8476 61.9592 50.7781 60.7648 50.4864C59.3065 50.1114 57.8065 49.5142 56.5704 48.667C50.5426 44.5559 44.5981 40.3198 38.6259 36.1253C37.9592 35.6531 37.2926 35.1809 36.3204 34.4726C36.112 37.6253 35.9454 40.4587 35.7231 43.292C35.0565 51.7226 34.3898 60.1531 33.6954 68.5837C33.612 69.5142 33.4315 70.4587 33.1537 71.3476C32.7787 72.5698 31.9454 73.3753 30.5981 73.2781C29.3342 73.1809 28.5981 72.3337 28.3759 71.1392C28.1676 70.0003 28.0565 68.8337 28.0704 67.6809C28.1537 60.1531 28.2787 52.6392 28.3898 45.1114C28.4037 44.5559 28.3898 44.0142 28.3898 43.0559C27.7509 43.667 27.3065 44.0698 26.8759 44.5003C22.0704 49.3059 17.2648 54.1253 12.4454 58.9309C11.9037 59.4726 11.2926 60.0142 10.5981 60.3198C10.1259 60.5281 9.29258 60.5142 8.93147 60.2226C8.57036 59.9309 8.48702 59.1115 8.48702 58.6253C8.50091 57.0976 9.32036 56.417 10.0426 55.542C14.2926 50.3892 18.612 45.2781 22.9592 40.1948C24.5287 38.3614 26.237 36.6531 28.2509 34.5142C24.487 34.9448 21.2231 35.3614 17.9592 35.667C14.8204 35.9587 11.6815 36.1392 8.52869 36.3614C8.19536 36.3892 7.84813 36.3337 7.54258 36.292C5.94536 36.0976 6.84813 34.4031 7.30647 34.292C10.4592 33.5142 13.6398 32.7642 16.8342 32.1809C20.6259 31.5281 29.0009 30.2364 29.862 29.9448Z" fill="#161C28"/>
</svg>
