<svg width="56" height="57" viewBox="0 0 56 57" fill="none" xmlns="http://www.w3.org/2000/svg">
<path d="M6.92935 30.6467C6.24045 31.0606 5.67011 31.6453 5.27359 32.3444C4.87706 33.0434 4.66778 33.833 4.66602 34.6367V42.1967C4.66778 43.0003 4.87706 43.7899 5.27359 44.489C5.67011 45.188 6.24045 45.7728 6.92935 46.1867L13.9293 50.3867C14.6552 50.8227 15.4859 51.0531 16.3327 51.0531C17.1794 51.0531 18.0102 50.8227 18.736 50.3867L27.9993 44.8333V32L16.3327 25L6.92935 30.6467Z" stroke="#191A15" stroke-width="4.66667" stroke-linecap="round" stroke-linejoin="round"/>
<path d="M16.3334 38.9996L5.27344 32.3496" stroke="#191A15" stroke-width="4.66667" stroke-linecap="round" stroke-linejoin="round"/>
<path d="M16.334 39L28.0007 32" stroke="#191A15" stroke-width="4.66667" stroke-linecap="round" stroke-linejoin="round"/>
<path d="M16.334 39V51.0633" stroke="#191A15" stroke-width="4.66667" stroke-linecap="round" stroke-linejoin="round"/>
<path d="M28 32V44.8333L37.2633 50.3867C37.9891 50.8227 38.8199 51.0531 39.6667 51.0531C40.5134 51.0531 41.3442 50.8227 42.07 50.3867L49.07 46.1867C49.7589 45.7728 50.3292 45.188 50.7258 44.489C51.1223 43.7899 51.3316 43.0003 51.3333 42.1967V34.6367C51.3316 33.833 51.1223 33.0434 50.7258 32.3444C50.3292 31.6453 49.7589 31.0606 49.07 30.6467L39.6667 25L28 32Z" stroke="#191A15" stroke-width="4.66667" stroke-linecap="round" stroke-linejoin="round"/>
<path d="M39.6667 39L28 32" stroke="#191A15" stroke-width="4.66667" stroke-linecap="round" stroke-linejoin="round"/>
<path d="M39.666 38.9996L50.726 32.3496" stroke="#191A15" stroke-width="4.66667" stroke-linecap="round" stroke-linejoin="round"/>
<path d="M39.666 39V51.0633" stroke="#191A15" stroke-width="4.66667" stroke-linecap="round" stroke-linejoin="round"/>
<path d="M18.5973 10.8137C17.9084 11.2276 17.3381 11.8124 16.9416 12.5114C16.545 13.2105 16.3357 14 16.334 14.8037V25.0004L28.0007 32.0004L39.6673 25.0004V14.8037C39.6656 14 39.4563 13.2105 39.0597 12.5114C38.6632 11.8124 38.0929 11.2276 37.404 10.8137L30.404 6.61371C29.6782 6.17764 28.8474 5.94727 28.0007 5.94727C27.1539 5.94727 26.3231 6.17764 25.5973 6.61371L18.5973 10.8137Z" stroke="#191A15" stroke-width="4.66667" stroke-linecap="round" stroke-linejoin="round"/>
<path d="M27.9995 19.1666L16.9395 12.5166" stroke="#191A15" stroke-width="4.66667" stroke-linecap="round" stroke-linejoin="round"/>
<path d="M28 19.1666L39.06 12.5166" stroke="#191A15" stroke-width="4.66667" stroke-linecap="round" stroke-linejoin="round"/>
<path d="M28 32.0003V19.167" stroke="#191A15" stroke-width="4.66667" stroke-linecap="round" stroke-linejoin="round"/>
</svg>
