<svg width="73" height="73" viewBox="0 0 73 73" fill="none" xmlns="http://www.w3.org/2000/svg">
<path d="M17.0354 21.5492L31.3954 33.2292C33.7754 35.2292 36.1354 37.1292 38.4554 39.1092C39.6154 40.1092 40.7654 41.1092 41.8954 42.1092L42.4054 42.5492L42.8254 42.9192C43.0356 43.107 43.2236 43.3184 43.3854 43.5492C43.4554 43.6592 43.5354 43.8092 43.4554 43.9192C43.3754 44.0292 43.1954 43.9792 43.0754 43.9892C42.5154 43.9892 42.0054 43.8992 41.4654 43.8992L33.8454 43.2792C31.1954 43.0792 28.5254 42.8592 25.8454 42.7592C24.5054 42.7592 23.1554 42.6992 21.8454 42.6892H19.8454H18.8454C18.3679 42.6882 17.8906 42.7115 17.4154 42.7592L16.6254 42.8492C16.3754 42.8492 16.1554 42.9792 15.9154 43.0392C15.4433 43.1572 14.9612 43.2308 14.4754 43.2592C13.5733 43.361 12.6783 43.518 11.7954 43.7292C11.0544 43.9082 10.3435 44.1946 9.6854 44.5792C9.07328 44.9242 8.56283 45.4243 8.20541 46.0292C8.20541 46.1092 8.13541 46.2092 8.09541 46.2992C8.05541 46.3892 8.09541 46.4992 8.09541 46.5892C8.07038 46.765 8.07038 46.9435 8.09541 47.1192C8.15647 47.4163 8.26092 47.7027 8.4054 47.9692C8.70727 48.5532 9.09867 49.0863 9.5654 49.5492C10.9539 50.8261 12.516 51.9 14.2054 52.7392L15.5654 53.4792L16.6354 54.0392L18.4054 54.9392L21.7554 56.7692C24.8654 58.3692 27.9254 60.0192 30.9254 61.8092C31.6654 62.2592 32.3954 62.7192 33.1054 63.1892L34.1054 63.9092L34.5754 64.2392L34.8554 64.4492C35.5188 64.9083 36.0861 65.4926 36.5254 66.1692C36.5801 66.2768 36.6204 66.3912 36.6454 66.5092C36.6454 66.6492 36.5354 66.7492 36.4154 66.7892C36.1639 66.8559 35.9055 66.8928 35.6454 66.8992C35.1154 66.8992 34.6454 66.8992 34.1354 66.8992H33.0554H31.3754C30.2454 66.8992 29.1054 66.8992 27.9554 66.8992C25.612 66.8876 23.2714 67.0615 20.9554 67.4192C18.4694 67.6991 16.1005 68.6267 14.0854 70.1092C12.7954 71.1992 12.6654 72.1092 12.9654 72.2192C13.2654 72.3292 14.0654 72.0292 15.2254 71.8392C17.5654 71.4192 21.4054 71.7492 26.3754 71.7492C28.4454 71.7492 30.5454 71.8192 32.7054 71.8992L35.1254 71.9792C36.2054 71.9792 37.3054 71.9792 38.3254 71.9792C39.229 71.953 40.1217 71.7738 40.9654 71.4492C41.5557 71.2097 42.0803 70.8325 42.4954 70.3492C42.6982 70.1159 42.8697 69.857 43.0054 69.5792C43.1555 69.2614 43.2631 68.9252 43.3254 68.5792C43.4388 67.9042 43.3591 67.2109 43.0954 66.5792C42.4443 64.8592 41.3509 63.3414 39.9254 62.1792C39.1454 61.4992 38.2454 60.8392 37.4754 60.2892L36.7054 59.7592L35.9754 59.2892C34.9754 58.6792 34.0454 58.0992 33.0854 57.5392C29.2554 55.3692 25.3354 53.3692 21.4654 51.4592C20.4654 50.9792 19.5554 50.4592 18.6054 49.9792C17.9454 49.6292 18.1454 49.7492 18.0054 49.6892L17.7554 49.5992C17.5854 49.5292 17.3854 49.4492 17.1554 49.3292C17.0337 49.2718 16.9167 49.205 16.8054 49.1292C16.6954 49.0492 16.5654 48.9292 16.5954 48.8092C16.6835 48.6376 16.8394 48.5107 17.0254 48.4592C17.3469 48.3397 17.6834 48.2656 18.0254 48.2392H18.3154H19.1154L21.1154 48.3092C23.8454 48.4492 26.6254 48.7092 29.4254 48.8992C32.2254 49.0892 35.0454 49.3892 37.8754 49.6492L43.0054 50.0992C44.1375 50.2236 45.2776 50.2604 46.4154 50.2092C47.4198 50.2608 48.4267 50.1936 49.4154 50.0092C50.1617 49.8514 50.871 49.5528 51.5054 49.1292C51.6449 49.0348 51.7755 48.9276 51.8954 48.8092C51.9816 48.7419 52.0474 48.6519 52.0854 48.5492C52.093 48.5265 52.093 48.502 52.0854 48.4792V48.4792V48.4792C52.0854 48.4792 51.9454 48.3992 52.0154 48.4792L52.1254 48.3392C52.2979 47.9608 52.3636 47.5424 52.3154 47.1292C52.2303 46.3409 51.9925 45.5767 51.6154 44.8792C51.0992 43.9276 50.453 43.0526 49.6954 42.2792C48.8754 41.3792 47.9454 40.4992 47.0354 39.6292L45.6754 38.3492L44.7954 37.5592C43.6087 36.4326 42.4221 35.3692 41.2354 34.3692C36.4754 30.3092 31.6554 26.3692 26.8654 22.4392C23.9154 20.0192 20.9654 17.5892 18.0554 15.1392C16.6354 13.8992 15.1987 12.6426 13.7454 11.3692L12.5754 10.3692C12.2154 10.0392 11.8454 9.69925 11.4854 9.36925L10.7654 8.64925C10.5354 8.37925 10.2754 8.09925 10.0654 7.79925C9.95608 7.64376 9.86545 7.47594 9.7954 7.29925C9.7154 7.08925 9.9654 6.99925 10.1154 6.95925C10.8185 6.8594 11.5323 6.8594 12.2354 6.95925C12.9554 7.02925 13.6854 7.13925 14.4154 7.27925L15.6154 7.50925L17.6154 7.93925C22.8622 9.17181 28.0313 10.7145 33.0954 12.5592C41.2605 15.5779 49.1057 19.4 56.5154 23.9692C58.1354 24.9692 59.6654 26.0292 61.2754 27.0492L65.0254 29.4492C65.5009 29.7448 65.9916 30.0152 66.4954 30.2592C66.9032 30.484 67.3239 30.6843 67.7554 30.8592C68.9025 31.3645 70.1333 31.6527 71.3854 31.7092C71.8171 31.7563 72.2512 31.7764 72.6854 31.7692C73.2254 31.6792 73.0454 31.0292 72.3354 29.7692C71.2444 27.9292 69.8786 26.2667 68.2854 24.8392C66.7254 23.5192 65.0954 22.2492 63.4254 21.0392C61.7554 19.8292 60.0054 18.7092 58.2254 17.6192C54.6335 15.4526 50.9282 13.4798 47.1254 11.7092C39.3882 8.10623 31.3594 5.1657 23.1254 2.91925C21.4254 2.45925 19.7154 2.02925 17.9754 1.62925L16.6454 1.32925C15.8054 1.16925 14.9654 0.979246 14.1354 0.829246C12.4654 0.509246 10.8154 0.269246 9.2354 0.109246C7.85854 -0.0595572 6.46472 -0.0326234 5.09541 0.189246C4.17954 0.367423 3.32324 0.773218 2.6054 1.36925C2.29738 1.6357 2.02211 1.93782 1.7854 2.26925C1.63849 2.49275 1.50814 2.72671 1.3954 2.96925C0.96676 3.87752 0.871188 4.90761 1.1254 5.87925C1.34415 6.78127 1.74578 7.62877 2.3054 8.36925C3.06236 9.40196 3.90536 10.3687 4.8254 11.2592C5.8254 12.2592 6.8254 13.1992 7.9054 14.1492L9.5654 15.4792V15.4792C9.5654 15.4792 9.6654 15.4792 9.6754 15.4792L9.7454 15.5392L9.8454 15.6292L10.0454 15.8092L10.4454 16.1592C12.5854 18.0392 14.7354 19.8592 16.8854 21.6692L17.0354 21.5492Z" fill="#231F20"/>
</svg>
