<svg width="104" height="104" viewBox="0 0 104 104" fill="none" xmlns="http://www.w3.org/2000/svg">
<path d="M33.1503 81.2682C33.2249 80.9553 33.2636 80.635 33.2658 80.3134V80.3134V80.3134C33.3004 80.2927 33.3383 80.2782 33.3778 80.2704C33.4768 80.1926 33.5693 80.107 33.6544 80.0142C33.7745 79.7968 33.5911 80.1564 33.6054 80.333C33.6054 80.333 33.4812 80.3164 33.306 80.3622L33.2033 80.4016V80.4016C33.2033 80.4016 33.2033 80.4016 33.1006 80.4411C32.8245 80.6212 32.5666 80.8278 32.3305 81.058C31.3373 82.0459 30.2894 82.9774 29.192 83.8481C28.3544 84.4814 27.3719 84.8954 26.3337 85.0524C26.0215 85.0755 25.7076 85.063 25.3982 85.0152C24.9455 84.9332 24.5261 84.7222 24.1903 84.4077C23.5147 83.6245 23.1518 82.6196 23.1712 81.5855C23.1933 81.1494 23.2685 80.7176 23.3953 80.2997C23.5571 79.8841 23.7319 79.4743 23.9705 79.0078C24.6011 77.8041 25.4036 76.6986 26.3527 75.7261C26.5854 75.482 26.8053 75.2259 27.0116 74.9591C27.1761 74.7459 27.4046 74.4761 27.3774 74.433C27.4211 74.3458 27.4428 74.2492 27.4407 74.1516C27.4425 74.1079 27.4513 74.0648 27.4667 74.0239L27.4453 73.8286L27.4081 73.5643V73.5643L27.5761 73.4998C27.6446 73.4484 27.7087 73.3916 27.7679 73.3298C27.7369 73.4485 27.719 73.5704 27.7146 73.693C27.7325 73.7397 27.6586 73.7145 27.5559 73.754C26.7665 74.0858 26.033 74.5372 25.381 75.0922C24.6095 75.6776 23.8266 76.2888 22.9826 76.8805C22.4482 77.2464 22.1254 76.824 22.0735 76.0191C22.019 74.923 22.3669 73.8446 23.0519 72.9871C23.4379 72.5416 23.8467 72.1165 24.2769 71.7135C24.7778 71.2348 25.3422 70.8272 25.9541 70.502C26.4209 70.2531 26.9302 70.0939 27.4556 70.0327C27.8605 69.9884 28.2701 70.0161 28.6653 70.1146C29.1502 70.2254 29.6024 70.4479 29.986 70.7645C30.5589 71.2483 30.9871 71.8809 31.2232 72.5926C31.2992 72.826 31.3586 73.0645 31.4008 73.3063C31.4424 73.5352 31.4634 73.7673 31.4636 73.9999C31.4691 74.2656 31.4654 74.5348 31.4487 74.7983C31.4142 75.0477 31.3661 75.295 31.3046 75.5391L31.2067 75.898C31.1135 75.7946 31.1135 75.7946 31.1135 75.7946L31.0164 75.9604L30.7737 76.0535C30.4437 76.2559 30.1301 76.4838 29.8356 76.735C29.2947 77.1676 29.16 77.7655 29.3946 78.1254C29.5445 78.2928 29.7988 78.1737 29.9618 78.0683L30.4179 77.7218C30.7573 77.4249 31.1291 77.1672 31.5262 76.9536C31.6009 76.925 31.6103 76.9214 31.9464 76.7924C32.2824 76.6634 32.4346 76.6692 32.6824 76.6169C32.9455 76.5688 33.2126 76.5452 33.4801 76.5464C33.7762 76.5282 34.0733 76.5511 34.3631 76.6145C34.6779 76.6772 34.9834 76.7794 35.2726 76.9187C36.0636 77.3568 36.6633 78.0735 36.9549 78.9294C37.3277 80.0026 37.4228 81.1526 37.2312 82.2724C37.1482 82.8284 36.9971 83.372 36.7815 83.8911C36.7089 84.0368 36.6793 84.1553 36.5823 84.321C36.4853 84.4868 36.3882 84.6526 36.3049 84.7703C36.1449 84.9845 35.9734 85.1898 35.7911 85.3853C35.2243 85.9456 34.6949 86.3523 34.1223 86.9256C33.8475 87.1877 33.5996 87.4767 33.3822 87.7881C33.1703 88.073 32.9618 88.5065 33.2624 88.7874C33.5631 89.0684 33.8985 88.8539 34.1994 88.717C34.5003 88.58 34.8242 88.3914 35.09 88.2466C35.5556 87.9747 36.0549 87.765 36.5751 87.6229L36.7618 87.5512L36.9901 87.56C37.3043 87.5625 37.6171 87.6006 37.9227 87.6733C38.7501 87.8146 39.4873 88.2793 39.9716 88.9649C40.172 89.4492 40.1333 89.9994 39.8673 90.451C39.7694 90.6845 39.6513 90.9091 39.5143 91.122C39.2584 91.4258 38.8951 91.619 38.5002 91.6613C38.0913 91.7487 37.668 91.7428 37.2617 91.6439C37.0348 91.5685 36.7965 91.5331 36.5575 91.5394L36.3737 91.5349L36.2897 91.5672L35.9773 91.5907C35.7377 91.582 35.5 91.6363 35.288 91.7482C35.0266 91.8485 34.7932 91.9381 34.4879 92.1196C33.8989 92.4368 33.2936 92.7228 32.6745 92.9763C32.4143 93.0732 32.1483 93.1538 31.8782 93.2178C31.6728 93.2966 31.4014 93.3151 31.2247 93.3293C30.9081 93.3635 30.5888 93.364 30.272 93.3309C30.0627 93.325 29.8546 93.2972 29.651 93.2479C29.3803 93.1954 29.1183 93.1048 28.8729 92.9789C28.5187 92.7882 28.2156 92.5152 27.9889 92.1828C27.7846 91.9136 27.6257 91.6127 27.5185 91.2922L27.336 90.5375C27.1953 90.0858 27.1847 89.6036 27.3053 89.1461C27.3297 88.9416 27.387 88.7423 27.4751 88.5561C27.5671 88.3493 27.6312 88.1534 27.7419 87.9395L28.0726 87.2663C28.23 87.0345 28.4283 86.7977 28.595 86.5623C28.7617 86.3269 28.9751 86.0736 29.1698 85.8275C29.3699 85.5671 29.5862 85.3196 29.8172 85.0863L31.244 83.5852L31.9568 82.8189L32.4116 82.3016C32.4711 82.2477 32.5345 82.1983 32.6012 82.1538V82.1538L32.9636 82.4003C33.2079 82.5543 33.4615 82.6931 33.7229 82.8158L33.9203 82.9114V82.9114V82.9114V82.9114L32.4798 82.2004V82.2004V82.2004C32.6809 81.9011 32.8138 81.5612 32.8689 81.2048L33.1503 81.2682Z" fill="#231F20"/>
<path d="M36.1972 76.703L37.3188 78.704C37.6601 79.3977 38.0165 80.075 38.3355 80.7666C38.5362 81.2894 38.8942 81.7197 39.1042 82.2389C39.8035 84.0749 40.3212 85.9749 40.6499 87.9118C40.8367 88.7613 41.0199 89.6014 41.2125 90.438C41.4974 91.5369 41.5056 92.6894 41.2362 93.7923C41.1254 94.1454 40.536 94.061 39.9008 93.8014C39.2618 93.6063 38.7175 93.182 38.3723 92.6101C37.7412 90.7526 37.2477 88.8513 36.8956 86.9214C36.542 85.7276 36.0507 84.579 35.4318 83.4987C35.1285 82.876 34.8345 82.2498 34.4975 81.6508C34.1604 81.0518 33.8349 80.4269 33.4662 79.8294C33.0403 79.0824 32.5374 78.3864 32.0497 77.6738C31.3252 76.5955 30.5065 75.5835 29.6034 74.6496C28.8108 74.0236 27.9661 73.4662 27.0787 72.9837C26.8929 72.8623 26.6897 72.7796 26.5096 72.6452C25.8667 72.1422 25.8497 71.7631 26.3586 70.8287C26.4822 70.6206 26.58 70.4009 26.7166 70.1986C27.0565 69.5555 27.7978 69.2352 28.499 69.4286C28.9905 69.569 29.472 69.742 29.9404 69.9465C30.3933 70.1848 30.8233 70.4644 31.225 70.7816C32.0428 71.4139 32.8012 72.1195 33.4909 72.8896C34.5114 74.0567 35.4509 75.2922 36.3029 76.5875L36.1972 76.703Z" fill="#231F20"/>
<path d="M48.82 44.8535C47.2689 50.6852 44.5545 56.1431 40.8402 60.899C40.1726 61.755 39.4922 62.6054 38.8081 63.4464C38.1162 64.2795 37.3816 65.0763 36.6075 65.8336C34.5992 67.787 32.4472 69.587 30.1696 71.2184C29.0275 72.0102 27.9055 72.8265 26.7125 73.5416C26.1243 73.9066 25.549 74.2774 24.9851 74.6224L24.1017 75.1115L23.7003 75.2656C23.5121 75.3578 23.3306 75.4632 23.1573 75.5811C23.0928 75.7765 23.1163 75.9902 23.2215 76.167C23.3012 76.359 23.3942 76.5452 23.4997 76.7243L23.5607 76.883L23.7371 77.1474L24.1302 77.7249C25.0182 79.0336 26.0289 80.3273 27.0131 81.6633C27.9972 82.9994 28.8162 84.4631 29.6351 85.9268C30.748 87.8404 31.6071 89.8908 32.1907 92.0261C32.7702 94.2779 32.7352 96.6439 32.0893 98.8775C31.5606 100.291 30.7461 99.7037 29.9773 98.51C29.577 97.9138 29.1324 97.174 28.7086 96.4048C28.2301 95.6058 27.8456 94.7542 27.5629 93.8668C27.0647 92.3401 26.4542 90.8523 25.7365 89.4157C24.9401 87.8965 24.0657 86.4195 23.1167 84.9907C22.2762 83.4709 21.4502 81.8492 20.4555 80.2066L19.5253 78.5927C19.291 78.2306 19.0816 77.8529 18.8986 77.4622C18.7156 77.098 18.5691 76.7164 18.4614 76.3233C18.2806 75.5958 18.327 74.8304 18.5942 74.13C18.9776 73.4511 19.5316 72.884 20.2013 72.4848L21.3771 71.8085L21.961 71.488L22.2792 71.3123C22.7366 71.1367 23.1733 70.8512 23.5554 70.6188C27.8702 68.0884 31.744 64.8721 35.0246 61.0962C38.7271 57.0603 41.5816 52.3221 43.4187 47.1625C44.5382 43.9507 45.3022 40.6259 45.6969 37.2476C45.9671 35.7192 46.1727 34.1621 46.4085 32.572C46.5275 31.7658 46.6724 30.9711 46.8295 30.0967C46.9338 28.983 47.5779 27.9912 48.5529 27.4428L49.1223 27.2242C49.265 27.159 49.4115 27.1028 49.5611 27.0558C49.8825 26.9539 50.2114 26.8778 50.5449 26.8281C51.2128 26.7174 51.8951 26.7275 52.5594 26.8582C53.8683 27.1677 55.0352 27.9081 55.8729 28.9604C57.2407 30.7809 58.154 32.9018 58.5368 35.1466C58.752 36.213 58.8945 37.2927 58.9633 38.3784C59.0091 39.4649 58.9722 40.5534 58.8527 41.6343C58.769 42.5888 58.6211 43.5367 58.41 44.4714C58.1339 45.7527 57.6158 46.9695 56.8835 48.0566C56.5061 48.6302 55.8984 49.0119 55.2178 49.103C54.9523 49.1697 54.6787 49.199 54.4051 49.19C53.5989 49.071 53.7412 47.656 54.1914 45.4802C54.768 42.2055 54.7828 38.8564 54.2352 35.5767C54.0501 34.134 53.5482 32.7502 52.7653 31.5243C52.5274 31.1615 52.1905 30.8745 51.7945 30.6973C51.3984 30.5543 50.966 30.547 50.5653 30.6764C50.4841 30.6964 50.4057 30.7265 50.3319 30.766C50.3319 30.766 50.3319 30.766 50.3786 30.7481C50.4253 30.7302 50.3786 30.7481 50.3786 30.7481C50.3429 30.8553 50.3171 30.9656 50.3016 31.0776L50.2145 31.4645C50.197 31.7818 50.1968 32.0604 50.1923 32.3835L50.2572 36.3754C50.261 37.0847 50.2219 37.7936 50.1402 38.4983C50.0486 39.2083 49.9347 39.9161 49.8208 40.624C49.5707 42.0374 49.2891 43.4524 48.9277 44.855L48.82 44.8535Z" fill="#231F20"/>
<path d="M73.7233 86.7628C71.2652 87.5028 68.8547 88.0318 66.3781 88.6398C65.4783 88.8352 64.6252 89.1519 63.7312 89.3344C60.5711 89.9477 57.3938 90.4604 54.2172 90.9192C52.8013 91.1093 51.4047 91.3776 50.0009 91.6272C49.1091 91.7875 48.1986 91.9549 47.2796 92.072L46.5731 92.129L45.899 91.9914C45.4111 91.9046 44.9305 91.7811 44.4612 91.6222C43.8697 91.4207 44.0049 91.0475 44.5042 90.5345C44.7385 90.2518 45.0611 89.8923 45.393 89.5292C45.5776 89.3405 45.7774 89.1353 45.9843 88.9488L46.2982 88.6783C46.4016 88.6234 46.5113 88.5813 46.6249 88.5529C50.017 87.9577 53.5363 87.0246 57.1765 86.7412C59.3778 86.3892 61.5493 85.8708 63.6722 85.1903C66.0529 84.5836 68.4125 83.9313 70.7511 83.2335L72.8947 82.5392L74.9765 81.7401C75.9615 81.3354 76.9206 80.8706 77.8486 80.3484C78.06 80.2349 78.2597 80.1009 78.4447 79.9481C78.6285 79.8167 78.8019 79.6714 78.9634 79.5134C79.134 79.342 79.2929 79.1593 79.439 78.9666C79.5598 78.8143 79.67 78.6539 79.7689 78.4865C80.0194 78.0984 80.1043 77.6261 80.0045 77.175C79.8771 76.7579 79.4941 76.4715 79.058 76.4672C78.896 76.4703 78.7346 76.4892 78.5762 76.5236C78.4704 76.53 78.3645 76.512 78.2668 76.471C78.1467 76.381 78.0405 76.2738 77.9518 76.1527C77.6409 75.744 77.4116 75.2792 77.2764 74.7838C77.1761 74.5224 77.0793 74.2704 76.9897 74.037C76.876 73.6085 76.955 73.1518 77.2059 72.7864C77.367 72.5317 77.5512 72.2925 77.7563 72.0717C77.8842 71.9583 77.9647 71.7775 78.1586 71.7245L78.8085 71.6036C80.2175 71.3588 81.6671 71.6507 82.8716 72.4218C83.4565 72.8249 83.9699 73.3229 84.3905 73.8953C84.7289 74.5306 84.9536 75.22 85.0547 75.9326C85.3877 77.358 84.6098 78.9312 83.8751 80.338C83.5297 80.9495 83.1274 81.5271 82.6736 82.0632L82.1211 82.6608C81.8948 82.8793 81.6543 83.0825 81.4013 83.2692C80.7652 83.791 80.0688 84.2345 79.3269 84.5903C79.0173 84.771 78.6941 84.9273 78.3603 85.0578L77.4267 85.4162C76.7825 85.6634 76.185 85.8928 75.5595 86.1329C74.934 86.373 74.3272 86.606 73.6709 86.7936L73.7233 86.7628Z" fill="#231F20"/>
<path d="M83.9083 61.2803C84.12 61.4133 84.3073 61.5663 84.5133 61.7122L84.8017 61.9335C84.8859 62.0402 84.956 62.1573 85.0104 62.2819C85.2075 62.7953 85.5224 63.2529 85.7159 63.757L85.9991 64.4945C86.1244 64.7237 86.2184 64.9686 86.2786 65.2227L86.4109 65.986C86.4304 66.2145 86.4216 66.4446 86.3846 66.6709C86.3614 67.0012 86.3533 67.3149 86.318 67.5856C86.3053 67.8687 86.2583 68.1493 86.1781 68.4212C85.9124 69.3092 85.4665 70.1331 84.8684 70.8413C84.3349 71.5078 83.7009 72.0873 82.9891 72.5588C82.3978 72.9928 81.7545 73.3513 81.0743 73.6259C80.2112 74.0748 79.2013 74.1486 78.2821 73.8301C77.9957 73.7258 78.1432 73.2729 78.4005 72.7992C78.589 72.3678 78.8821 71.9901 79.2534 71.7006C79.7942 71.4823 80.302 71.1901 80.7624 70.8321C81.2661 70.4766 81.7416 70.0828 82.1848 69.6542C82.6868 69.1004 82.9389 68.3645 82.8818 67.6192C82.8871 67.2423 82.8147 66.9701 82.8213 66.7641C82.7868 66.5073 82.7192 66.256 82.6201 66.0166C82.5135 65.6638 82.2046 65.4102 81.8379 65.3742C81.6975 65.3705 81.5571 65.3778 81.4179 65.3962C81.3185 65.4252 81.2217 65.4624 81.1285 65.5073L80.7737 65.6434C80.2509 65.8441 79.6643 65.9622 79.0474 66.1133C78.0669 66.4455 77.0567 66.6826 76.0308 66.8214C75.795 66.859 75.5572 66.8824 75.3186 66.8913C75.1429 66.8477 74.9778 66.7689 74.8334 66.6598C74.7285 66.4988 74.6589 66.3175 74.6291 66.1276C74.572 65.6647 74.6026 65.1951 74.719 64.7435C74.7709 64.4879 74.8134 64.2359 74.8818 63.9955C74.993 63.6127 75.1649 63.2501 75.3908 62.9217C75.6065 62.5556 75.8479 62.2053 76.113 61.8733C76.3685 61.6887 76.6399 61.5272 76.9239 61.3906C77.1244 61.2996 77.3302 61.2206 77.5401 61.1541C77.915 60.9703 78.3055 60.8203 78.7071 60.7061C79.0992 60.5556 79.695 60.7125 80.9315 60.4735L82.5304 60.481L83.2711 60.7644L83.9472 61.1583L83.9083 61.2803Z" fill="#231F20"/>
<path d="M71.4821 51.2044C73.3445 51.2286 75.2837 51.2019 77.3671 51.3555C78.1704 51.3455 78.972 51.4297 79.7556 51.6062C81.3915 51.9953 82.8615 52.8938 83.954 54.172C84.3898 54.7932 84.7513 55.4633 85.0311 56.1687C85.1817 56.5453 85.2956 56.9356 85.3713 57.3341C85.4428 57.7632 85.4591 58.1997 85.42 58.633C85.3394 59.3988 85.0687 60.1324 84.6325 60.7669C84.2339 61.3093 83.7507 61.7842 83.2014 62.1732C82.0052 63.1791 80.4637 63.6786 78.9049 63.5654C78.4246 63.5141 78.4393 62.9943 78.6767 62.3569C78.8981 61.6364 79.3071 60.9877 79.8618 60.4773C80.673 60.1335 81.361 59.552 81.8351 58.8094C81.9049 58.6603 81.9304 58.4944 81.9087 58.3313C81.8251 57.941 81.6812 57.5662 81.4822 57.2203C81.4144 57.0836 81.3355 56.9527 81.2463 56.8289C81.1847 56.7437 81.112 56.6672 81.0303 56.6011C80.84 56.4412 80.6164 56.3258 80.3758 56.2633C79.7471 56.0848 79.1012 55.9736 78.449 55.9317C76.6788 55.7377 74.8961 55.6842 73.1175 55.7717L69.537 55.9036C67.703 55.9197 65.8702 55.8071 64.052 55.5669C62.4866 55.4948 60.9379 55.2139 59.4468 54.7318C59.1043 54.6167 58.7726 54.4716 58.4556 54.2982C57.3074 53.5393 57.2928 52.8594 57.844 51.9515C57.9654 51.735 58.0998 51.526 58.2465 51.3257C58.7416 50.7452 59.4973 50.4551 60.2537 50.5552C61.2673 50.7124 62.1338 50.9047 63.0858 50.957C64.0378 51.0093 65.0522 51.1126 66.1571 51.117C67.7876 51.1231 69.5602 51.1924 71.4262 51.0867L71.4821 51.2044Z" fill="#231F20"/>
<path d="M60.4296 21.4061C60.657 21.608 60.3431 21.8784 59.724 22.1911C59.4245 22.2967 59.107 22.3421 58.7899 22.3247C58.5934 22.2435 58.4029 22.1483 58.22 22.04C58.1317 21.9775 57.4741 20.7946 57.1915 20.4211C56.9522 20.0674 56.7673 19.6798 56.643 19.2713C56.3384 18.4777 56.0374 17.6935 55.6875 16.9495C55.6145 16.781 55.5742 16.6002 55.5687 16.4167C55.5661 15.7789 55.3857 15.1545 55.0479 14.6135C55.0085 14.5108 54.9726 14.4175 54.8154 14.3707C54.3638 13.8601 54.0214 13.2625 53.8093 12.6146C53.7824 12.0144 53.619 11.4773 53.6001 10.8419C53.5714 10.7672 53.5427 10.6925 53.6189 10.5561C53.7747 10.3812 53.7943 10.1237 53.6667 9.92724C53.6237 9.81521 53.5771 9.69384 53.5305 9.57248C53.5142 9.43061 53.5131 9.28739 53.5272 9.14529C53.5673 8.96405 53.6207 8.78602 53.687 8.61267C53.7916 8.45608 53.9541 8.34746 54.1388 8.3107C54.3075 8.33163 54.4196 8.14935 54.5453 8.05825C54.5946 8.02953 54.6482 8.00896 54.704 7.99733C55.0418 8.07054 55.3748 8.16451 55.7011 8.2787C56.0288 8.40283 56.3417 8.56292 56.6341 8.75604L56.8996 9.02903C57.1022 9.21635 57.2883 9.4209 57.4556 9.64038C57.8128 10.1245 58.175 10.6496 58.2647 10.7437C58.3544 10.8378 58.3615 10.9958 58.3463 11.1515C58.3311 11.3073 59.3827 12.7353 59.3834 12.8208C59.516 13.1662 59.7548 13.4815 59.5887 13.9416C59.5841 14.0217 59.6142 14.0999 59.6711 14.1564C59.9043 14.7572 60.0427 15.3907 60.0813 16.0341C60.127 16.3486 60.2453 16.6567 60.3097 16.964C60.3312 17.02 60.2967 17.0975 60.2959 17.1514C60.2764 17.227 60.2703 17.3055 60.2778 17.3833C60.4813 18.1085 60.4815 18.8904 60.7373 19.5848C60.8018 19.7529 60.6318 20.6215 60.7128 20.8046C60.7938 20.9877 60.3341 21.3249 60.4296 21.4061Z" fill="#231F20"/>
<path d="M73.6238 31.7233C73.6093 31.9645 73.2934 31.9786 72.8246 31.9015C72.619 31.844 72.4338 31.7293 72.2907 31.5709C72.2427 31.4054 72.2066 31.2367 72.1826 31.0661C72.1503 30.9821 72.5266 29.7022 72.639 29.2414C72.7404 28.8023 72.9026 28.3795 73.1208 27.9852C73.518 27.1865 74.0012 26.4336 74.5618 25.7397C74.6892 25.5815 74.8455 25.4488 75.0222 25.3487C75.6134 25.0079 76.1446 24.5724 76.5947 24.0596C76.6881 24.0237 76.775 23.9154 76.7866 23.7503C77.2331 23.1076 77.8302 22.5842 78.5258 22.2257C78.8554 22.1635 79.1412 22.0431 79.5059 21.9887L80.4624 21.8572C80.5464 21.825 80.6304 21.7927 80.7574 21.8725C81.0682 22.096 81.2054 21.9791 81.3842 21.9426C81.635 21.8659 81.8989 21.8411 82.1596 21.8698C82.3277 21.9127 82.4866 21.9861 82.6283 22.0863C82.774 22.1589 82.8218 22.5904 82.8397 22.6371C82.8576 22.6838 82.958 22.9452 83.0225 23.1132L83.087 23.2812C82.8489 23.8159 82.5658 24.3295 82.241 24.8164L82.019 25.0194L81.552 25.4772C81.2222 25.818 80.825 26.0669 80.751 26.181C80.677 26.2951 80.555 26.2562 80.4523 26.2957C80.3496 26.3351 79.4242 27.3008 79.3811 27.3281C79.1104 27.432 78.9852 27.7478 78.5753 27.7124C78.5118 27.7023 78.4477 27.7269 78.4073 27.7769C78.0285 28.1182 77.627 28.4333 77.2055 28.7202C77.0008 28.8845 76.8326 29.0883 76.6279 29.2526C76.6279 29.2526 76.5252 29.292 76.4785 29.3099C76.4116 29.3192 76.3477 29.3437 76.2918 29.3816C75.8022 29.7892 75.3569 30.2474 74.9634 30.7484C74.8801 30.8661 74.2243 31.2785 74.1553 31.4336C74.0863 31.5886 73.6289 31.6249 73.6238 31.7233Z" fill="#231F20"/>
</svg>
