<svg width="71" height="58" viewBox="0 0 71 58" fill="none" xmlns="http://www.w3.org/2000/svg">
<path d="M2.17711 56.9697C2.05079 56.9227 1.87068 56.7593 1.87017 56.6902C1.86965 56.6167 1.63267 56.1708 1.49697 55.9879C1.24501 55.6482 1.16666 55.3955 1.12876 54.8012C1.11169 54.6027 1.09124 54.3509 1.07417 54.2417C1.0571 54.1325 1.03315 53.978 1.02291 53.8986C1.00584 53.8191 0.988719 53.6486 0.971649 53.5196C0.783536 52.1322 1.27966 49.8054 2.76118 45.1252C4.206 40.5608 5.98219 35.603 10.2636 24.1846C12.6046 17.9414 13.36 15.8695 14.3898 12.8658C15.1928 10.5235 16.2804 7.10672 16.2367 7.06309C16.2162 7.04262 14.9625 8.54917 14.1867 9.52621C10.4584 14.2224 6.5385 19.8942 0.912678 28.7337C-1.05295 31.8222 -3.07831 35.0721 -7.37965 42.0383C-10.566 47.1986 -12.3231 49.931 -13.6099 51.7265C-14.4576 52.9096 -14.8804 53.4615 -15.2327 53.8452C-15.3147 53.9349 -15.5046 54.1459 -15.6536 54.314C-15.9647 54.6648 -16.2167 54.9064 -16.4067 55.036C-16.4801 55.0856 -16.6609 55.2455 -16.8099 55.3912C-17.1366 55.7107 -17.4531 55.9414 -17.7645 56.087C-17.9506 56.174 -18.048 56.196 -18.2611 56.1995C-18.7264 56.2064 -18.86 56.1245 -19.0339 55.722C-19.0903 55.5929 -19.2059 55.3846 -19.2921 55.2591C-19.6055 54.8024 -19.6743 54.5847 -19.7339 53.8626C-19.756 53.6045 -19.8057 53.1657 -19.8433 52.8877C-20.0003 51.773 -19.9013 50.9115 -19.3742 48.794C-18.5451 45.4659 -16.0399 37.7452 -11.3715 24.1306C-10.7418 22.2937 -10.0912 20.3928 -9.9258 19.9063C-9.76022 19.4198 -9.52553 18.7374 -9.40382 18.3899C-9.28262 18.0424 -9.20584 17.7825 -9.23316 17.8123C-9.62372 18.226 -10.8306 19.6244 -11.6889 20.6577C-17.7752 27.9848 -24.3572 37.5568 -27.9343 44.2831C-28.4396 45.2332 -28.529 45.4548 -28.4467 45.5538C-28.3562 45.6622 -28.6349 46.046 -28.8034 46.046C-29.0499 46.046 -29.0677 45.1779 -28.8393 44.2949C-28.1018 41.4455 -24.5561 34.7684 -20.0971 27.8312C-15.5409 20.7429 -9.55233 12.7818 -7.55802 11.1621C-7.46755 11.0891 -7.29737 10.9778 -7.17857 10.9148C-6.9727 10.8057 -6.9488 10.8012 -6.67346 10.8218C-6.51471 10.8338 -6.2706 10.8677 -6.13148 10.8972C-5.9915 10.9267 -5.78002 10.9513 -5.6595 10.9517C-5.51782 10.9521 -5.36557 10.9817 -5.22525 11.0366C-5.10576 11.083 -4.91624 11.1306 -4.80204 11.1424C-4.43947 11.1798 -4.18468 11.3714 -4.07543 11.6887C-4.04129 11.7881 -3.98338 11.8486 -3.83538 11.9368C-3.26302 12.2792 -3.26313 13.1059 -3.836 15.3931C-4.21684 16.9133 -5.19244 20.1534 -5.75473 21.7655C-7.20826 25.9327 -10.3473 35.222 -12.3117 41.1695C-12.4005 41.4363 -12.4584 41.6394 -12.4413 41.6208C-12.4242 41.6022 -11.7033 40.4415 -10.8387 39.0415C-8.08681 34.5852 -6.92864 32.716 -5.76036 30.8458C1.66483 18.9606 7.03487 11.1378 11.6182 5.52893C13.9193 2.71315 15.6765 0.913496 16.7395 0.284117C17.3158 -0.0570623 17.5237 -0.0791199 18.4294 0.104945C18.7017 0.160211 18.9108 0.183801 19.0099 0.170326C19.1243 0.154974 19.2412 0.173746 19.4611 0.247262C19.6232 0.301334 19.7648 0.357808 19.7741 0.372818C19.7911 0.38817 19.8799 0.402117 19.9887 0.404676C20.2367 0.409793 20.5459 0.52393 20.6667 0.653497C20.7965 0.793196 20.9403 1.024 20.9683 1.13937C20.9853 1.20846 21.0485 1.26891 21.1829 1.34468C21.5245 1.53736 21.6671 1.79674 21.7405 2.35933C21.9095 3.65582 21.2013 6.68908 19.5232 11.8548C18.3334 15.5178 17.2418 18.5437 13.838 27.6144C12.0042 32.5014 11.1701 34.7566 10.1927 37.4709C9.50615 39.3776 8.69684 41.6859 8.71032 41.6993C8.71032 41.7061 8.89141 41.4401 9.09728 41.1079C15.1331 31.3676 19.5707 24.7602 23.943 19.0035C30.153 10.8275 35.2059 5.6849 37.4235 5.28396C37.6932 5.23518 38.007 5.2577 38.5262 5.36278C38.7244 5.40286 39.0252 5.44086 39.1945 5.447C39.4226 5.45553 39.5686 5.48375 39.7557 5.5559C39.8956 5.60946 40.116 5.66504 40.2474 5.67937C40.7309 5.73208 41.0667 5.96621 41.3062 6.41782C41.3591 6.51829 41.4581 6.63401 41.5354 6.68465C42.01 6.99844 42.1823 7.42467 42.2193 8.37486C42.291 10.2106 41.6949 12.7363 39.5179 19.8246C38.4957 23.1527 38.169 24.3237 38.3214 24.1112C38.3385 24.0919 38.4272 24.0112 38.5271 23.9317C38.7101 23.7855 38.8467 23.6725 38.9203 23.6067C38.9425 23.5869 39.0655 23.4815 39.1955 23.3724C39.6711 22.9711 41.4503 21.4125 41.5442 21.3147C41.5612 21.3045 41.7245 21.1498 41.923 20.971C42.1215 20.7924 42.5525 20.4024 42.8809 20.1045C43.2093 19.8067 43.6405 19.4168 43.839 19.2381C44.0375 19.0595 44.2078 18.9051 44.2178 18.8951C44.2349 18.8849 44.3986 18.7307 44.5973 18.5521C44.796 18.3734 44.9667 18.2182 44.9767 18.2074C45.016 18.1635 47.2405 16.1642 47.9011 15.578C48.2899 15.2329 48.6649 14.8996 48.7344 14.8371C49.2473 14.3767 51.0934 12.7819 51.7875 12.1995C51.907 12.0994 52.0123 12.0089 52.0224 11.9983C52.0753 11.942 52.774 11.3673 53.3772 10.8845C53.7548 10.5823 54.0963 10.3079 54.1361 10.2747C54.1754 10.2414 54.5722 9.94148 55.0169 9.60814C56.9476 8.16078 58.106 7.50217 58.9136 7.3927C59.0887 7.36899 59.633 7.42957 59.9404 7.50701C60.0531 7.53532 60.3048 7.56539 60.5006 7.57374C60.7721 7.58568 60.9167 7.61194 61.1096 7.68545C61.2496 7.7385 61.4437 7.78945 61.5431 7.79883C62.0492 7.84659 62.4015 8.08002 62.6001 8.49917C62.6736 8.65542 62.7332 8.72304 62.8687 8.80442C63.1921 8.99918 63.3647 9.3072 63.4393 9.82302C63.5263 10.4184 63.4665 11.0588 63.1463 12.992C62.7568 15.3451 62.6812 15.9952 62.6812 16.9918C62.6812 17.8885 62.7835 18.4983 63.0271 19.0393C63.1261 19.2602 63.258 19.3619 63.711 19.5684L63.9279 19.6671L65.2286 19.6534C67.1097 19.6338 67.4216 19.6398 67.8842 19.7068C68.1127 19.7398 68.4432 19.7814 68.6185 19.7993C68.9083 19.8288 69.3436 19.9247 69.8714 20.0748C70.2734 20.1891 70.6076 20.4065 70.8668 20.7227L71 20.8851L70.9419 21.0363C70.8019 21.4034 70.1653 22.136 69.4218 22.788C68.4967 23.599 67.9573 23.8887 66.8281 24.1812C65.9876 24.3989 64.898 24.5812 64.2169 24.6182C64.0182 24.6284 63.7549 24.6455 63.6316 24.6548C63.3341 24.6775 62.4662 24.6138 62.134 24.5449C61.9872 24.5145 61.7384 24.4467 61.5795 24.3944C60.529 24.0481 59.9193 23.5353 59.463 22.6138C59.3999 22.4847 59.2824 22.2837 59.2034 22.1672C58.9991 21.8658 58.7266 21.2775 58.6197 20.9073C58.5003 20.4927 58.4276 20.0659 58.3624 19.3914C58.3334 19.0886 58.3028 18.8083 58.2959 18.7686C58.2959 18.7289 58.2702 18.5908 58.2565 18.4617C58.2395 18.3326 58.2259 18.2184 58.219 18.208C58.1866 18.1551 58.1474 17.2436 58.1526 16.6384C58.1526 15.7976 58.2958 14.4172 58.4739 13.4025C58.5029 13.2362 58.5268 13.0867 58.5268 13.0702C58.527 12.9992 57.382 13.7689 56.4635 14.4573C56.0584 14.761 55.7186 15.019 55.7087 15.0305C55.6917 15.0424 55.4957 15.2054 55.2574 15.3936C55.0191 15.5818 54.7914 15.7626 54.7515 15.7951C54.1764 16.2651 53.9378 16.4629 53.6491 16.7095C52.3303 17.8362 52.0054 18.1154 51.7144 18.3714C51.5338 18.5302 51.2736 18.7577 51.1365 18.8769C51 18.9959 50.7974 19.1741 50.6875 19.2726C50.5782 19.371 50.4321 19.5011 50.3643 19.5615C50.296 19.6219 50.1988 19.7094 50.1476 19.7561C50.0964 19.8028 49.9416 19.9409 49.8042 20.063C49.6659 20.1851 49.5366 20.3012 49.515 20.3211C49.4928 20.3409 49.3132 20.5034 49.1145 20.6821C48.9158 20.8609 48.7451 21.0153 48.7352 21.0252C48.7011 21.0595 47.9054 21.7786 47.6369 22.0181C47.5344 22.1092 46.8363 22.7421 46.8202 22.7582C46.8032 22.7684 46.6397 22.9224 46.4412 23.1011C46.1027 23.4059 45.9095 23.5803 45.7208 23.7511C45.6765 23.7908 45.4975 23.9533 45.322 24.1121C45.1465 24.2709 44.9848 24.4172 44.963 24.4371C44.9408 24.4568 44.7606 24.6194 44.5619 24.7981C44.3632 24.9768 44.1925 25.1327 44.1826 25.1444C44.1468 25.1868 42.9501 26.2433 42.1582 26.9318C41.9094 27.1483 41.594 27.4229 41.4573 27.542C41.3207 27.6611 41.0281 27.9101 40.8075 28.0951C40.5872 28.2802 40.3663 28.4665 40.3166 28.509C40.0877 28.7049 39.1076 29.4817 38.799 29.7119C37.1698 30.9266 36.2415 31.4011 35.3996 31.4493C35.1058 31.4664 35.0174 31.4579 34.8182 31.391C34.5128 31.2895 34.391 31.1657 34.1962 30.7598C34.1091 30.5786 33.9869 30.3664 33.924 30.2883C33.6494 29.9461 33.5126 29.5128 33.45 28.7842C33.4295 28.5379 33.3766 28.1088 33.3356 27.8308C33.1888 26.8477 33.2384 25.7956 33.4927 24.5633C33.8048 23.0523 34.1117 21.9499 35.2595 18.2178C36.2192 15.0973 36.7614 13.2175 37.1414 11.6921C37.2404 11.295 37.33 10.9402 37.3408 10.9038C37.3596 10.8398 37.3577 10.8397 37.257 10.9022C37.0966 11.0029 36.6332 11.3469 36.4135 11.5277C35.7121 12.1046 33.9241 13.9354 32.7621 15.2664C29.0297 19.5418 24.9588 24.978 20.623 31.4767C18.015 35.386 16.2015 38.2273 12.3846 44.3847C9.39034 49.2154 8.06029 51.2766 6.83994 52.9777C5.98523 54.1691 5.86405 54.319 4.90642 55.3747C4.6956 55.6072 4.49627 55.7895 4.32984 55.9021C4.25644 55.9517 4.08685 56.1021 3.95268 56.2362C3.66539 56.5235 3.3309 56.7691 3.05624 56.8948C2.80224 57.0109 2.38635 57.0463 2.17877 56.9693L2.17711 56.9697Z" fill="#BFF747"/>
</svg>
