<svg width="77" height="76" viewBox="0 0 77 76" fill="none" xmlns="http://www.w3.org/2000/svg">
<path d="M60.0201 39.9406C60.1841 39.8725 60.3443 39.7957 60.5001 39.7106C60.5897 39.6648 60.6682 39.5999 60.7301 39.5206C60.7301 39.4206 60.7301 39.4206 60.6601 39.3706C60.5901 39.3206 60.3501 39.2206 60.1201 39.1306L59.7601 39.0006H59.6601L59.2501 38.9106L58.0501 38.5806L48.4301 36.4506C45.1601 35.7206 41.8601 35.1306 38.5901 34.2906L32.8901 32.8106C30.5373 32.2676 28.2303 31.542 25.9901 30.6406L25.1601 30.1506C24.8969 30.0201 24.6543 29.8516 24.4401 29.6506C24.085 29.3623 23.7719 29.0257 23.5101 28.6506C23.2842 28.3574 23.0771 28.0501 22.8901 27.7306C22.8212 27.6553 22.776 27.5614 22.7601 27.4606C22.7487 27.3202 22.7728 27.1792 22.8301 27.0506C22.908 26.856 23.0087 26.6714 23.1301 26.5006C23.7018 25.718 24.4057 25.0412 25.2101 24.5006C26.5376 23.6992 27.9538 23.0548 29.4301 22.5806C31.0601 21.9906 32.7301 21.4406 34.4301 20.9006L36.4301 20.2706L37.8901 19.8006L44.1601 17.8706C49.1601 16.3506 54.0601 14.5806 58.9201 12.8706C62.0301 11.7606 65.1201 10.5606 68.2101 9.4006C69.7701 8.85393 71.3301 8.29727 72.8901 7.7306L75.2301 6.9406C76.0201 6.6906 76.8501 6.5606 77.6601 6.3706C79.6601 5.9506 79.8501 6.9306 78.7301 8.8306C78.0427 10.0571 77.1497 11.1564 76.0901 12.0806C74.7446 13.2595 73.2097 14.2028 71.5501 14.8706C68.3701 16.1606 65.1701 17.3706 61.9601 18.5306C60.3601 19.1106 58.7501 19.6806 57.1401 20.2206L52.2601 21.7606C49.0134 22.7606 45.7535 23.7273 42.4801 24.6606L37.5801 26.0506C37.4901 26.0506 37.3301 26.1306 37.3201 26.1206H37.1301H36.8401L36.1201 26.2106C35.4344 26.3209 34.7634 26.5088 34.1201 26.7706C34.0401 26.7706 33.9401 26.8506 33.9101 26.9306C33.8801 27.0106 34.0101 27.0106 34.0601 27.0506L34.4601 27.2206C34.7401 27.3306 35.0401 27.4306 35.3301 27.5306L36.3301 27.8006L37.5301 28.0806L43.5301 29.3106C47.7001 30.1506 51.9201 30.9206 56.1401 31.7006L63.5201 33.0606C65.1616 33.3292 66.7873 33.6864 68.3901 34.1306C69.4734 34.5751 70.5005 35.1457 71.4501 35.8306C71.6397 35.9902 71.82 36.1605 71.9901 36.3406C72.2178 36.5374 72.3639 36.8119 72.4001 37.1106C72.3992 37.8585 72.1765 38.5893 71.7601 39.2106C71.3507 39.9054 70.8569 40.5469 70.2901 41.1206C68.8352 42.5071 67.2284 43.7248 65.5001 44.7506C65.0601 45.0406 64.5901 45.3106 64.1401 45.5906C63.6901 45.8706 63.1401 46.1606 62.9001 46.3006L60.9901 47.3006C59.7101 47.9806 58.4201 48.6306 57.1201 49.3006C49.2691 52.9953 41.1931 56.1916 32.9401 58.8706C26.6001 61.0106 20.4001 63.2206 13.9401 64.9506C12.5301 65.3306 11.1501 65.7606 9.70012 66.0706C7.81654 66.5889 5.85952 66.7883 3.91012 66.6606C3.32613 66.5591 2.76641 66.3488 2.26012 66.0406C1.80315 65.7219 1.39546 65.3378 1.05012 64.9006C0.71856 64.559 0.411152 64.1948 0.130117 63.8106C-0.209883 63.2206 0.130117 62.6006 0.990117 61.7306C2.15378 60.6729 3.57428 59.9385 5.11012 59.6006C16.1101 56.4006 27.7101 53.2206 39.0001 49.0406C43.1901 47.4906 47.3401 45.8206 51.4001 44.0406C53.4001 43.1206 55.4001 42.1606 57.4001 41.1406L58.8901 40.3606L59.6001 39.9606H59.6701L59.8501 39.9006L60.0201 39.9406Z" fill="#BFF747"/>
<path d="M56.1407 3.65023C57.2127 3.49273 58.2745 3.27235 59.3207 2.99023C59.7007 2.89023 60.0507 2.68023 60.4407 2.58023C61.8007 2.18023 63.2507 1.91023 64.6407 1.46023C65.2541 1.25918 65.8552 1.0221 66.4407 0.750234C67.183 0.350045 67.9936 0.0922768 68.8307 -0.00976562C69.1007 -0.00976562 69.2107 0.430234 69.1807 0.990234C69.1824 1.51099 68.9646 2.00837 68.5807 2.36023C67.1965 3.24845 65.7088 3.96377 64.1507 4.49023C63.1507 4.79023 62.3007 5.40023 61.3207 5.78023C60.3407 6.16023 59.1407 6.58023 58.0207 6.92023C57.3307 7.11023 56.6407 7.30023 55.9307 7.47023C54.8807 7.74023 53.7907 7.91023 52.7307 8.17023C51.9207 8.40023 51.1307 8.78023 50.3007 9.10023C50.1107 9.16023 49.9307 9.25023 49.7407 9.29023C49.0407 9.43023 48.8007 9.16023 48.6207 8.02023C48.6207 7.76023 48.5307 7.50023 48.5107 7.23023C48.3536 6.53887 48.5743 5.81599 49.0907 5.33023C50.3122 4.6763 51.6515 4.27179 53.0307 4.14023C54.0307 3.98023 55.0307 3.85023 56.1107 3.61023L56.1407 3.65023Z" fill="#BFF747"/>
<path d="M30.8307 71.7903C30.0307 72.0103 29.2007 72.1603 28.3607 72.3203L25.8907 72.8103C25.2907 72.9403 24.7207 73.1903 24.1107 73.3003C21.9607 73.6803 19.7907 74.0003 17.6407 74.3003C16.6907 74.4503 15.7607 74.7103 14.8407 74.9503C14.2407 75.0603 13.6507 75.2203 13.0407 75.3103C12.4227 75.3804 11.7987 75.3804 11.1807 75.3103C10.7907 75.3103 10.7307 74.7003 10.9207 74.0303C11.0761 73.2911 11.5138 72.6417 12.1407 72.2203L13.7807 71.5803C14.3307 71.3703 14.9107 71.2103 15.4807 71.0503C16.6391 70.7185 17.8184 70.4646 19.0107 70.2903C20.4573 69.9545 21.865 69.4685 23.2107 68.8403L27.8907 67.1903C28.8907 66.8903 29.8907 66.6103 30.8307 66.2903C32.3007 65.8003 33.8307 65.3803 35.2407 64.7603C36.3304 64.2028 37.3827 63.5748 38.3907 62.8803C38.6307 62.7403 38.8407 62.5503 39.0807 62.4403C40.0007 62.0303 40.4207 62.2803 41.0807 63.6303C41.2307 63.9403 41.3907 64.2403 41.5207 64.5603C41.9805 65.3958 41.902 66.4243 41.3207 67.1803C39.6612 68.6233 37.7203 69.7061 35.6207 70.3603C34.0807 70.9303 32.4807 71.3603 30.8907 71.9103L30.8307 71.7903Z" fill="#BFF747"/>
</svg>
