<svg width="88" height="77" viewBox="0 0 88 77" fill="none" xmlns="http://www.w3.org/2000/svg">
<path d="M50.2614 22.501C48.658 29.8873 40.561 44.6601 21 44.6601" stroke="#BFF747" stroke-width="4.26136" stroke-linecap="round"/>
<path d="M50.2614 74.4893C51.3977 67.1976 57.1364 52.6143 71 52.6143" stroke="#BFF747" stroke-width="4.26136" stroke-linecap="round"/>
<path d="M50.2614 22.2168C51.3977 32.3494 57.1364 52.6145 71 52.6145" stroke="#BFF747" stroke-width="4.26136" stroke-linecap="round"/>
<path d="M50.2614 74.4893C48.658 64.5461 40.561 44.6597 21 44.6597" stroke="#BFF747" stroke-width="4.26136" stroke-linecap="round"/>
<path d="M12.7045 2.0127C12.0632 4.96734 8.82441 10.8766 1 10.8766" stroke="#BFF747" stroke-width="1.70458" stroke-linecap="round"/>
<path d="M12.7045 22.8076C13.1591 19.8909 15.4545 14.0573 21 14.0573" stroke="#BFF747" stroke-width="1.70458" stroke-linecap="round"/>
<path d="M12.7045 1.89844C13.1591 5.95161 15.4545 14.0579 21 14.0579" stroke="#BFF747" stroke-width="1.70458" stroke-linecap="round"/>
<path d="M12.7045 22.8076C12.0632 18.8302 8.82441 10.8754 0.999999 10.8754" stroke="#BFF747" stroke-width="1.70458" stroke-linecap="round"/>
<path d="M73.5568 -7.83789C72.5948 -3.40592 67.7366 5.45802 56 5.45802" stroke="#BFF747" stroke-width="2.55686" stroke-linecap="round"/>
<path d="M73.5568 23.3535C74.2386 18.9784 77.6818 10.2281 86 10.2281" stroke="#BFF747" stroke-width="2.55686" stroke-linecap="round"/>
<path d="M73.5568 -8.00977C74.2386 -1.93001 77.6818 10.2295 86 10.2295" stroke="#BFF747" stroke-width="2.55686" stroke-linecap="round"/>
<path d="M73.5568 23.3535C72.5948 17.3874 67.7366 5.45517 56 5.45517" stroke="#BFF747" stroke-width="2.55686" stroke-linecap="round"/>
</svg>
