<svg width="51" height="47" viewBox="0 0 51 47" fill="none" xmlns="http://www.w3.org/2000/svg">
<path d="M12.4514 19.2748C12.4514 19.2748 14.6598 12.4393 10.876 10.8094C7.09222 9.17945 13.909 5.81677 16.7652 8.77563C19.6215 11.7345 18.7381 18.5847 16.7652 19.2748C15.3534 19.6617 13.8632 19.6617 12.4514 19.2748V19.2748Z" fill="#231F20"/>
<path d="M10.4056 10.7872C11.0549 10.4465 11.7565 10.2158 12.4816 10.1044C12.9917 10.0035 13.5193 10.0363 14.0128 10.1998C14.2426 10.2995 14.456 10.4332 14.6459 10.5963C14.9188 10.8392 15.1655 11.1099 15.382 11.4039C15.8607 12.0994 16.2397 12.8581 16.5083 13.6579C16.9126 14.9703 17.1597 16.3258 17.2445 17.6961C17.4723 20.2572 17.3185 22.8378 16.7881 25.3539C16.239 27.9423 15.3892 30.4581 14.2557 32.8501C13.2178 34.9943 11.9064 36.9957 10.3541 38.8046C9.87561 39.3993 9.34559 39.9426 8.82292 40.5006L7.26228 42.1819C6.72489 42.7252 6.20959 43.2979 5.65748 43.8412C5.10536 44.3846 4.56061 44.9646 4.0085 45.5226C3.34597 46.2568 3.7803 46.6533 4.8698 46.69C6.47307 46.7075 8.04133 46.2221 9.35295 45.3023C10.0891 44.8104 10.7222 44.2671 11.3921 43.7238C11.7254 43.4487 12.0402 43.1519 12.3344 42.8354C12.6362 42.527 12.9454 42.226 13.2325 41.9029C14.4041 40.6264 15.4817 39.267 16.4568 37.8354C17.4316 36.3864 18.2883 34.8617 19.0186 33.276C19.708 31.6638 20.25 29.9928 20.6381 28.2834C21.5436 24.2232 22.4343 19.9061 21.816 15.5008C21.515 12.9727 20.6114 10.5533 19.1805 8.44507C18.7673 7.87005 18.2934 7.34085 17.7671 6.86652C17.186 6.36323 16.5272 5.95665 15.8163 5.66242C15.113 5.37267 14.3671 5.19908 13.6079 5.14848C12.8995 5.08436 12.1856 5.12144 11.4878 5.25861C9.93498 5.56929 8.45743 6.17771 7.13714 7.05008C5.87307 7.8766 4.72236 8.86385 3.71404 9.98691C2.9387 10.8343 2.27113 11.7738 1.72644 12.7842C1.13258 13.859 0.764389 15.0431 0.644299 16.2644C0.542257 17.4787 0.692624 18.701 1.08599 19.8547C1.53538 21.0901 2.37501 22.1466 3.47847 22.8649C4.29874 23.382 5.20685 23.7453 6.15806 23.9369C7.053 24.126 7.96745 24.2073 8.88181 24.1792C10.7026 24.1119 12.4897 23.6695 14.1306 22.8796C14.8854 22.5477 15.5972 22.1262 16.2507 21.6241C16.5392 21.3979 16.8122 21.1526 17.0678 20.8899C17.2673 20.6553 17.4541 20.4102 17.6273 20.1557C17.8947 19.745 18.0705 19.2818 18.1426 18.7974C18.2156 18.1235 17.9866 17.4517 17.5168 16.9619C17.3513 16.7583 17.1637 16.5736 16.9574 16.4112C16.6335 16.1983 16.2212 16.3158 15.7574 16.536L14.9256 16.9032C14.7732 16.9533 14.6311 17.0304 14.506 17.1308C14.3661 17.2189 14.2336 17.3143 14.1011 17.4171C13.6668 17.6961 13.2693 18.0118 12.8202 18.2835C12.3581 18.5589 11.8786 18.8041 11.3847 19.0177C10.3863 19.4227 9.33082 19.6704 8.25608 19.7519C7.77934 19.7856 7.3003 19.7659 6.82795 19.6931C6.47148 19.6189 6.13355 19.4741 5.83415 19.2673C5.63601 19.1179 5.479 18.9209 5.37774 18.6946C5.24959 18.404 5.17241 18.0935 5.14953 17.7769C5.14953 17.6374 5.14953 17.4611 5.14953 17.307C5.14953 17.1528 5.14953 16.9472 5.14953 16.771C5.15705 16.6416 5.17928 16.5136 5.21579 16.3892C5.24605 16.2513 5.28791 16.1162 5.34093 15.9854C5.62061 15.286 6.00808 14.6345 6.48933 14.0544C7.55431 12.7181 8.90815 11.6389 10.4498 10.8973L10.4056 10.7872Z" fill="#231F20"/>
<path d="M43.1125 15.7793C45.1148 7.60022 38.2539 6.31535 38.2539 6.31535C38.2539 6.31535 42.3984 2.64431 44.8793 5.27278C47.3601 7.90124 47.6693 11.7632 46.7417 13.6207C45.8142 15.4783 43.1125 15.7793 43.1125 15.7793Z" fill="#231F20"/>
<path d="M38.9973 6.35995C39.6451 6.02188 40.3437 5.79126 41.0659 5.67714C41.5784 5.5766 42.1083 5.60947 42.6044 5.77258C42.8309 5.87424 43.0416 6.00775 43.2301 6.16906C43.5009 6.41409 43.7475 6.68454 43.9663 6.97668C44.4454 7.67977 44.8245 8.44576 45.0926 9.25273C45.4962 10.5652 45.7433 11.9207 45.8287 13.2909C46.0568 15.8519 45.903 18.4326 45.3723 20.9487C44.8186 23.5335 43.9689 26.0462 42.84 28.4376C41.7985 30.5797 40.4874 32.5807 38.9384 34.392C38.4599 34.9794 37.9299 35.53 37.4072 36.0807L35.8466 37.762C35.3092 38.3053 34.7939 38.8854 34.2491 39.4213C33.7044 39.9573 33.1743 40.5373 32.6222 41.0953C31.9597 41.8295 32.4014 42.226 33.4835 42.2627C35.0868 42.2803 36.6551 41.7948 37.9667 40.8751C38.7028 40.3832 39.3359 39.8398 40.0132 39.2965C40.3442 39.0214 40.6566 38.7246 40.9481 38.4081C41.2499 38.0998 41.5664 37.7987 41.8462 37.4757C43.0118 36.1997 44.0821 34.8402 45.0484 33.4082C46.0205 31.9575 46.8771 30.433 47.6102 28.8487C48.295 27.2355 48.8345 25.5647 49.2224 23.8561C50.1352 19.796 51.026 15.4788 50.4076 11.0736C50.0992 8.54614 49.1934 6.12788 47.7648 4.01783C47.3581 3.44202 46.8864 2.91481 46.3588 2.44662C45.2044 1.43362 43.7481 0.827342 42.2142 0.721232C41.5059 0.657112 40.792 0.694198 40.0941 0.831364C38.533 1.14929 37.0483 1.76507 35.7214 2.64486C34.4582 3.4696 33.3097 4.45708 32.3057 5.58169C31.5302 6.41653 30.8647 7.3467 30.3254 8.34966C29.1002 10.5039 28.8642 13.08 29.6776 15.4201C30.1294 16.6542 30.9684 17.71 32.0701 18.4303C32.8892 18.9415 33.7947 19.2997 34.7423 19.4876C35.6397 19.677 36.5566 19.7583 37.4734 19.7299C39.2842 19.6657 41.0627 19.2335 42.7001 18.4597C43.4551 18.1208 44.1689 17.6971 44.8276 17.1969C45.1138 16.9706 45.3843 16.7253 45.6373 16.4627C45.8582 16.2057 46.0349 15.9414 46.1968 15.7284C46.4642 15.3244 46.6447 14.8694 46.7268 14.3922C46.8011 13.7159 46.5721 13.0414 46.1011 12.5493C45.9375 12.344 45.7496 12.1592 45.5416 11.9987C45.2177 11.7857 44.8055 11.9106 44.3417 12.1235L43.5099 12.4906C43.3582 12.5424 43.2163 12.6194 43.0903 12.7182C42.9504 12.8063 42.8253 12.9017 42.6854 13.0045C42.2511 13.2909 41.8535 13.5992 41.4045 13.8709C40.9322 14.1508 40.4401 14.3962 39.9322 14.6051C38.9338 15.0101 37.8783 15.2578 36.8036 15.3393C36.3293 15.3729 35.8527 15.3532 35.3828 15.2806C35.0236 15.2076 34.683 15.0628 34.3816 14.8547C34.1885 14.7003 34.0325 14.5046 33.9252 14.2821C33.7956 13.9923 33.7207 13.6812 33.7044 13.3643C33.7044 13.2248 33.7044 13.0486 33.7044 12.8944C33.7044 12.7402 33.7044 12.5346 33.7044 12.3584C33.7119 12.2291 33.7341 12.101 33.7706 11.9766C33.8053 11.84 33.8471 11.7052 33.8958 11.5728C34.1783 10.8749 34.5655 10.2238 35.0442 9.64186C36.1102 8.3125 37.4576 7.23445 38.9899 6.48477L38.9973 6.35995Z" fill="#231F20"/>
</svg>
