<svg width="70" height="70" viewBox="0 0 70 70" fill="none" xmlns="http://www.w3.org/2000/svg">
<path d="M34.5018 36.0088C33.9185 35.863 33.4445 35.7779 32.9827 35.6199C28.316 34.04 24.1598 31.5001 20.2101 28.6077C19.7483 28.2675 19.3108 27.8421 19.0191 27.3682C18.8612 27.113 18.8855 26.6025 19.0435 26.3109C19.165 26.0921 19.6389 25.9341 19.9063 25.9827C20.4167 26.0678 20.9393 26.2501 21.4011 26.5053C24.4514 28.1824 27.4896 29.8716 30.5157 31.5852C31.6459 32.2293 32.7639 32.9098 33.882 33.5782C34.2587 33.797 34.6233 34.04 34.9636 34.2952C35.3525 34.5748 35.5834 35.0001 35.3282 35.4255C35.158 35.705 35.0365 36.0088 34.5018 36.0088Z" fill="#191A15"/>
<path d="M52.597 18.8008C52.4998 19.3842 52.4269 20.0647 52.2811 20.721C51.6977 23.3095 51.1144 25.8981 50.5067 28.4745C50.3731 29.0335 50.1422 29.5804 49.8748 30.0786C49.5224 30.747 49.0241 30.9779 48.4772 30.8686C47.9304 30.7592 47.5901 30.3217 47.5779 29.5561C47.5658 29.0335 47.5779 28.4745 47.6995 27.9762C48.5258 24.7071 49.3765 21.438 50.2394 18.1811C50.3366 17.8165 50.5067 17.4397 50.7498 17.1602C51.3453 16.4554 52.281 16.6741 52.512 17.5734C52.597 17.9258 52.5606 18.3269 52.597 18.8008Z" fill="#191A15"/>
<path d="M20.0148 52.9497C19.4436 52.9011 18.8725 52.7796 18.3134 52.6337C17.8152 52.5001 17.4627 52.1598 17.4141 51.6129C17.3777 51.1511 17.8395 50.6528 18.4471 50.5799C19.2614 50.4827 20.0877 50.3976 20.902 50.4341C23.3568 50.5435 25.8239 50.7015 28.2787 50.8716C29.0929 50.9324 29.9072 51.0417 30.7214 51.1754C31.0009 51.224 31.2926 51.3212 31.5114 51.4792C32.1311 51.9046 32.0825 52.6824 31.4141 52.9862C31.0374 53.1563 30.5756 53.2292 30.1624 53.2292C28.8013 53.29 22.0322 53.1077 20.0148 52.9497Z" fill="#191A15"/>
</svg>
